<svg width="219" height="186" viewBox="0 0 219 186" fill="none" xmlns="http://www.w3.org/2000/svg">
<g clip-path="url(#clip0_574_29443)">
<path opacity="0.31" d="M214.31 144.25H4.69033C4.07439 144.25 3.46448 144.129 2.89542 143.893C2.32636 143.658 1.8093 143.312 1.37377 142.877C0.938229 142.441 0.592742 141.924 0.35703 141.355C0.121319 140.786 0 140.176 0 139.56C-8.08997e-07 138.315 0.493987 137.122 1.37344 136.241C2.2529 135.361 3.44589 134.866 4.69033 134.864H214.31C215.554 134.866 216.747 135.361 217.627 136.241C218.506 137.122 219 138.315 219 139.56C219 140.176 218.879 140.786 218.643 141.355C218.407 141.924 218.062 142.441 217.626 142.877C217.191 143.312 216.674 143.658 216.105 143.893C215.536 144.129 214.926 144.25 214.31 144.25Z" fill="#737381"/>
<path d="M157.549 75.5222C157.985 76.0724 158.302 76.7068 158.481 77.3855C158.877 78.5206 159.252 79.6611 159.621 80.8069C159.991 81.9527 160.382 83.1628 160.157 84.3568C160.133 84.5973 160.057 84.8298 159.934 85.0378C159.811 85.2459 159.644 85.4246 159.445 85.5615C159.159 85.7017 158.833 85.7377 158.524 85.6632C158.129 85.5363 157.77 85.3185 157.475 85.0274C157.181 84.7364 156.958 84.3801 156.826 83.9873C156.505 83.227 156.377 82.381 156.082 81.6261C155.547 80.2715 154.519 78.8847 153.014 78.7241C152.243 78.6384 151.247 78.5581 150.712 77.9156C150.176 77.2731 150.123 75.7739 150.883 75.2813C151.142 75.124 151.43 75.0203 151.729 74.9761C152.68 74.8478 153.643 74.8478 154.594 74.9761C155.424 75.0457 156.328 74.8851 157.115 75.2385C157.276 75.3054 157.423 75.4016 157.549 75.5222Z" fill="#3E1A00" stroke="#1B1B1E" stroke-width="0.535426" stroke-miterlimit="10"/>
<path d="M75.5917 33.4161C75.7416 32.7414 75.8862 32.0614 76.02 31.3815C76.3091 29.9465 77.0909 28.458 75.9825 27.1944C74.992 26.07 72.9413 26.4555 71.7634 27.1409C71.1767 27.4598 70.7022 27.9514 70.4043 28.549C70.1064 29.1467 69.9996 29.8215 70.0982 30.4819C70.231 31.043 70.5415 31.5462 70.9833 31.9167C71.4252 32.2871 71.9748 32.505 72.5505 32.538C72.2399 33.5392 71.9561 34.5512 71.6991 35.5631C71.3297 37.0141 72.2346 37.5281 73.5142 37.2497C73.8461 37.205 74.1632 37.0841 74.4405 36.8963C74.7915 36.5491 75.0174 36.0953 75.083 35.606C75.2597 34.8778 75.431 34.1496 75.5917 33.4161Z" fill="#7A3300" stroke="#1B1B1E" stroke-width="0.535426" stroke-miterlimit="10"/>
<path d="M152.999 73.7764L152.415 73.6532C146.29 72.5235 139.624 70.6441 133.365 71.2224C132.021 71.3455 130.687 71.6025 129.338 71.6882C124.776 71.972 120.407 70.3604 116.022 69.4019C114.234 69.0111 112.451 68.8023 110.668 68.4328C108.489 67.9777 106.234 68.4328 104.045 68.1544C102.122 67.9028 100.243 67.0835 98.3262 67.3138C95.8419 67.6243 93.6466 69.1664 92.9988 71.6293C92.73 72.882 92.7704 74.1813 93.1166 75.4148C93.3843 76.5767 93.8501 77.8135 94.8888 78.4078C97.0573 79.6446 101.148 78.8415 103.557 78.8843C106.813 78.9379 110.063 79.0503 113.318 79.1574C119.743 79.3716 126.168 79.5911 132.561 79.4305C139.169 79.2645 145.776 79.4305 152.372 79.6554C152.597 77.6957 152.806 75.736 152.999 73.7764Z" fill="#522200"/>
<path d="M44.5206 86.6427C43.6195 87.725 42.9981 89.012 42.7108 90.3907C42.4706 91.1785 42.4484 92.0167 42.6466 92.8161C42.9411 93.796 43.8513 94.7008 44.9436 94.4813C45.2972 94.3869 45.6097 94.1781 45.8325 93.8876C46.0552 93.5971 46.1756 93.2411 46.175 92.875C46.1657 92.6823 46.1178 92.4934 46.0341 92.3196C45.9504 92.1458 45.8327 91.9905 45.6878 91.8631C45.7164 91.53 45.7665 91.1992 45.8377 90.8725C45.8548 90.7482 45.9068 90.6312 45.9876 90.5352C46.2982 90.2247 46.3946 90.7119 46.3731 90.9261C46.3517 91.1403 46.1215 91.7453 46.3731 91.8845C46.5552 91.9541 46.6998 91.7185 46.7479 91.5311C46.903 90.8463 46.9997 90.1495 47.0371 89.4483L47.1816 87.5261C47.2084 87.3164 47.2084 87.1041 47.1816 86.8943C47.1155 86.5781 46.9381 86.2961 46.6816 86.0996C46.4252 85.9031 46.1067 85.8051 45.7842 85.8235C45.2863 85.9545 44.8434 86.2416 44.5206 86.6427Z" fill="#7A3300" stroke="#1B1B1E" stroke-width="0.535426" stroke-miterlimit="10"/>
<path d="M63.1807 69.798C61.1675 69.5142 59.0793 70.1353 57.1518 70.4405L54.7905 70.9063C53.7838 71.0468 52.7971 71.3056 51.851 71.6773C50.4536 72.3359 49.447 73.6209 48.6385 74.9488C47.8517 76.3347 47.1455 77.7649 46.5235 79.2322C45.4527 81.5881 44.5371 83.96 43.5626 86.3266C43.5353 86.3942 43.5351 86.4698 43.562 86.5376C43.5889 86.6054 43.6409 86.6602 43.7072 86.6907C45.1421 87.3546 46.545 88.0774 47.9317 88.8324C47.9464 88.8413 47.963 88.8467 47.9801 88.8482C47.9972 88.8497 48.0145 88.8472 48.0305 88.841C48.0465 88.8348 48.0609 88.825 48.0726 88.8124C48.0842 88.7998 48.0928 88.7846 48.0977 88.7681C48.4725 87.5795 53.2967 79.6659 54.4371 79.1305C55.1356 78.895 55.8518 78.7159 56.5788 78.595C58.0363 78.1786 59.4566 77.6413 60.8248 76.9888C62.0884 76.3878 63.3054 75.6934 64.4657 74.9113C64.8615 74.646 65.175 74.275 65.3705 73.8405C66.2647 71.8219 65.2474 70.0871 63.1807 69.798Z" fill="#FFB884" stroke="#8E3C00" stroke-width="0.535426" stroke-miterlimit="10"/>
<path d="M124.396 98.1546C123.977 97.488 123.592 96.7999 123.245 96.0932C123.082 95.6623 122.837 95.2675 122.522 94.9314C121.981 94.5329 121.331 94.3088 120.659 94.2889C119.694 94.1068 118.705 94.1068 117.741 94.2889C117.341 94.3657 116.971 94.551 116.67 94.8243C115.872 95.6381 116.632 97.0891 117.419 97.646C118.206 98.2028 119.283 98.3688 120.096 99.0488C120.864 99.7803 121.467 100.668 121.863 101.651L123.197 104.408C123.282 104.58 123.384 104.772 123.566 104.831C123.67 104.858 123.778 104.858 123.882 104.831C125.017 104.574 125.692 103.332 125.729 102.154C125.826 100.612 125.129 99.3861 124.396 98.1546Z" fill="#FFEAED" stroke="#1B1B1E" stroke-width="0.535426" stroke-miterlimit="10"/>
<path d="M54.3032 77.573C55.0258 78.2478 55.8889 78.7543 56.8304 79.0561C57.3334 79.2266 57.8747 79.2492 58.3901 79.121C58.9055 78.9929 59.3733 78.7195 59.7378 78.3333C60.3482 77.5784 60.5677 76.304 61.5261 76.1595C61.8125 76.1356 62.1006 76.1796 62.3668 76.288C63.7107 76.7324 65.0439 77.4713 66.4467 77.2678C67.3461 77.1054 68.1605 76.6339 68.749 75.9346C69.1129 75.5587 69.3868 75.1051 69.55 74.608C69.7133 74.1109 69.7616 73.5832 69.6914 73.0647C69.2845 71.0087 66.6287 70.575 64.9422 70.4733C62.6505 70.3394 60.3107 70.3662 58.0726 69.8629C56.4182 69.4881 55.01 69.563 53.7036 70.9337C53.1101 71.5997 52.7272 72.4265 52.6033 73.3099C52.4794 74.1933 52.6201 75.0936 53.0075 75.8971C53.3274 76.534 53.7674 77.1031 54.3032 77.573Z" fill="#7A3300" stroke="#1B1B1E" stroke-width="0.535426" stroke-miterlimit="10"/>
<path d="M67.17 64.8671C64.4339 65.1509 63.5665 66.966 62.153 69.0327C60.9858 70.7461 59.8882 73.284 61.3981 75.083C62.6135 76.5287 64.2198 77.1819 65.8046 78.0975C67.1432 78.8685 68.2301 79.4682 69.9381 79.3985C74.0877 79.2272 78.28 79.693 82.4778 79.6663C85.1549 79.6663 87.7357 79.6663 90.3164 78.8631C92.5759 78.151 93.3951 75.9504 93.9895 73.7712C94.5838 71.592 94.9104 68.3581 93.3577 66.4038C93.1559 66.1449 92.922 65.9128 92.6616 65.7131C92.2605 65.4233 91.8231 65.1875 91.3605 65.0116C90.5124 64.5787 89.5508 64.4197 88.6084 64.5565C88.3996 64.6047 88.2015 64.6797 87.998 64.7386C86.1465 65.2572 84.2496 65.5978 82.3332 65.7559C80.1101 65.9184 77.8762 65.8503 75.6672 65.5524C72.883 65.2687 69.9702 64.5833 67.17 64.8671Z" fill="#FFB884" stroke="#FFB884" stroke-width="0.535426" stroke-miterlimit="10"/>
<path d="M118.559 96.8053C118.683 96.0771 118.934 94.1281 118.442 93.6463C117.945 93.2753 117.352 93.0542 116.734 93.0091C115.963 92.8324 115.197 92.5647 114.437 92.3452L109.709 90.9745C107.173 90.2211 104.681 89.3274 102.245 88.2974C98.9147 86.916 95.4452 85.3525 91.8524 85.7166C91.0194 85.8649 90.1954 86.0597 89.3841 86.3002C88.4243 86.4761 87.5122 86.8519 86.707 87.4032C86.1565 87.8349 85.7637 88.4362 85.5895 89.1137C85.4152 89.7913 85.4693 90.5074 85.7432 91.1512C86.964 94.3637 90.2783 94.5404 93.1428 95.3061C94.6521 95.6394 96.1873 95.8419 97.7314 95.9111C102.861 96.3502 107.972 96.9534 113.066 97.7208C114.355 97.9136 115.641 98.1171 116.926 98.3312C117.28 98.3901 117.73 98.5293 118.153 98.5722C118.329 97.9832 118.458 97.3889 118.559 96.8053Z" fill="#522200"/>
<path d="M87.81 93.4958C88.0328 93.5549 88.2672 93.5549 88.49 93.4958C91.2099 92.7998 93.5765 90.3743 95.2096 88.2165C97.8332 84.7577 99.4234 80.7206 101.886 77.1761C102.641 76.1052 103.659 75.3449 104.285 74.1777C105.454 71.9936 105.883 69.4889 105.506 67.0404C104.671 62.575 99.493 61.2578 95.5522 61.9164C92.9715 62.3501 90.6692 63.8493 88.0991 64.3312C87.7715 64.3586 87.4555 64.4652 87.1782 64.6417C87.0813 64.7385 87.0144 64.8612 86.9854 64.9951C86.9854 68.1274 87.0122 71.2543 86.9854 74.3918C86.9533 76.3462 87.1782 78.8412 86.9158 80.4422C86.7552 81.4273 85.9788 82.5196 85.6683 83.4941C84.8462 85.7719 84.7935 88.2564 85.5184 90.5671C85.8396 91.5201 86.6963 93.196 87.81 93.4958Z" fill="#522200"/>
<path d="M73.8408 73.3535L73.9961 73.6587L73.8408 73.3535Z" fill="#737381"/>
<path d="M87.1191 79.9655C88.8202 76.7206 90.8667 73.6688 93.223 70.8633L87.1191 79.9655Z" fill="#7A3300"/>
<path d="M87.1191 79.9655C88.8202 76.7206 90.8667 73.6688 93.223 70.8633" stroke="#3E1A00" stroke-width="0.535426" stroke-miterlimit="10"/>
<path d="M74.3329 72.283C74.2311 71.4156 74.0545 70.5857 73.9688 69.7129C73.9358 69.2826 73.8641 68.8561 73.7546 68.4386C73.7427 68.4003 73.7284 68.3627 73.7118 68.3262C72.8658 70.077 71.3398 71.4209 69.7871 72.5667L74.1455 75.019C74.5578 75.2439 74.3704 72.5935 74.3329 72.283Z" fill="#1B1B1E"/>
<path d="M58.9234 73.0588C58.8786 73.3625 58.7379 73.6439 58.5219 73.862C61.0651 75.147 61.5203 80.3513 61.2686 82.8089C61.1026 84.4688 60.6207 86.0857 60.4815 87.7456C60.2781 90.2139 60.9099 92.8321 62.6232 94.6418C63.6867 95.7103 65.0361 96.449 66.5093 96.7691C67.9825 97.0892 69.5167 96.9771 70.9277 96.4462C72.3238 95.8789 73.5583 94.9755 74.5213 93.8163C75.4843 92.6572 76.1461 91.2781 76.4479 89.8016C77.9632 82.5787 70.9223 76.2071 66.4301 71.5489C64.6632 69.7124 62.4144 68.4167 59.7855 68.5238C58.9944 68.5708 58.2093 68.6908 57.4403 68.8825C55.4699 69.3376 53.6923 70.0497 52.659 71.8541C52.0432 72.925 50.9509 73.7709 50.6243 74.981C50.5024 75.4297 50.5042 75.9031 50.6296 76.3509C50.7549 76.7986 50.9992 77.2041 51.3365 77.5243C51.6835 77.8341 52.1184 78.0284 52.5807 78.0802C53.0431 78.132 53.5102 78.0388 53.9172 77.8134C55.6788 76.7425 55.1112 72.8928 57.4831 72.9946C57.4645 72.8838 57.4847 72.77 57.5403 72.6725C57.5959 72.5749 57.6836 72.4995 57.7883 72.4591C57.9917 72.3836 58.2098 72.3562 58.4255 72.3788C58.5225 72.373 58.6196 72.3895 58.7093 72.427C58.8967 72.5555 58.9234 72.8607 58.9234 73.0588Z" fill="#1B1B1E"/>
<path d="M57.5848 78.4822C57.496 78.2027 57.4809 77.905 57.5409 77.6179C57.601 77.3309 57.7341 77.0642 57.9275 76.8438" fill="#FFEAED"/>
<path d="M57.5848 78.4822C57.496 78.2027 57.4809 77.905 57.5409 77.6179C57.601 77.3309 57.7341 77.0642 57.9275 76.8438" stroke="#1B1B1E" stroke-width="0.535426" stroke-miterlimit="10"/>
<path d="M104.943 71.5977C103.926 74.1945 101.934 76.3201 100.954 78.9276L104.943 71.5977Z" fill="#7A3300"/>
<path d="M104.943 71.5977C103.926 74.1945 101.934 76.3201 100.954 78.9276" stroke="#3E1A00" stroke-width="0.535426" stroke-miterlimit="10"/>
<path d="M8.16504 137.224V79.3389H40.3495V88.1573H17.6689V103.626H37.2119V112.273H17.6689V128.245H40.3709V137.224H8.16504Z" fill="#8C0317"/>
<path d="M73.0374 137.225L64.3849 113.13H56.9853V137.225H47.5029V79.3396H66.1304C68.3906 79.3209 70.6387 79.6718 72.7858 80.3783C74.7745 81.017 76.5931 82.0972 78.1054 83.5381C79.6177 84.979 80.7845 86.7432 81.5186 88.6988C82.393 91.023 82.8164 93.4925 82.7661 95.9753C82.8568 99.2948 82.0523 102.578 80.437 105.479C78.8367 108.182 76.4203 110.308 73.5353 111.551L83.43 137.251L73.0374 137.225ZM73.4497 95.9967C73.4497 93.2839 72.7572 91.2742 71.3722 89.9678C69.9873 88.6613 67.9901 88.0099 65.3808 88.0135H56.9853V104.564H65.3219C67.8206 104.564 69.8034 103.85 71.2705 102.422C72.7376 100.994 73.464 98.8452 73.4497 95.9753V95.9967Z" fill="#8C0317"/>
<path d="M116.949 137.225L108.301 113.131H100.896V137.225H91.4141V79.3398H110.047C112.314 79.3182 114.57 79.6691 116.724 80.3785C118.714 81.0151 120.533 82.0946 122.046 83.5357C123.558 84.9769 124.724 86.7423 125.456 88.6991C126.334 91.0225 126.757 93.4926 126.704 95.9755C126.787 99.2975 125.973 102.58 124.348 105.479C122.75 108.185 120.333 110.311 117.446 111.551L127.347 137.251L116.949 137.225ZM117.366 95.9969C117.366 93.2841 116.672 91.2745 115.283 89.968C113.895 88.6616 111.899 88.0101 109.297 88.0137H100.896V104.564H109.228C111.726 104.564 113.709 103.85 115.176 102.422C116.643 100.994 117.373 98.8454 117.366 95.9755V95.9969Z" fill="#8C0317"/>
<path d="M169.26 119.679C169.3 122.235 168.864 124.777 167.975 127.175C167.166 129.309 165.919 131.25 164.312 132.872C162.717 134.459 160.805 135.693 158.701 136.491C153.733 138.251 148.295 138.146 143.399 136.197C141.252 135.27 139.356 133.846 137.868 132.042C136.43 130.248 135.369 128.183 134.746 125.97C134.073 123.602 133.738 121.15 133.75 118.688V96.8054C133.759 94.6905 134.08 92.5886 134.703 90.5676C135.349 88.3949 136.445 86.3829 137.922 84.6631C139.398 82.9433 141.22 81.5544 143.27 80.5873C145.519 79.4807 148.278 78.9275 151.548 78.9275C154.267 78.8661 156.966 79.415 159.445 80.5338C161.555 81.5065 163.439 82.9089 164.976 84.6512C166.437 86.322 167.541 88.2733 168.221 90.3856C168.904 92.4591 169.255 94.6276 169.26 96.8107V119.679ZM159.622 96.6554C159.603 95.7958 159.479 94.9417 159.253 94.1122C158.99 93.112 158.553 92.1659 157.962 91.3172C157.311 90.3928 156.476 89.6127 155.51 89.0256C154.308 88.3432 152.939 88.0111 151.559 88.0672C150.161 88.0199 148.773 88.3217 147.521 88.9453C146.517 89.463 145.638 90.194 144.946 91.087C144.319 91.9251 143.854 92.873 143.575 93.8819C143.309 94.8028 143.168 95.7556 143.158 96.7143L143.243 118.881C143.155 121.355 143.822 123.798 145.155 125.884C146.429 127.773 148.591 128.717 151.639 128.717C153.728 128.747 155.745 127.955 157.256 126.511C158.837 125.04 159.626 123.025 159.622 120.466V96.6554Z" fill="#8C0317"/>
<path d="M203.773 137.225L195.126 113.13H187.727V137.225H178.244V79.3396H196.872C199.132 79.3209 201.38 79.6718 203.527 80.3783C205.516 81.017 207.334 82.0972 208.847 83.5381C210.359 84.979 211.526 86.7432 212.26 88.6988C213.134 91.023 213.558 93.4925 213.507 95.9753C213.598 99.2948 212.794 102.578 211.178 105.479C209.578 108.182 207.161 110.308 204.277 111.551L214.171 137.251L203.773 137.225ZM204.191 95.9967C204.191 93.2839 203.498 91.2742 202.113 89.9678C200.728 88.6613 198.731 88.0099 196.122 88.0135H187.727V104.564H196.042C198.54 104.564 200.523 103.85 201.99 102.422C203.457 100.994 204.191 98.8452 204.191 95.9753V95.9967Z" fill="#8C0317"/>
<path d="M73 17.5244V29.3627" stroke="#737381" stroke-width="1.60628" stroke-miterlimit="10"/>
<path d="M95.4987 0H50.5068V20.8388H95.4987V0Z" fill="#8C0317"/>
<path d="M67.2279 13.6962V15.5702H65.1879V13.6962H60.5029V11.8918L64.1063 2.63965H66.2481L62.6982 11.7419H65.1504V8.49186H67.1904V11.7794H68.1381V13.7123L67.2279 13.6962Z" fill="#FFEAED"/>
<path d="M76.3941 12.4323C76.4037 12.9036 76.3106 13.3714 76.1211 13.803C75.95 14.1881 75.7022 14.5342 75.3929 14.8203C75.0805 15.0986 74.7167 15.3133 74.322 15.4521C73.4971 15.7304 72.6037 15.7304 71.7787 15.4521C71.3827 15.3161 71.0184 15.1012 70.7079 14.8203C70.4035 14.5311 70.158 14.1856 69.9851 13.803C69.8 13.3702 69.7087 12.903 69.7174 12.4323V5.79839C69.7087 5.32251 69.7999 4.8501 69.9851 4.41163C70.1553 4.02317 70.4052 3.67477 70.7186 3.38897C71.031 3.11065 71.3948 2.89603 71.7895 2.75717C72.1952 2.61376 72.6227 2.54131 73.0531 2.543C73.4868 2.54309 73.9175 2.61547 74.3274 2.75717C74.725 2.89183 75.0897 3.10877 75.3978 3.39384C75.706 3.67891 75.9506 4.02571 76.1157 4.41163C76.3052 4.84892 76.3983 5.32189 76.3888 5.79839L76.3941 12.4323ZM74.3488 5.79839C74.3601 5.62302 74.3354 5.44719 74.2761 5.28177C74.2168 5.11634 74.1241 4.96484 74.0039 4.83664C73.8838 4.70843 73.7386 4.60623 73.5773 4.53637C73.4161 4.46651 73.2422 4.43046 73.0664 4.43046C72.8907 4.43046 72.7168 4.46651 72.5556 4.53637C72.3943 4.60623 72.2491 4.70843 72.1289 4.83664C72.0088 4.96484 71.9161 5.11634 71.8568 5.28177C71.7975 5.44719 71.7728 5.62302 71.7841 5.79839V12.4109C71.7722 12.5881 71.7975 12.7659 71.8583 12.9328C71.9192 13.0997 72.0143 13.252 72.1375 13.38C72.3996 13.5945 72.7278 13.7116 73.0664 13.7116C73.4051 13.7116 73.7333 13.5945 73.9954 13.38C74.1186 13.252 74.2137 13.0997 74.2745 12.9328C74.3354 12.7659 74.3607 12.5881 74.3488 12.4109V5.79839Z" fill="#FFEAED"/>
<path d="M84.5116 13.6962V15.5702H82.4556V13.6962H77.792V11.8918L81.4008 2.63965H83.5425L79.9926 11.7419H82.4556V8.49186H84.5009V11.7794H85.4486V13.7123L84.5116 13.6962Z" fill="#FFEAED"/>
<path opacity="0.31" d="M169.832 51.8984L169.35 52.1286C169.281 52.1611 169.202 52.1687 169.128 52.1502C169.054 52.1316 168.989 52.0881 168.943 52.0269C168.544 51.4858 168.042 51.029 167.465 50.683C167.402 50.6436 167.354 50.5842 167.329 50.5143C167.304 50.4444 167.303 50.368 167.326 50.2975L167.562 49.6014C167.576 49.561 167.582 49.5181 167.58 49.4752C167.578 49.4324 167.567 49.3903 167.549 49.3515C167.531 49.3127 167.505 49.278 167.473 49.2492C167.441 49.2204 167.404 49.1982 167.363 49.1838L165.95 48.6484C165.868 48.6201 165.779 48.6244 165.7 48.6603C165.621 48.6961 165.559 48.7609 165.527 48.8411L165.265 49.5372C165.24 49.6052 165.193 49.6631 165.132 49.7019C165.071 49.7406 164.999 49.758 164.927 49.7513C164.25 49.694 163.567 49.7392 162.903 49.8852C162.826 49.9059 162.744 49.9027 162.669 49.8759C162.593 49.8491 162.527 49.8001 162.48 49.7353L162.175 49.0821C162.095 48.9161 161.966 48.6751 161.8 48.7554L160.435 49.4033C160.353 49.4707 160.294 49.5625 160.267 49.6654C160.24 49.7683 160.246 49.8771 160.285 49.9762L160.596 50.6294C160.631 50.6931 160.643 50.767 160.629 50.8385C160.615 50.9099 160.577 50.9742 160.521 51.0203C160.038 51.4121 159.62 51.8784 159.284 52.4017C159.245 52.4652 159.185 52.5133 159.115 52.5377C159.045 52.5621 158.968 52.5614 158.898 52.5356L158.245 52.2893C158.162 52.2602 158.071 52.2653 157.991 52.3034C157.912 52.3416 157.851 52.4097 157.822 52.4927L157.33 53.8902C157.302 53.9705 157.306 54.0584 157.342 54.1354C157.378 54.2124 157.443 54.2723 157.522 54.3025L158.234 54.5809C158.304 54.606 158.363 54.6543 158.401 54.7177C158.439 54.7811 158.454 54.8557 158.443 54.9289C158.347 55.5955 158.385 56.2745 158.556 56.9261C158.573 57.0001 158.566 57.0779 158.534 57.1469C158.501 57.2159 158.447 57.2721 158.379 57.3062L157.769 57.5953C157.684 57.6279 157.616 57.6916 157.577 57.7732C157.538 57.8549 157.532 57.9484 157.56 58.0344L158.208 59.4051C158.283 59.5657 158.497 59.5603 158.663 59.4854L159.268 59.1963C159.339 59.1687 159.417 59.1648 159.49 59.185C159.563 59.2053 159.628 59.2487 159.675 59.3087C160.082 59.8074 160.563 60.2423 161.099 60.5991C161.162 60.6412 161.208 60.7031 161.232 60.775C161.255 60.8468 161.253 60.9244 161.227 60.9953L161.008 61.5789C160.978 61.662 160.983 61.7534 161.02 61.8335C161.057 61.9136 161.124 61.9759 161.206 62.0072L162.582 62.4891C162.624 62.5034 162.667 62.5093 162.711 62.5066C162.755 62.5038 162.798 62.4923 162.837 62.4729C162.876 62.4535 162.912 62.4265 162.94 62.3934C162.969 62.3604 162.991 62.3219 163.005 62.2803L163.192 61.7021C163.218 61.6292 163.267 61.5672 163.332 61.5263C163.397 61.4854 163.475 61.4681 163.551 61.4772C164.181 61.5542 164.819 61.5289 165.441 61.4022C165.513 61.3885 165.587 61.4003 165.65 61.4355C165.714 61.4708 165.763 61.5272 165.789 61.595L166.089 62.2214C166.164 62.382 166.384 62.3713 166.544 62.2964L167.91 61.6485C168.076 61.5682 168.054 61.4879 167.974 61.3273L167.679 60.7008C167.659 60.6239 167.663 60.5428 167.688 60.4677C167.714 60.3925 167.761 60.3265 167.824 60.2778C168.364 59.8508 168.834 59.3413 169.216 58.7679C169.259 58.7063 169.321 58.6602 169.392 58.6361C169.463 58.612 169.541 58.6113 169.612 58.6341L170.244 58.8482C170.327 58.8759 170.418 58.8701 170.497 58.8321C170.576 58.7942 170.637 58.727 170.667 58.6448L171.17 57.2527C171.185 57.2112 171.192 57.1672 171.189 57.1232C171.187 57.0792 171.176 57.0361 171.156 56.9966C171.137 56.9571 171.109 56.9219 171.076 56.8932C171.042 56.8645 171.003 56.8429 170.961 56.8297L170.426 56.653C170.354 56.6311 170.292 56.5851 170.25 56.5226C170.208 56.4602 170.189 56.3852 170.196 56.3103C170.258 55.6648 170.226 55.0135 170.099 54.3774C170.082 54.3039 170.089 54.2267 170.119 54.1574C170.149 54.088 170.2 54.03 170.265 53.9919L170.747 53.767C170.913 53.6867 170.887 53.6064 170.806 53.4404L170.158 52.0751C170.062 51.9359 169.998 51.8234 169.832 51.8984ZM165.575 58.5002C165.008 58.7699 164.374 58.8653 163.752 58.7744C163.131 58.6835 162.55 58.4103 162.084 57.9895C161.618 57.5686 161.287 57.019 161.133 56.4101C160.98 55.8012 161.01 55.1604 161.22 54.5687C161.431 53.977 161.812 53.461 162.316 53.086C162.819 52.7109 163.423 52.4937 164.05 52.4618C164.677 52.4298 165.3 52.5846 165.839 52.9065C166.379 53.2285 166.81 53.7031 167.08 54.2703C167.441 55.0308 167.485 55.9036 167.203 56.6968C166.921 57.49 166.335 58.1387 165.575 58.5002Z" fill="#737381"/>
<path opacity="0.31" d="M186.912 61.0383L186.259 61.3488C186.166 61.3853 186.063 61.3909 185.967 61.3649C185.871 61.3389 185.785 61.2825 185.723 61.2042C185.185 60.4733 184.506 59.8579 183.726 59.3945C183.64 59.3389 183.575 59.2557 183.542 59.1585C183.509 59.0613 183.509 58.9558 183.544 58.8591L183.86 57.9221C183.891 57.8155 183.881 57.701 183.831 57.6017C183.782 57.5023 183.696 57.4255 183.592 57.3866L181.681 56.6906C181.571 56.6507 181.449 56.656 181.343 56.7051C181.237 56.7542 181.154 56.8433 181.113 56.953L180.76 57.8899C180.726 57.9814 180.663 58.0592 180.581 58.1114C180.499 58.1637 180.402 58.1874 180.305 58.1791C179.389 58.1003 178.466 58.1616 177.569 58.3611C177.464 58.3876 177.354 58.3818 177.252 58.3445C177.151 58.3073 177.064 58.2403 177.001 58.1523L176.583 57.2742C176.476 57.0547 176.305 56.7388 176.08 56.8298L174.238 57.7079C174.126 57.7985 174.045 57.9228 174.008 58.0625C173.972 58.2023 173.981 58.3501 174.035 58.4843L174.452 59.3624C174.502 59.449 174.52 59.5507 174.501 59.649C174.482 59.7472 174.429 59.8355 174.351 59.8978C173.697 60.427 173.133 61.0579 172.68 61.7664C172.627 61.8557 172.544 61.9228 172.446 61.9553C172.347 61.9878 172.24 61.9835 172.145 61.9431L171.267 61.6165C171.211 61.5953 171.153 61.5855 171.094 61.5876C171.035 61.5896 170.977 61.6036 170.923 61.6286C170.87 61.6536 170.822 61.6891 170.782 61.733C170.743 61.7769 170.713 61.8284 170.694 61.8842L170.03 63.7689C169.998 63.8741 170.006 63.9875 170.054 64.0867C170.102 64.1858 170.185 64.2635 170.287 64.3044L171.251 64.6792C171.342 64.715 171.42 64.78 171.471 64.8641C171.522 64.9483 171.545 65.047 171.534 65.145C171.408 66.0382 171.457 66.9477 171.679 67.8221C171.708 67.9248 171.7 68.0344 171.657 68.132C171.614 68.2297 171.538 68.3094 171.443 68.3575L170.619 68.7484C170.506 68.794 170.414 68.8803 170.361 68.9903C170.309 69.1004 170.299 69.2261 170.335 69.3427L171.208 71.1846C171.315 71.4095 171.604 71.3988 171.823 71.297L172.643 70.9062C172.737 70.8734 172.839 70.8707 172.935 70.8985C173.031 70.9263 173.116 70.9833 173.178 71.0614C173.727 71.7356 174.375 72.3224 175.1 72.8016C175.185 72.8587 175.247 72.9426 175.278 73.0397C175.31 73.1368 175.307 73.2415 175.272 73.337L174.977 74.1241C174.956 74.1795 174.946 74.2387 174.948 74.2981C174.95 74.3575 174.964 74.4158 174.989 74.4698C175.014 74.5237 175.049 74.572 175.093 74.612C175.137 74.6519 175.189 74.6826 175.245 74.7023L177.103 75.3556C177.216 75.3931 177.34 75.3843 177.447 75.3312C177.555 75.2781 177.637 75.1849 177.676 75.0718L177.927 74.2901C177.96 74.1917 178.026 74.1079 178.114 74.0532C178.202 73.9984 178.306 73.9762 178.409 73.9902C179.264 74.094 180.13 74.0597 180.974 73.8885C181.069 73.8694 181.169 73.8848 181.254 73.9318C181.339 73.9788 181.405 74.0545 181.44 74.1455L181.841 74.9861C181.948 75.211 182.237 75.1949 182.462 75.0932L184.304 74.2151C184.529 74.1134 184.497 74.0009 184.39 73.7814L183.988 72.9354C183.961 72.8313 183.966 72.7215 184.003 72.6203C184.039 72.5191 184.105 72.4311 184.192 72.3679C184.92 71.7894 185.554 71.1012 186.071 70.3279C186.13 70.245 186.213 70.1828 186.309 70.1501C186.405 70.1174 186.509 70.1159 186.607 70.1459L187.458 70.435C187.569 70.4731 187.69 70.4665 187.796 70.4165C187.902 70.3665 187.984 70.2771 188.025 70.1673L188.705 68.2826C188.725 68.2264 188.734 68.1667 188.731 68.1072C188.727 68.0476 188.712 67.9894 188.685 67.9359C188.659 67.8824 188.622 67.8348 188.576 67.796C188.531 67.7571 188.478 67.7278 188.422 67.7097L187.672 67.4741C187.575 67.4438 187.491 67.381 187.434 67.2962C187.378 67.2114 187.352 67.1097 187.361 67.0083C187.45 66.1373 187.404 65.2581 187.228 64.4007C187.202 64.2986 187.211 64.191 187.253 64.0943C187.294 63.9976 187.366 63.9172 187.458 63.8653L188.106 63.5601C188.331 63.453 188.293 63.3406 188.186 63.1211L187.313 61.2738C187.217 61.0811 187.131 60.9312 186.912 61.0383ZM181.156 69.9477C180.39 70.3108 179.534 70.4384 178.695 70.3145C177.857 70.1906 177.074 69.8208 176.446 69.2517C175.818 68.6827 175.372 67.9401 175.166 67.118C174.96 66.2958 175.003 65.431 175.289 64.6331C175.574 63.8351 176.09 63.1399 176.771 62.6353C177.452 62.1308 178.268 61.8396 179.114 61.7987C179.961 61.7578 180.801 61.9689 181.527 62.4054C182.254 62.8419 182.835 63.4841 183.196 64.2508C183.68 65.277 183.736 66.4531 183.354 67.5211C182.972 68.5892 182.181 69.4619 181.156 69.9477Z" fill="#737381"/>
<path opacity="0.31" d="M11.0037 169.73C9.50984 169.489 7.98923 169.387 6.59712 168.819C4.92124 168.134 3.4274 166.453 3.77543 164.681C4.07527 163.144 5.65477 162.143 7.20751 161.961C8.76024 161.779 10.3076 162.228 11.8175 162.614C14.3878 163.268 16.9996 163.748 19.6347 164.049C23.4523 164.483 27.5965 164.649 30.5896 167.063C32.576 168.67 34.0217 171.224 36.5274 171.7C37.0534 171.753 37.5756 171.839 38.0909 171.957C38.3518 172.017 38.5904 172.15 38.7798 172.339C38.9691 172.528 39.1014 172.767 39.1617 173.028C39.3117 174.099 36.6613 174.233 35.901 174.441C33.7111 175.041 31.6176 175.839 29.4759 176.46C27.211 177.108 24.7748 176.915 22.4564 176.701C20.138 176.487 17.5038 176.112 16.1545 174.206C15.4531 173.21 15.2014 171.92 14.3394 171.058C13.6542 170.453 12.8111 170.055 11.9086 169.912C11.6087 169.821 11.3035 169.762 11.0037 169.73Z" fill="#737381"/>
<path d="M4.60417 160.349C4.48261 160.892 4.46933 161.453 4.5651 162.001C4.66087 162.548 4.8638 163.072 5.16225 163.541C5.46071 164.01 5.84882 164.415 6.30433 164.734C6.75984 165.053 7.2738 165.279 7.81673 165.398C8.36024 165.535 8.92606 165.558 9.47883 165.466C10.0316 165.373 10.5594 165.168 11.0293 164.863L34.2668 169.875L35.5732 163.985L12.2554 158.957C11.6036 158.082 10.6815 157.446 9.63182 157.147C8.53947 156.911 7.39803 157.116 6.45627 157.718C5.51452 158.32 4.84878 159.27 4.60417 160.36V160.349ZM7.81673 160.151L7.88098 160.114C7.97649 160.068 8.07716 160.034 8.18082 160.012H8.23971C8.45717 159.969 8.68083 159.969 8.89829 160.012C9.1795 160.099 9.42423 160.276 9.59458 160.516C9.76493 160.756 9.85141 161.046 9.84064 161.34C9.82104 161.636 9.70609 161.917 9.51302 162.142C9.31995 162.367 9.05917 162.523 8.76978 162.587L8.97325 162.512C8.68309 162.633 8.36092 162.654 8.05767 162.571C7.72112 162.463 7.43927 162.229 7.27059 161.918C7.12335 161.609 7.09778 161.255 7.19895 160.928C7.30011 160.601 7.52062 160.323 7.81673 160.151Z" fill="#1B1B1E"/>
<path d="M11.2705 163.054L34.5401 168.071" stroke="#FFEAED" stroke-width="0.535426" stroke-miterlimit="10"/>
<path d="M11.8105 160.739L35.0748 165.756" stroke="#FFEAED" stroke-width="0.535426" stroke-miterlimit="10"/>
<path d="M31.526 166.614C31.3631 167.342 31.346 168.096 31.4756 168.831C31.6051 169.566 31.8788 170.268 32.2809 170.897L32.4737 171.181C33.2682 172.279 34.4291 173.057 35.7467 173.374C37.0644 173.691 38.452 173.527 39.6591 172.911L40.4301 172.514L36.1199 169.537L38.4544 166.154L42.695 169.082L42.7485 168.167C42.8845 166.71 42.453 165.257 41.5441 164.11C40.6352 162.963 39.3188 162.212 37.8694 162.011C36.4199 161.811 34.9491 162.178 33.7634 163.036C32.5777 163.893 31.7686 165.175 31.5046 166.614H31.526Z" fill="#FFEAED" stroke="#1B1B1E" stroke-width="0.535426" stroke-miterlimit="10"/>
<path opacity="0.31" d="M48.1887 163.096C45.276 162.764 41.7636 161.72 41.1532 158.856C40.6178 156.377 42.7595 153.962 45.201 153.239C47.6425 152.516 50.2447 153.004 52.7612 153.368C56.4717 153.903 82.9914 154.262 82.2418 159.509C81.8616 162.154 69.2042 162.722 66.7465 162.968C60.5835 163.683 54.361 163.726 48.1887 163.096Z" fill="#737381"/>
<path d="M70.4672 154.696L70.0389 156.383L49.9443 152.859L50.3727 151.173L70.4672 154.696Z" fill="#1B1B1E"/>
<path d="M85.0363 155.091L85.1541 155.252C85.4123 155.614 85.5959 156.024 85.6942 156.458C85.7926 156.892 85.8037 157.341 85.727 157.779C85.5492 158.679 85.0244 159.473 84.2659 159.989C83.5074 160.505 82.5762 160.702 81.6738 160.537L62.1094 157.222L63.1106 150.771L82.8197 153.785C83.6945 153.932 84.4841 154.397 85.0363 155.091Z" fill="#FFEAED" stroke="#1B1B1E" stroke-width="0.535426" stroke-miterlimit="10"/>
<path d="M53.9389 148.698L56.525 152.387L56.0271 153.886L52.6807 156.146L45.0723 152.933L45.854 148.677L53.9389 148.698Z" fill="#FFEAED" stroke="#1B1B1E" stroke-width="0.535426" stroke-miterlimit="10"/>
<path d="M67.7363 153.747L85.7641 156.633" stroke="#1B1B1E" stroke-width="0.535426" stroke-miterlimit="10"/>
<path d="M67.3398 155.981L85.373 158.867" stroke="#1B1B1E" stroke-width="0.535426" stroke-miterlimit="10"/>
<path d="M63.6895 157.49L64.9638 150.958" stroke="#1B1B1E" stroke-width="0.535426" stroke-miterlimit="10"/>
<path d="M47.4551 152.757L51.7064 154.385" stroke="#1B1B1E" stroke-width="0.535426" stroke-miterlimit="10"/>
<path d="M73.0212 70.0117C73.9616 68.4676 74.754 66.838 75.3878 65.1447C76.226 62.9618 76.789 60.683 77.0637 58.3608C77.2216 56.3038 77.2109 54.2373 77.0315 52.182C76.6674 46.1424 76.5764 40.0064 75.9179 33.9775C75.2968 34.2934 70.8045 34.7057 70.826 34.5558C70.0121 41.2451 69.1911 47.9307 68.363 54.6129C68.2214 56.1977 67.9182 57.7639 67.4581 59.2871C66.8587 60.8251 66.1241 62.3069 65.2629 63.7151C63.9082 66.1674 60.7492 70.5043 61.3596 73.3528" fill="#FFB884"/>
<path d="M73.0212 70.0117C73.9616 68.4676 74.754 66.838 75.3878 65.1447C76.226 62.9618 76.789 60.683 77.0637 58.3608C77.2216 56.3038 77.2109 54.2373 77.0315 52.182C76.6675 46.1424 76.5764 40.0064 75.9179 33.9775C75.2968 34.2934 70.8045 34.7057 70.826 34.5558C70.0121 41.2451 69.1911 47.9307 68.363 54.6129C68.2214 56.1977 67.9182 57.7639 67.4581 59.2871C66.8587 60.8251 66.1241 62.3069 65.2629 63.7151C63.9082 66.1674 60.7492 70.5043 61.3596 73.3528" stroke="#8E3C00" stroke-width="0.535426" stroke-miterlimit="10"/>
<path opacity="0.31" d="M176.557 158.833C176.388 159.122 176.285 159.445 176.255 159.778C176.225 160.112 176.27 160.448 176.385 160.762C176.5 161.077 176.683 161.362 176.921 161.598C177.159 161.833 177.446 162.014 177.762 162.125C178.58 162.452 179.464 162.584 180.342 162.511C183.109 162.345 185.826 161.702 188.374 160.61C190.639 159.705 193.348 158.795 195.104 157.055C195.548 156.616 195.848 155.904 195.506 155.384C195.354 155.21 195.168 155.069 194.96 154.967C194.752 154.866 194.526 154.808 194.296 154.795C190.851 154.218 187.324 154.366 183.94 155.229C182.002 155.716 177.762 156.685 176.557 158.833Z" fill="#737381"/>
<path d="M190.906 132.695C190.911 132.602 190.922 132.509 190.938 132.416C191.104 131.415 191.891 130.655 192.432 129.793C192.957 128.952 193.256 127.989 193.299 126.998C193.374 125.151 193.299 122.779 194.119 121.065C194.836 119.523 196.544 118.683 197.417 117.237C197.835 116.393 198.122 115.49 198.268 114.56C198.558 113.094 199.195 111.719 200.126 110.55C200.919 109.709 201.819 108.976 202.803 108.37C203.717 107.716 204.708 107.176 205.753 106.764C207.145 106.272 208.698 106.106 209.341 107.546C209.876 108.708 209.603 110.352 209.052 111.444C208.515 112.366 207.858 113.213 207.097 113.96C205.861 115.331 204.73 116.794 203.713 118.335C203.4 118.747 203.184 119.225 203.082 119.732C203.073 120.233 203.123 120.732 203.231 121.221C203.553 123.737 202.514 125.772 200.554 127.303C199.018 128.513 198.059 129.199 197.674 131.292C197.438 132.588 197.331 133.969 196.603 135.067C196.287 135.504 195.944 135.921 195.575 136.314C194.273 137.847 193.478 139.746 193.299 141.749C193.208 142.745 192.999 144.962 191.399 144.539C189.444 144.003 189.68 138.269 190.253 136.919C190.556 136.372 190.8 135.794 190.981 135.195C191.179 134.392 190.863 133.519 190.906 132.695Z" fill="#7A3300"/>
<path d="M182.623 136.86C182.609 136.089 182.726 135.321 182.971 134.589C183.282 133.636 183.785 132.683 183.635 131.693C183.383 130.06 181.493 129.166 180.91 127.618C180.107 125.477 181.981 123.367 182.42 121.14C182.778 119.255 182.055 117.354 181.563 115.491C181.354 114.693 180.16 110.137 182.532 110.849C182.895 111.007 183.181 111.301 183.33 111.668C184.481 113.858 184.77 116.631 186.607 118.43C187.356 119.169 188.331 119.662 189.043 120.438C189.578 121.083 189.963 121.839 190.172 122.651C190.38 123.463 190.406 124.311 190.247 125.134C189.798 128.02 186.949 129.953 188.106 132.908C188.662 134.103 189.312 135.253 190.049 136.346C191.431 138.707 194.226 148.184 188.593 144.912C185.595 143.172 182.698 140.351 182.623 136.86Z" fill="#FFEAED" stroke="#E15D02" stroke-width="0.535426" stroke-miterlimit="10"/>
<path d="M193.727 137.07L193.824 136.882C194.525 135.544 195.462 134.339 196.179 133.011C196.768 131.94 197.213 130.779 197.861 129.74C198.468 128.661 199.437 127.832 200.597 127.4C201.015 127.284 201.454 127.265 201.881 127.343C202.307 127.422 202.711 127.597 203.06 127.855C203.242 128.032 203.386 128.251 203.563 128.433C203.915 128.737 204.304 128.996 204.72 129.204C206.749 130.43 207.622 132.744 208.36 134.875C209.169 137.209 210.154 139.19 210.502 141.648C210.572 142.183 210.625 142.836 210.24 143.254C210.066 143.414 209.851 143.521 209.619 143.563C209.387 143.606 209.147 143.582 208.928 143.495C208.491 143.318 208.097 143.049 207.771 142.708C207.299 142.314 206.903 141.837 206.604 141.3C206.374 140.839 206.272 140.314 206.01 139.87C205.657 139.36 205.221 138.912 204.72 138.548C203.354 137.37 202.519 135.956 201.55 134.484C200.565 134.885 199.601 136.165 198.546 136.727C197.62 137.22 196.067 137.396 195.553 138.424C195.039 139.452 195.285 140.903 194.921 142.012C194.107 144.48 192.207 144.127 192.469 141.476C192.618 139.943 193.045 138.45 193.727 137.07Z" fill="#FFEAED" stroke="#1B1B1E" stroke-width="0.535426" stroke-miterlimit="10"/>
<path d="M199.725 141.771H181.536V144.041H182.992L185.134 156.173H196.126L198.263 144.041H199.725V141.771Z" fill="#27272B"/>
<path d="M182.483 144.231H198.776" stroke="#FFEAED" stroke-width="0.535426" stroke-miterlimit="10"/>
<path d="M182.42 126.564C182.665 126.564 182.864 126.365 182.864 126.119C182.864 125.874 182.665 125.675 182.42 125.675C182.175 125.675 181.976 125.874 181.976 126.119C181.976 126.365 182.175 126.564 182.42 126.564Z" fill="#1B1B1E"/>
<path d="M186.863 127.893C186.864 127.981 186.839 128.068 186.791 128.141C186.743 128.215 186.674 128.273 186.593 128.308C186.512 128.342 186.422 128.352 186.336 128.335C186.249 128.318 186.169 128.277 186.107 128.215C186.044 128.153 186.001 128.074 185.984 127.987C185.966 127.901 185.974 127.811 186.008 127.73C186.041 127.648 186.098 127.578 186.172 127.529C186.245 127.48 186.331 127.454 186.419 127.454C186.536 127.454 186.648 127.5 186.731 127.582C186.815 127.665 186.862 127.776 186.863 127.893Z" fill="#1B1B1E"/>
<path d="M185.97 132.785C185.97 132.873 185.944 132.959 185.895 133.032C185.846 133.105 185.777 133.162 185.696 133.196C185.614 133.229 185.525 133.238 185.439 133.221C185.353 133.204 185.273 133.162 185.211 133.099C185.149 133.037 185.107 132.958 185.09 132.872C185.072 132.786 185.081 132.696 185.115 132.615C185.149 132.534 185.205 132.465 185.279 132.416C185.352 132.367 185.438 132.341 185.525 132.341C185.643 132.341 185.756 132.388 185.84 132.471C185.923 132.554 185.97 132.667 185.97 132.785Z" fill="#1B1B1E"/>
<path d="M188.631 123.014C188.631 123.102 188.605 123.188 188.556 123.261C188.507 123.334 188.437 123.391 188.355 123.425C188.274 123.458 188.184 123.467 188.098 123.449C188.012 123.432 187.932 123.389 187.87 123.326C187.809 123.263 187.767 123.184 187.75 123.097C187.734 123.011 187.743 122.921 187.778 122.84C187.812 122.759 187.87 122.69 187.944 122.642C188.017 122.593 188.104 122.568 188.192 122.569C188.309 122.571 188.421 122.618 188.503 122.701C188.585 122.785 188.631 122.897 188.631 123.014Z" fill="#1B1B1E"/>
<path d="M183.309 114.142C183.309 114.23 183.283 114.315 183.234 114.389C183.185 114.462 183.116 114.519 183.034 114.552C182.953 114.586 182.864 114.595 182.778 114.578C182.691 114.56 182.612 114.518 182.55 114.456C182.488 114.394 182.446 114.315 182.428 114.228C182.411 114.142 182.42 114.053 182.454 113.972C182.487 113.89 182.544 113.821 182.617 113.772C182.691 113.723 182.776 113.697 182.864 113.697C182.982 113.697 183.095 113.744 183.179 113.827C183.262 113.911 183.309 114.024 183.309 114.142Z" fill="#1B1B1E"/>
<path d="M189.075 138.542C189.321 138.542 189.52 138.343 189.52 138.098C189.52 137.852 189.321 137.653 189.075 137.653C188.83 137.653 188.631 137.852 188.631 138.098C188.631 138.343 188.83 138.542 189.075 138.542Z" fill="#1B1B1E"/>
<path d="M185.526 137.213C185.526 137.301 185.499 137.387 185.45 137.46C185.401 137.534 185.331 137.591 185.25 137.624C185.168 137.658 185.079 137.666 184.992 137.648C184.906 137.631 184.827 137.588 184.765 137.525C184.703 137.463 184.661 137.383 184.645 137.296C184.628 137.21 184.638 137.12 184.672 137.039C184.707 136.958 184.764 136.889 184.838 136.841C184.912 136.793 184.998 136.768 185.086 136.769C185.203 136.77 185.315 136.817 185.397 136.901C185.479 136.984 185.526 137.096 185.526 137.213Z" fill="#1B1B1E"/>
<path d="M185.086 120.797C185.086 120.885 185.06 120.971 185.011 121.044C184.962 121.117 184.893 121.174 184.812 121.208C184.731 121.241 184.641 121.25 184.555 121.233C184.469 121.216 184.39 121.173 184.327 121.111C184.265 121.049 184.223 120.97 184.206 120.884C184.189 120.797 184.197 120.708 184.231 120.627C184.265 120.546 184.322 120.476 184.395 120.427C184.468 120.379 184.554 120.353 184.642 120.353C184.76 120.353 184.873 120.399 184.956 120.483C185.039 120.566 185.086 120.679 185.086 120.797Z" fill="#1B1B1E"/>
<path opacity="0.31" d="M99.4074 184.625C96.3929 184.02 93.4106 183.26 90.455 182.441C87.6762 181.67 84.7474 180.738 82.8787 178.543C77.2568 171.952 86.4179 165.157 91.2689 162.309C95.231 159.985 99.9481 157.265 104.655 157.95C107.332 158.336 109.864 159.434 112.333 160.558C120.562 164.306 128.786 168.52 137.749 169.73C139.623 169.987 155.199 170.399 154.487 172.942C154.317 173.378 154.018 173.752 153.63 174.013C150.359 176.664 146.279 178.077 142.284 179.416C132.197 182.805 121.847 186.076 111.23 185.969C107.256 185.891 103.298 185.441 99.4074 184.625Z" fill="#737381"/>
<path d="M104.944 164.778C103.638 167.171 105.677 168.895 107.38 170.496C107.831 170.954 108.358 171.329 108.938 171.604C109.956 172.044 111.112 171.936 112.21 171.819C120.175 171.012 128.095 169.805 135.94 168.205C137.766 167.808 139.575 167.332 141.396 166.92C143.824 166.278 146.199 165.451 148.501 164.446C150.806 163.527 152.945 162.237 154.835 160.628L154.931 160.543C155.281 160.346 155.57 160.057 155.767 159.707C156.746 158.594 157.421 157.207 156.837 155.906C156.19 154.412 154.3 153.989 152.672 153.86C147.826 153.475 142.97 153.994 138.183 154.717C134.971 155.204 131.758 155.89 128.508 156.291C125.258 156.693 122.083 156.334 118.779 156.409C115.947 156.492 113.185 157.307 110.761 158.773C108.336 160.24 106.333 162.308 104.944 164.778Z" fill="#1B1B1E"/>
<path d="M119.015 152.983C117.012 152.19 114.945 152.934 113.842 150.654C113.494 149.805 113.199 148.936 112.959 148.051C112.028 145.337 110.079 143.089 107.524 141.781C109.5 139.918 112.145 138.992 114.549 137.739C116.76 136.596 118.803 135.155 120.621 133.456C122.291 131.892 124.878 128.524 123.491 126.088C122.377 124.123 119.614 124.734 117.826 125.189C115.342 125.826 113.168 125.944 110.924 127.411C108.783 128.824 106.978 130.73 105.233 132.636C102.513 135.608 96.5642 141.417 100.451 145.588C102.589 147.994 104.978 150.164 107.578 152.062C108.314 152.599 109.101 153.061 109.928 153.443C111.578 154.171 112.215 155.515 113.869 156.254C115.235 156.902 116.709 157.289 118.217 157.395C119.336 157.448 121.151 157.191 121.258 155.842C121.365 154.493 120.069 153.4 119.015 152.983Z" fill="#7A3300" stroke="#1B1B1E" stroke-width="0.535426" stroke-miterlimit="10"/>
<path d="M147.065 149.341C146.086 150.626 144.453 151.483 142.894 151.113C141.245 150.723 140.153 149.186 139.27 147.74C137.782 145.488 136.624 143.034 135.832 140.453C135.056 137.589 134.692 133.032 137.535 131.131C139.553 129.777 142.862 130.542 144.426 132.272C147.799 136.02 150.032 144.153 147.424 148.79C147.315 148.98 147.195 149.164 147.065 149.341Z" fill="#FFC499" stroke="#1B1B1E" stroke-width="0.535426" stroke-miterlimit="10"/>
<path d="M141.888 126.457C139.388 123.812 136.416 121.868 132.524 121.964C131.453 121.991 130.43 122.162 129.381 122.2C125.697 122.328 122.051 121.408 118.501 122.826C114.737 124.413 111.172 126.435 107.878 128.85C107.61 129.037 114.094 137.952 114.78 138.734C117.457 136.769 116.82 146.026 116.777 147.301C116.67 150.417 116.59 153.565 117.232 156.639C117.363 156.401 117.576 156.22 117.832 156.13C118.148 156.06 118.367 156.446 118.624 156.515C119.313 156.59 120.008 156.59 120.696 156.515C121.885 156.515 123.079 156.515 124.268 156.515C127.013 156.558 129.759 156.42 132.486 156.103C133.89 155.866 135.309 155.738 136.732 155.723C137.482 153.137 137.22 150.021 137.268 147.451C137.343 144.982 137.145 142.557 137.332 140.094C140.844 139.229 144.29 138.116 147.644 136.764C147.842 136.683 146.038 132.571 145.84 132.175C145.076 130.625 144.136 129.168 143.04 127.833C142.702 127.329 142.311 126.896 141.888 126.457Z" fill="#FFB884"/>
<path d="M122.372 172.616C121.837 173.125 111.128 175.475 111.128 175.475L110.625 170.03L120.589 166.464L122.372 172.616Z" fill="#FFEAED" stroke="#1B1B1E" stroke-width="0.535426" stroke-miterlimit="10"/>
<path d="M149.475 166.11C150.705 165.362 151.992 164.712 153.324 164.166C154.738 163.631 156.344 163.304 157.415 162.234C158.486 161.163 158.946 159.423 159.257 157.838C159.624 156.026 159.575 154.155 159.112 152.366C158.776 151.126 158.115 149.998 157.199 149.098C156.282 148.197 155.143 147.557 153.897 147.242C152.362 146.89 150.753 147.08 149.341 147.777C148.313 148.312 147.435 149.067 146.417 149.608C145.547 150.017 144.653 150.375 143.74 150.679C141.02 151.75 138.52 153.319 136.046 154.818C133.573 156.317 131.329 158.213 128.925 159.84C127.977 160.477 117.997 165.323 117.997 165.328C119.293 168.209 120.423 171.17 121.606 174.109C128.058 173.237 134.279 171.207 140.555 169.521C141.797 169.183 142.953 168.685 144.201 168.402C145.596 168.051 146.936 167.51 148.184 166.795C148.645 166.587 149.062 166.346 149.475 166.11Z" fill="#522200"/>
<path d="M110.79 176.048C108.814 176.438 106.833 176.015 104.702 175.785C103.043 175.603 101.34 175.914 99.6907 175.657C97.4848 175.319 95.7714 173.756 95.6108 171.555C95.5198 170.313 95.4716 168.932 96.2908 167.995C96.6515 167.634 97.0914 167.361 97.5756 167.2C98.0598 167.038 98.575 166.991 99.0804 167.063C100.088 167.215 101.073 167.489 102.014 167.877C103.676 168.418 105.37 168.858 107.085 169.194C108.461 169.489 109.65 170.174 111.015 169.494C111.048 169.471 111.086 169.455 111.125 169.446C111.165 169.438 111.206 169.438 111.245 169.446C111.331 169.473 111.368 169.569 111.401 169.649C111.888 171.02 112.321 172.407 112.712 173.804C112.916 174.532 113.248 174.955 112.653 175.41C112.082 175.747 111.448 175.964 110.79 176.048Z" fill="#1B1B1E"/>
<path d="M132.138 172.616C132.673 173.125 143.382 175.475 143.382 175.475L143.885 170.03L133.915 166.464L132.138 172.616Z" fill="#FFEAED" stroke="#1B1B1E" stroke-width="0.535426" stroke-miterlimit="10"/>
<path d="M104.671 166.747C102.605 165.984 100.612 165.036 98.7166 163.914C98.0595 163.56 97.4733 163.089 96.9872 162.522C96.403 161.641 96.0361 160.633 95.9163 159.583C95.1828 155.728 94.1441 152.794 96.939 149.522C99.2092 146.845 102.829 145.828 105.945 147.75C107.953 149.003 109.302 151.268 111.529 152.033C112.734 152.456 114.105 152.371 115.277 152.911C116.357 153.498 117.404 154.141 118.415 154.839C120.905 156.343 123.132 158.234 125.536 159.861C126.489 160.498 136.47 165.344 136.464 165.349C135.174 168.23 134.044 171.191 132.861 174.13C126.404 173.258 120.187 171.228 113.912 169.542C110.833 168.728 107.68 167.882 104.671 166.747Z" fill="#522200"/>
<path d="M143.719 176.048C145.695 176.439 147.676 176.016 149.807 175.786C151.467 175.604 153.175 175.914 154.824 175.657C156.912 175.336 159.289 173.264 159.386 171.052C159.392 170.358 159.249 169.669 158.968 169.034C158.839 168.691 158.659 168.369 158.433 168.081C158.167 167.767 157.84 167.51 157.472 167.326C157.103 167.142 156.702 167.035 156.291 167.01C155.038 166.892 153.785 167.299 152.602 167.642C151.404 167.923 150.226 168.281 149.074 168.713C147.545 169.37 145.867 169.602 144.217 169.382C143.796 169.291 143.359 169.291 142.938 169.382C142.011 169.65 142.102 171.047 142.033 171.813C142.005 172.977 141.793 174.13 141.406 175.229C142.126 175.63 142.908 175.906 143.719 176.048Z" fill="#1B1B1E"/>
<path d="M138.943 131.27V131.227L138.863 129.872C138.836 129.639 138.836 129.404 138.863 129.171C139.061 128.479 139.485 127.874 140.068 127.452C140.464 127.088 143.816 123.8 144.089 123.988C145.159 124.786 145.786 124.074 146.552 123.254C146.817 123.033 146.985 122.715 147.017 122.371C147.017 122.028 146.6 121.707 146.321 121.905C146.932 121.23 147.521 120.54 148.099 119.838C148.608 119.217 149.111 118.837 148.763 118.018C148.147 116.708 147.081 115.663 145.759 115.073C144.737 114.575 143.109 113.874 141.947 113.959C140.673 114.056 140.014 115.132 139.05 115.79C139.011 115.824 138.963 115.845 138.911 115.849C138.852 115.849 138.804 115.79 138.756 115.753C138.567 115.605 138.334 115.524 138.095 115.524C137.855 115.524 137.622 115.605 137.433 115.753C137.069 116.068 136.799 116.478 136.652 116.936C136.521 117.215 136.469 117.524 136.502 117.83C136.527 117.98 136.604 118.116 136.72 118.214C136.835 118.312 136.982 118.365 137.133 118.366C136.893 118.403 136.496 120.224 136.427 120.459C136.1 121.616 135.388 122.269 134.579 123.137C133.851 123.94 132.973 124.812 131.902 124.743C131.42 124.743 130.831 124.561 130.548 124.957C130.461 125.095 130.415 125.254 130.414 125.417C130.221 127.805 131.752 129.915 133.675 131.168C134.665 131.912 139.04 133.706 138.943 131.27Z" fill="#7A3300" stroke="#1B1B1E" stroke-width="0.535426" stroke-miterlimit="10"/>
<path d="M138.274 141.048H110.855C110.364 141.048 109.966 141.446 109.966 141.937V158.476C109.966 158.967 110.364 159.365 110.855 159.365H138.274C138.765 159.365 139.163 158.967 139.163 158.476V141.937C139.163 141.446 138.765 141.048 138.274 141.048Z" fill="#F46600"/>
<path d="M126.28 149.636C126.28 149.976 126.179 150.308 125.99 150.591C125.801 150.874 125.532 151.094 125.218 151.224C124.904 151.354 124.558 151.388 124.224 151.321C123.891 151.254 123.584 151.09 123.344 150.849C123.104 150.608 122.941 150.301 122.875 149.968C122.809 149.634 122.844 149.288 122.975 148.974C123.106 148.66 123.327 148.392 123.611 148.204C123.894 148.016 124.227 147.916 124.567 147.917C124.792 147.917 125.016 147.961 125.224 148.048C125.432 148.134 125.621 148.261 125.78 148.421C125.939 148.58 126.066 148.77 126.151 148.978C126.237 149.187 126.281 149.41 126.28 149.636Z" fill="#1B1B1E"/>
<path d="M151.38 114.779C151.356 114.596 151.309 114.416 151.241 114.244C151.079 113.787 150.755 113.406 150.331 113.173C149.994 113.018 149.63 112.931 149.26 112.916C148.827 112.884 148.392 112.884 147.959 112.916C147.543 112.959 147.125 112.979 146.706 112.975C146.058 112.898 145.425 112.727 144.827 112.466C144.23 112.196 143.597 112.016 142.948 111.931C141.593 111.823 140.64 112.851 139.826 113.805C138.946 114.896 138.187 116.079 137.561 117.333C136.276 119.716 135.885 122.687 138.3 124.518C141.47 126.944 145.261 123.635 147.616 121.611C148.134 121.254 148.626 120.86 149.089 120.433C149.552 119.883 149.951 119.281 150.277 118.639C150.616 118.026 150.904 117.387 151.14 116.728C151.373 116.107 151.456 115.439 151.38 114.779ZM140.592 122.81C140.082 122.717 139.597 122.521 139.167 122.232C138.878 122.007 139.216 121.541 139.489 121.772C139.866 122.02 140.291 122.19 140.736 122.27C141.047 122.35 140.902 122.875 140.592 122.805V122.81ZM148.152 118.629C148.036 118.975 147.854 119.295 147.616 119.571C146.615 120.894 145.164 122.564 143.708 123.389L143.542 123.48C143.151 122.12 142.653 120.77 141.4 119.967C140.301 119.328 139.011 119.1 137.759 119.325C138.209 117.44 139.649 114.549 141.85 114.506C142.673 114.542 143.465 114.834 144.115 115.341C144.784 115.807 145.378 116.375 146.064 116.819C146.856 117.333 148.468 117.424 148.152 118.623V118.629Z" fill="#1B1B1E"/>
<path d="M143.451 124.926C143.515 124.76 143.59 124.599 143.665 124.438C144.259 123.202 145.577 122.682 146.599 121.804C147.236 121.269 147.879 120.835 148.538 120.332C148.853 120.091 149.116 119.727 149.442 119.523C149.544 119.452 149.666 119.413 149.79 119.413C149.915 119.413 150.037 119.452 150.138 119.523C150.271 119.67 150.341 119.861 150.337 120.059C150.422 121.338 149.71 122.323 149.089 123.352C148.554 124.251 147.686 124.813 147.119 125.686C146.551 126.559 146.653 127.651 146.765 128.668L147.327 133.792C147.544 135.31 147.864 136.811 148.286 138.285C148.875 140.662 148.821 143.43 148.886 145.866C148.95 148.302 147.311 151.247 144.768 151.756C139.66 152.789 140.769 145.572 140.635 142.654C140.528 140.346 141.079 137.99 141.598 135.768C142.134 133.444 142.203 131.04 142.546 128.684C142.697 127.4 143.001 126.138 143.451 124.926Z" fill="#7A3300" stroke="#1B1B1E" stroke-width="0.535426" stroke-miterlimit="10"/>
<path d="M143.429 149.191C143.441 149.392 143.43 149.593 143.397 149.791C143.371 150.019 143.275 150.233 143.124 150.405C142.973 150.577 142.773 150.699 142.551 150.755C142.308 150.754 142.069 150.695 141.853 150.584C141.637 150.472 141.45 150.31 141.309 150.112C140.02 148.682 139.322 146.817 139.355 144.892C139.321 144.343 139.453 143.796 139.735 143.323C139.884 143.094 140.11 142.926 140.373 142.85C140.635 142.774 140.917 142.796 141.165 142.911C141.459 143.142 141.668 143.464 141.759 143.826L143.06 147.333C143.275 147.931 143.399 148.557 143.429 149.191Z" fill="#662C01"/>
<path d="M145.24 149.637C145.007 149.81 144.721 149.896 144.431 149.878C144.217 149.878 144.185 150.194 144.383 150.247C144.582 150.32 144.8 150.327 145.004 150.266C145.207 150.205 145.386 150.08 145.513 149.91C145.636 149.749 145.4 149.535 145.24 149.637Z" fill="#1B1B1E"/>
<path d="M101.196 143.05C101.083 142.95 100.995 142.825 100.94 142.684C100.885 142.543 100.864 142.392 100.88 142.241C100.911 142.131 100.898 142.013 100.843 141.913C100.788 141.813 100.695 141.738 100.585 141.706C100.531 141.689 100.474 141.683 100.417 141.689C100.36 141.694 100.305 141.711 100.255 141.739C100.205 141.766 100.161 141.804 100.126 141.849C100.09 141.894 100.065 141.945 100.05 142C100.001 142.292 100.025 142.59 100.118 142.87C100.212 143.15 100.372 143.403 100.585 143.607C100.971 144.03 101.571 143.419 101.196 143.05Z" fill="#1B1B1E"/>
<path d="M117.258 170.903C119.935 171.557 122.612 172.097 125.332 172.51L117.258 170.903Z" fill="#7A3300"/>
<path d="M117.258 170.903C119.935 171.557 122.612 172.097 125.332 172.51" stroke="#FFEAED" stroke-width="0.535426" stroke-miterlimit="10"/>
<path d="M135.212 168.36C135.569 167.511 135.951 166.67 136.358 165.838C132.888 163.89 129.499 161.812 126.062 159.81" fill="#7A3300"/>
<path d="M135.212 168.36C135.569 167.511 135.951 166.67 136.358 165.838C132.888 163.89 129.499 161.812 126.062 159.81" stroke="#3E1A00" stroke-width="0.535426" stroke-miterlimit="10"/>
<path d="M112.825 169.12C110.297 168.514 107.816 167.723 105.404 166.753L112.825 169.12Z" fill="#7A3300"/>
<path d="M112.825 169.12C110.297 168.514 107.816 167.723 105.404 166.753" stroke="#FFEAED" stroke-width="0.535426" stroke-miterlimit="10"/>
</g>
<defs>
<clipPath id="clip0_574_29443">
<rect width="219" height="185.964" fill="white"/>
</clipPath>
</defs>
</svg>
