<svg width="375" height="733" viewBox="0 0 375 733" fill="none" xmlns="http://www.w3.org/2000/svg">
<rect x="-35" width="445" height="733" rx="39" fill="white"/>
<mask id="mask0_228_8144" style="mask-type:luminance" maskUnits="userSpaceOnUse" x="-35" y="0" width="445" height="724">
<rect x="-35" width="445" height="723.721" rx="39" fill="white"/>
</mask>
<g mask="url(#mask0_228_8144)">
<rect opacity="0.2" x="-239.767" y="-10.1602" width="870.696" height="756.436" fill="#9F9F9F"/>
<path d="M57.6631 158.371L78.1244 257.01L218.306 301.716L224.75 233.41L215.781 171.533L57.6631 158.371Z" fill="#ECECEC"/>
<path d="M-182.91 746.272L-116.302 745.44L37.0276 746.272L41.3811 700.281L19.4396 674.941L-13.2986 665.031L-182.91 746.272Z" fill="#ECECEC"/>
<path d="M451.74 672.975L354.744 704.821L326.186 734.322L342.99 746.273L476.555 748.165L629.884 748.921L634.238 702.93L630.929 665.184L570.155 677.967L451.74 672.975Z" fill="#ECECEC"/>
<path d="M231.367 505.348L266.892 623.579L389.747 595.591V523.2L342.99 454.516L231.367 505.348Z" fill="#ECECEC"/>
<path d="M218.307 199.143C217.698 199.143 217.175 198.916 216.74 198.538C215.869 197.781 215.956 196.571 216.827 195.89C249.478 168.885 286.134 -8.72569 286.483 -10.5411C286.657 -11.6001 287.789 -12.2809 289.008 -12.054C290.227 -11.9027 291.01 -10.9194 290.749 -9.86035C290.662 -9.40649 281.433 35.6771 268.111 83.5595C250.262 148.159 233.98 186.813 219.787 198.613C219.439 198.992 218.917 199.143 218.307 199.143Z" fill="url(#paint0_linear_228_8144)"/>
<path d="M350.914 755.122C349.956 755.122 348.998 754.82 348.215 754.29C287.353 712.232 284.044 700.054 265.847 632.655C259.055 607.542 250.61 576.377 236.504 532.957C195.146 405.573 203.505 364.196 213.17 316.314C215.869 303.076 218.568 289.385 220.396 273.273C228.233 201.184 169.983 -7.21373 169.374 -9.2561C168.764 -11.2985 170.244 -13.3409 172.595 -13.7947C174.946 -14.3242 177.297 -13.0383 177.819 -10.9959C177.994 -10.4664 192.795 42.3328 206.465 103.528C224.837 185.829 232.412 243.242 229.103 274.105C227.362 290.519 224.489 304.362 221.79 317.751C212.299 364.726 204.114 405.271 244.95 530.99C259.142 574.561 267.936 607.239 274.38 631.067C292.403 697.86 295.189 708.072 353.7 748.541C355.616 749.827 355.877 752.248 354.397 753.836C353.439 754.669 352.133 755.122 350.914 755.122Z" fill="url(#paint1_linear_228_8144)"/>
<path d="M-158.792 237.192C-160.098 237.192 -161.404 236.663 -162.275 235.68C-163.668 234.015 -163.32 231.67 -161.404 230.385C-161.143 230.158 -131.191 210.944 -92.0095 192.109C-39.0712 166.693 4.55063 154.06 37.8112 154.665C74.5546 155.346 99.4565 158.674 123.488 161.851C150.566 165.482 176.165 168.886 215.607 167.827C215.694 167.827 215.694 167.827 215.781 167.827C218.132 167.827 220.048 169.416 220.135 171.458C220.222 173.576 218.306 175.316 215.956 175.392C175.729 176.526 149.783 173.047 122.269 169.34C98.4987 166.163 73.858 162.835 37.7242 162.23C-38.2876 160.792 -155.048 235.68 -156.267 236.436C-157.051 236.89 -157.921 237.192 -158.792 237.192Z" fill="url(#paint2_linear_228_8144)"/>
<path d="M326.186 738.105C325.402 738.105 324.618 737.954 323.922 737.5C321.919 736.365 321.223 734.096 322.529 732.28C323.138 731.448 337.679 711.554 371.81 694.232C391.749 684.095 414.213 676.909 438.766 672.9C469.241 667.908 502.85 667.756 538.722 672.598C573.115 677.212 605.94 672.597 636.153 658.755C660.446 647.635 683.258 630.615 703.893 608.149C739.157 569.722 755.961 528.27 756.135 527.891C756.919 525.925 759.444 524.866 761.708 525.546C763.971 526.227 765.19 528.421 764.407 530.388C763.71 532.127 746.993 573.429 710.772 612.915C689.44 636.213 665.67 653.914 640.333 665.487C608.378 680.086 573.811 684.927 537.503 680.086C502.676 675.396 470.024 675.472 440.508 680.313C416.999 684.171 395.406 691.055 376.338 700.813C344.035 717.227 330.191 736.214 330.104 736.365C329.059 737.424 327.666 738.105 326.186 738.105Z" fill="url(#paint3_linear_228_8144)"/>
<path d="M27.2758 383.411C26.5793 383.411 25.8827 383.109 25.4474 382.579L-30.1901 312.08C-30.3642 311.853 -30.4513 311.626 -30.5384 311.323L-57.2687 180.308C-57.4429 179.249 -56.6593 178.266 -55.5274 178.115C-54.3084 177.964 -53.1765 178.644 -53.0023 179.628L-26.359 310.188L29.0172 380.386C29.7138 381.218 29.4526 382.428 28.4948 383.033C28.0594 383.336 27.6241 383.411 27.2758 383.411Z" fill="url(#paint4_linear_228_8144)"/>
<path d="M-110.903 340.824C-111.687 340.824 -112.47 340.446 -112.819 339.765C-113.341 338.857 -112.906 337.722 -111.861 337.193L77.1672 255.271C77.6896 255.044 78.2991 255.044 78.9086 255.195L218.481 299.749L308.772 283.335C309.904 283.108 311.123 283.789 311.384 284.772C311.646 285.831 310.862 286.814 309.73 287.041L218.916 303.607C218.481 303.683 218.133 303.683 217.698 303.532L78.3862 259.053L-109.945 340.597C-110.207 340.748 -110.555 340.824 -110.903 340.824Z" fill="url(#paint5_linear_228_8144)"/>
<path d="M12.5613 283.713C11.5164 283.713 10.6457 283.108 10.3845 282.2L-15.4752 166.163C-15.7364 165.104 -14.9527 164.121 -13.7338 163.969C-12.6019 163.742 -11.3829 164.423 -11.2087 165.482L14.6509 281.52C14.9121 282.579 14.1285 283.562 12.9095 283.713C12.8225 283.713 12.6483 283.713 12.5613 283.713Z" fill="url(#paint6_linear_228_8144)"/>
<path d="M78.1244 258.903C77.0796 258.903 76.2089 258.298 75.9477 257.315L55.3992 158.676C55.2251 157.617 56.0087 156.633 57.1406 156.482C58.3596 156.331 59.4915 157.011 59.6656 157.995L80.2141 256.634C80.3882 257.693 79.6046 258.676 78.4727 258.828C78.3856 258.903 78.2985 258.903 78.1244 258.903Z" fill="url(#paint7_linear_228_8144)"/>
<path d="M143.253 199.145H92.9267C91.7078 199.145 90.75 198.313 90.75 197.254C90.75 196.195 91.7078 195.363 92.9267 195.363H143.253C144.472 195.363 145.43 196.195 145.43 197.254C145.43 198.313 144.472 199.145 143.253 199.145Z" fill="url(#paint8_linear_228_8144)"/>
<path d="M-2.85017 214.501C-3.89501 214.501 -4.7657 213.896 -5.02691 212.988C-5.28812 211.929 -4.50449 210.946 -3.28552 210.794L66.1089 199.145C67.3279 198.918 68.4598 199.599 68.634 200.658C68.8952 201.717 68.1115 202.7 66.8926 202.852L-2.50189 214.501C-2.58896 214.501 -2.7631 214.501 -2.85017 214.501Z" fill="url(#paint9_linear_228_8144)"/>
<path d="M178.255 248.767C177.123 248.767 176.165 248.01 176.078 246.951L171.464 171.081C171.376 170.022 172.334 169.114 173.553 169.114C174.772 169.039 175.817 169.871 175.817 170.93L180.432 246.8C180.519 247.859 179.561 248.767 178.342 248.767H178.255Z" fill="url(#paint10_linear_228_8144)"/>
<path d="M52.0905 490.75C51.1327 490.75 50.262 490.221 50.0008 489.313C49.9138 488.859 46.9534 478.874 53.3965 461.854C59.2302 446.423 74.2932 421.915 112.778 392.943C133.588 377.285 162.234 352.398 180.518 322.897C191.402 305.272 193.404 294.304 193.404 294.152C193.579 293.093 194.71 292.413 195.842 292.564C197.061 292.715 197.845 293.699 197.671 294.682C197.584 295.136 195.581 306.331 184.436 324.41C174.249 340.976 153.962 366.846 115.564 395.742C43.5577 449.903 54.006 487.951 54.0931 488.33C54.3543 489.313 53.6577 490.372 52.5258 490.675C52.5258 490.75 52.3517 490.75 52.0905 490.75Z" fill="url(#paint11_linear_228_8144)"/>
<path d="M37.028 748.165C36.8538 748.165 36.6797 748.165 36.5055 748.089C35.3736 747.862 34.6771 746.803 34.9383 745.82C42.6875 719.344 40.4237 698.845 28.321 685.078C13.0838 667.68 -13.1241 666.999 -13.3853 666.999C-14.3431 666.999 -15.1267 666.469 -15.3879 665.713L-112.993 408.903C-113.341 407.92 -112.819 406.936 -111.687 406.558L-79.2099 395.59C-78.078 395.212 -76.8591 395.665 -76.4237 396.649C-75.9884 397.632 -76.5108 398.691 -77.6427 399.069L-108.204 409.433L-11.731 663.217C-5.54907 663.595 17.2632 666.167 31.8038 682.733C44.7771 697.483 47.2151 719.042 39.2047 746.727C38.9435 747.559 37.9857 748.165 37.028 748.165Z" fill="url(#paint12_linear_228_8144)"/>
<path d="M-59.707 544.307C-60.4036 544.307 -61.013 544.004 -61.4484 543.55C-62.1449 542.718 -61.9708 541.508 -61.013 540.903L40.0748 476.227C41.0325 475.622 42.4256 475.774 43.1222 476.606C43.8187 477.438 43.6446 478.648 42.6868 479.253L-58.401 543.928C-58.8363 544.231 -59.2716 544.307 -59.707 544.307Z" fill="url(#paint13_linear_228_8144)"/>
<path d="M-26.5332 12.5315C-27.6651 12.5315 -28.71 11.6994 -28.71 10.7161C-28.71 9.65704 -27.8393 8.82496 -26.6203 8.74932L114.345 4.8915C115.564 4.81585 116.522 5.64793 116.609 6.70694C116.609 7.76595 115.738 8.59803 114.52 8.67368L-26.5332 12.5315Z" fill="url(#paint14_linear_228_8144)"/>
<path d="M-31.8442 434.091C-32.3666 434.091 -32.9761 433.94 -33.4114 433.486C-34.2821 432.73 -34.2821 431.519 -33.4114 430.839L145.517 278.417L139.422 168.128L109.296 -9.861C109.121 -10.92 109.905 -11.8277 111.124 -11.979C112.343 -12.1303 113.388 -11.4495 113.562 -10.3905L143.688 167.75C143.688 167.826 143.688 167.901 143.688 167.901L149.783 279.098C149.783 279.627 149.609 280.157 149.173 280.535L-30.2769 433.562C-30.7123 433.94 -31.3218 434.091 -31.8442 434.091Z" fill="url(#paint15_linear_228_8144)"/>
<path d="M192.795 65.934L45.7345 64.1185C44.6026 64.1185 43.6448 63.3621 43.5577 62.3787L39.2042 10.7898C39.1172 9.73076 39.9879 8.82304 41.2068 8.7474C42.4258 8.67175 43.4706 9.42819 43.5577 10.4872L47.8241 60.3363L192.882 62.1518C194.101 62.1518 195.059 63.0595 195.059 64.0429C194.972 65.1019 194.014 65.934 192.795 65.934Z" fill="url(#paint16_linear_228_8144)"/>
<path d="M417.348 420.78H417.261C416.042 420.705 415.171 419.872 415.171 418.813C417.174 385.455 410.208 328.495 366.151 246.422C339.769 197.253 312.168 162.079 311.907 161.701C311.646 161.398 311.559 161.02 311.559 160.642C311.82 132.502 317.479 108.145 328.45 88.3266C337.244 72.3658 349.434 59.3551 364.671 49.5215C390.618 32.7286 416.129 31.2914 417.261 31.2157C418.48 31.1401 419.525 31.9722 419.525 32.9555C419.612 34.0145 418.654 34.9223 417.522 34.9223C417.174 34.9223 392.011 36.5108 367.109 52.6229C352.481 62.0783 340.814 74.7108 332.281 90.0664C321.746 109.204 316.26 132.729 315.912 160.037C319.395 164.5 345.255 198.539 370.156 244.833C394.71 290.522 423.182 357.845 419.525 419.04C419.438 420.024 418.48 420.78 417.348 420.78Z" fill="url(#paint17_linear_228_8144)"/>
<path d="M342.99 358.073C342.032 358.073 341.248 357.543 340.9 356.787C327.143 319.343 302.241 266.771 261.144 228.722C236.591 205.953 217.697 199.146 217.523 199.07C216.739 198.767 216.216 198.087 216.129 197.33C216.042 196.574 216.652 195.893 217.435 195.59L312.777 158.903C313.909 158.449 315.128 158.903 315.65 159.887C316.172 160.87 315.65 161.929 314.518 162.383L223.443 197.406C230.583 200.734 245.646 208.904 264.018 225.923C305.811 264.502 331.148 317.83 344.992 355.652C345.341 356.636 344.731 357.695 343.599 357.997C343.425 358.073 343.251 358.073 342.99 358.073Z" fill="url(#paint18_linear_228_8144)"/>
<path d="M314.866 142.108C313.996 142.108 313.125 141.655 312.864 140.898C312.428 139.915 313.038 138.856 314.17 138.478L434.848 99.5211C435.98 99.1429 437.199 99.6724 437.635 100.656C438.07 101.639 437.46 102.698 436.329 103.076L315.65 141.957C315.389 142.033 315.128 142.108 314.866 142.108Z" fill="url(#paint19_linear_228_8144)"/>
<path d="M326.186 95.437C325.315 95.437 324.444 94.9075 324.096 94.1511C323.748 93.1677 324.27 92.1087 325.489 91.7305L424.923 62.2295C426.055 61.9269 427.274 62.4564 427.709 63.4398C428.057 64.4231 427.535 65.4822 426.316 65.8604L326.882 95.3614C326.708 95.437 326.447 95.437 326.186 95.437Z" fill="url(#paint20_linear_228_8144)"/>
<path d="M333.499 190.216C332.629 190.216 331.758 189.762 331.497 189.006C331.061 188.022 331.671 186.963 332.716 186.585L447.647 148.385C448.779 148.007 449.998 148.536 450.434 149.444C450.869 150.428 450.26 151.487 449.215 151.865L334.283 190.065C334.022 190.14 333.76 190.216 333.499 190.216Z" fill="url(#paint21_linear_228_8144)"/>
<path d="M266.891 625.473C265.933 625.473 265.063 624.943 264.802 624.036C264.453 623.052 265.15 621.993 266.369 621.691L510.425 566.017V505.426C485.175 419.874 475.858 354.139 472.463 314.048C469.502 279.176 470.46 257.013 470.982 249.524L383.39 276.226C382.258 276.605 381.039 276.075 380.604 275.092C380.169 274.108 380.778 273.049 381.91 272.671L472.637 244.986C473.333 244.759 474.117 244.91 474.726 245.288C475.336 245.666 475.597 246.347 475.597 246.952C475.51 247.86 466.542 341.507 514.778 504.746C514.865 504.897 514.865 505.048 514.865 505.199V567.454C514.865 568.286 514.169 569.043 513.211 569.27L267.501 625.246C267.24 625.473 267.065 625.473 266.891 625.473Z" fill="url(#paint22_linear_228_8144)"/>
<path d="M361.362 235.3C360.491 235.3 359.707 234.846 359.359 234.165C358.924 233.182 359.446 232.123 360.491 231.669L459.837 195.587C460.969 195.209 462.188 195.663 462.711 196.57C463.146 197.554 462.624 198.613 461.579 199.066L362.232 235.148C361.971 235.224 361.623 235.3 361.362 235.3Z" fill="url(#paint23_linear_228_8144)"/>
<path d="M-19.4804 650.81C-19.7416 650.81 -20.0028 650.734 -20.264 650.659C-21.3959 650.281 -21.9183 649.146 -21.483 648.238C-21.2218 647.633 -14.2562 632.429 5.07326 613.064C22.8355 595.212 54.79 570.401 106.248 553.305C206.378 520.098 464.801 396.496 483.346 382.275C484.217 381.594 485.61 381.67 486.394 382.427C487.178 383.183 487.09 384.393 486.22 385.074C467.587 399.295 208.207 523.426 107.815 556.785C57.2279 573.578 25.8829 597.935 8.46897 615.333C-10.4251 634.244 -17.3907 649.448 -17.4778 649.6C-17.739 650.356 -18.6097 650.81 -19.4804 650.81Z" fill="url(#paint24_linear_228_8144)"/>
<path d="M224.75 479.705C224.402 479.705 224.054 479.629 223.792 479.478C222.748 479.024 222.312 477.89 222.835 476.906C223.183 476.225 232.325 460.567 251.655 442.564C269.243 426.149 299.021 404.818 340.901 395.741V374.485C340.901 373.426 341.859 372.594 343.078 372.594C344.297 372.594 345.255 373.426 345.255 374.485V397.178C345.255 398.086 344.558 398.842 343.6 398.993C301.894 407.617 272.377 428.797 254.963 444.985C235.982 462.61 226.84 478.343 226.753 478.495C226.317 479.327 225.534 479.705 224.75 479.705Z" fill="url(#paint25_linear_228_8144)"/>
<path d="M117.045 335.907C116.609 335.907 116.087 335.756 115.738 335.529L96.8444 322.972C95.8866 322.367 95.7125 321.157 96.409 320.324C97.1056 319.492 98.4987 319.341 99.4565 319.946L118.351 332.503C119.308 333.108 119.482 334.318 118.786 335.151C118.351 335.604 117.741 335.907 117.045 335.907Z" fill="url(#paint26_linear_228_8144)"/>
<path d="M137.071 326.753C136.549 326.753 136.114 326.601 135.678 326.299L112.518 309.506C111.56 308.825 111.473 307.615 112.256 306.858C113.04 306.026 114.433 305.951 115.304 306.631L138.464 323.424C139.422 324.105 139.509 325.315 138.726 326.072C138.29 326.526 137.681 326.753 137.071 326.753Z" fill="url(#paint27_linear_228_8144)"/>
<path d="M141.598 544.306C140.814 544.306 140.031 543.928 139.595 543.247L76.8182 426.983C76.2958 426.075 76.8182 424.941 77.8631 424.487C78.9079 424.033 80.2139 424.487 80.7364 425.394L143.514 541.659C144.036 542.566 143.514 543.701 142.469 544.155C142.295 544.306 141.946 544.306 141.598 544.306Z" fill="url(#paint28_linear_228_8144)"/>
<path d="M162.583 385.53C161.451 385.53 160.493 384.774 160.406 383.791C159.361 370.78 152.483 366.468 152.395 366.392C151.438 365.787 151.176 364.577 151.873 363.745C152.57 362.913 153.963 362.686 154.92 363.291C155.269 363.518 163.54 368.737 164.759 383.488C164.846 384.547 163.976 385.455 162.757 385.53C162.67 385.53 162.67 385.53 162.583 385.53Z" fill="url(#paint29_linear_228_8144)"/>
<path d="M180.692 132.731C179.647 132.731 178.69 132.05 178.516 131.142L176.339 118.585L133.849 122.594C132.63 122.67 131.585 121.989 131.411 120.93C131.324 119.871 132.107 118.963 133.326 118.812L177.906 114.576C179.038 114.5 180.083 115.181 180.257 116.165L182.695 130.461C182.869 131.52 182.085 132.428 180.866 132.579C180.953 132.731 180.779 132.731 180.692 132.731Z" fill="url(#paint30_linear_228_8144)"/>
<path d="M270.113 70.1728H224.75C223.531 70.1728 222.573 69.3407 222.573 68.2817C222.573 67.2227 223.531 66.3906 224.75 66.3906H270.113C271.332 66.3906 272.29 67.2227 272.29 68.2817C272.29 69.3407 271.332 70.1728 270.113 70.1728Z" fill="url(#paint31_linear_228_8144)"/>
<path d="M71.333 437.12C70.8106 437.12 70.3752 436.968 69.9399 436.666L30.4103 407.846C29.4525 407.165 29.3654 405.955 30.1491 405.198C30.9327 404.366 32.3258 404.29 33.1965 404.971L72.7261 433.791C73.6839 434.472 73.7709 435.683 72.9873 436.439C72.552 436.893 71.9425 437.12 71.333 437.12Z" fill="url(#paint32_linear_228_8144)"/>
<path d="M389.747 597.484C388.528 597.484 387.57 596.652 387.57 595.593V523.731L341.162 455.576L286.918 389.161C286.221 388.329 286.483 387.119 287.44 386.514C288.398 385.909 289.791 386.136 290.488 386.968L344.819 453.383C344.819 453.458 344.906 453.458 344.906 453.534L391.663 522.218C391.837 522.521 391.924 522.824 391.924 523.202V595.593C391.924 596.652 390.966 597.484 389.747 597.484Z" fill="url(#paint33_linear_228_8144)"/>
<path d="M266.891 366.77C265.933 366.77 265.063 366.165 264.802 365.333L245.298 296.876C245.037 295.892 245.733 294.833 246.865 294.606C247.997 294.379 249.216 294.984 249.477 295.968L268.981 364.425C269.242 365.409 268.546 366.468 267.414 366.695C267.24 366.77 267.065 366.77 266.891 366.77Z" fill="url(#paint34_linear_228_8144)"/>
<path d="M118.09 500.734C116.958 500.734 116.087 499.977 115.913 499.07C115.826 498.011 116.609 497.103 117.828 496.952L224.489 486.967C225.708 486.891 226.752 487.572 226.927 488.631C227.014 489.69 226.23 490.598 225.011 490.749L118.351 500.734C118.264 500.734 118.177 500.734 118.09 500.734Z" fill="url(#paint35_linear_228_8144)"/>
<path d="M141.598 761.554C139.509 761.554 137.68 760.268 137.332 758.452C126.274 708.074 96.7576 663.595 77.254 634.094C68.6342 621.084 61.8427 610.796 59.1436 603.913C53.9194 590.372 55.8349 574.79 57.9246 558.224C60.7108 535.38 63.5841 511.779 48.434 490.901C39.3788 478.42 18.395 466.241 -5.89743 452.172C-51.2607 425.923 -107.682 393.321 -115.17 339.387C-121.874 290.975 -146.428 261.02 -166.193 236.966C-178.905 221.383 -189.005 209.129 -190.311 196.269C-193.445 166.314 -251.956 -21.206 -252.566 -23.0971C-253.175 -25.1395 -251.782 -27.1819 -249.518 -27.7114C-247.167 -28.2409 -244.816 -27.0306 -244.207 -25.0638C-241.769 -17.3482 -184.913 165.028 -181.778 195.513C-180.646 206.33 -171.156 217.903 -159.227 232.503C-139.985 255.952 -113.69 288.101 -106.724 338.404C-99.6714 388.858 -45.1658 420.477 -1.28275 445.817C23.8804 460.341 45.5607 472.898 55.6608 486.816C72.4652 509.963 69.2437 535.985 66.4574 558.98C64.5419 574.714 62.7134 589.54 67.3281 601.492C69.679 607.695 76.2963 617.68 84.742 630.312C104.594 660.191 134.546 705.426 145.865 757.015C146.3 759.058 144.733 761.024 142.382 761.403C142.208 761.478 141.86 761.554 141.598 761.554Z" fill="url(#paint36_linear_228_8144)"/>
</g>
<defs>
<linearGradient id="paint0_linear_228_8144" x1="216.129" y1="-12.0977" x2="216.129" y2="199.143" gradientUnits="userSpaceOnUse">
<stop stop-color="white"/>
<stop offset="0.975613" stop-color="white"/>
</linearGradient>
<linearGradient id="paint1_linear_228_8144" x1="169.236" y1="-13.9141" x2="169.236" y2="755.122" gradientUnits="userSpaceOnUse">
<stop stop-color="white"/>
<stop offset="0.975613" stop-color="white"/>
</linearGradient>
<linearGradient id="paint2_linear_228_8144" x1="-163.122" y1="154.645" x2="-163.122" y2="237.192" gradientUnits="userSpaceOnUse">
<stop stop-color="white"/>
<stop offset="0.975613" stop-color="white"/>
</linearGradient>
<linearGradient id="paint3_linear_228_8144" x1="321.863" y1="525.34" x2="321.863" y2="738.105" gradientUnits="userSpaceOnUse">
<stop stop-color="white"/>
<stop offset="0.975613" stop-color="white"/>
</linearGradient>
<linearGradient id="paint4_linear_228_8144" x1="-57.293" y1="178.094" x2="-57.293" y2="383.411" gradientUnits="userSpaceOnUse">
<stop stop-color="white"/>
<stop offset="0.975613" stop-color="white"/>
</linearGradient>
<linearGradient id="paint5_linear_228_8144" x1="-113.04" y1="255.09" x2="-113.04" y2="340.824" gradientUnits="userSpaceOnUse">
<stop stop-color="white"/>
<stop offset="0.975613" stop-color="white"/>
</linearGradient>
<linearGradient id="paint6_linear_228_8144" x1="-15.5254" y1="163.926" x2="-15.5254" y2="283.713" gradientUnits="userSpaceOnUse">
<stop stop-color="white"/>
<stop offset="0.975613" stop-color="white"/>
</linearGradient>
<linearGradient id="paint7_linear_228_8144" x1="55.375" y1="156.461" x2="55.375" y2="258.903" gradientUnits="userSpaceOnUse">
<stop stop-color="white"/>
<stop offset="0.975613" stop-color="white"/>
</linearGradient>
<linearGradient id="paint8_linear_228_8144" x1="90.75" y1="195.363" x2="90.75" y2="199.145" gradientUnits="userSpaceOnUse">
<stop stop-color="white"/>
<stop offset="0.975613" stop-color="white"/>
</linearGradient>
<linearGradient id="paint9_linear_228_8144" x1="-5.07715" y1="199.102" x2="-5.07715" y2="214.501" gradientUnits="userSpaceOnUse">
<stop stop-color="white"/>
<stop offset="0.975613" stop-color="white"/>
</linearGradient>
<linearGradient id="paint10_linear_228_8144" x1="171.458" y1="169.109" x2="171.458" y2="248.767" gradientUnits="userSpaceOnUse">
<stop stop-color="white"/>
<stop offset="0.975613" stop-color="white"/>
</linearGradient>
<linearGradient id="paint11_linear_228_8144" x1="49.2471" y1="292.543" x2="49.2471" y2="490.75" gradientUnits="userSpaceOnUse">
<stop stop-color="white"/>
<stop offset="0.975613" stop-color="white"/>
</linearGradient>
<linearGradient id="paint12_linear_228_8144" x1="-113.1" y1="395.457" x2="-113.1" y2="748.165" gradientUnits="userSpaceOnUse">
<stop stop-color="white"/>
<stop offset="0.975613" stop-color="white"/>
</linearGradient>
<linearGradient id="paint13_linear_228_8144" x1="-61.8721" y1="475.859" x2="-61.8721" y2="544.307" gradientUnits="userSpaceOnUse">
<stop stop-color="white"/>
<stop offset="0.975613" stop-color="white"/>
</linearGradient>
<linearGradient id="paint14_linear_228_8144" x1="-28.71" y1="4.88672" x2="-28.71" y2="12.5315" gradientUnits="userSpaceOnUse">
<stop stop-color="white"/>
<stop offset="0.975613" stop-color="white"/>
</linearGradient>
<linearGradient id="paint15_linear_228_8144" x1="-34.0645" y1="-12" x2="-34.0645" y2="434.091" gradientUnits="userSpaceOnUse">
<stop stop-color="white"/>
<stop offset="0.975613" stop-color="white"/>
</linearGradient>
<linearGradient id="paint16_linear_228_8144" x1="39.1982" y1="8.74219" x2="39.1982" y2="65.934" gradientUnits="userSpaceOnUse">
<stop stop-color="white"/>
<stop offset="0.975613" stop-color="white"/>
</linearGradient>
<linearGradient id="paint17_linear_228_8144" x1="311.559" y1="31.2109" x2="311.559" y2="420.78" gradientUnits="userSpaceOnUse">
<stop stop-color="white"/>
<stop offset="0.975613" stop-color="white"/>
</linearGradient>
<linearGradient id="paint18_linear_228_8144" x1="216.121" y1="158.727" x2="216.121" y2="358.073" gradientUnits="userSpaceOnUse">
<stop stop-color="white"/>
<stop offset="0.975613" stop-color="white"/>
</linearGradient>
<linearGradient id="paint19_linear_228_8144" x1="312.723" y1="99.3984" x2="312.723" y2="142.108" gradientUnits="userSpaceOnUse">
<stop stop-color="white"/>
<stop offset="0.975613" stop-color="white"/>
</linearGradient>
<linearGradient id="paint20_linear_228_8144" x1="323.99" y1="62.1445" x2="323.99" y2="95.437" gradientUnits="userSpaceOnUse">
<stop stop-color="white"/>
<stop offset="0.975613" stop-color="white"/>
</linearGradient>
<linearGradient id="paint21_linear_228_8144" x1="331.354" y1="148.262" x2="331.354" y2="190.216" gradientUnits="userSpaceOnUse">
<stop stop-color="white"/>
<stop offset="0.975613" stop-color="white"/>
</linearGradient>
<linearGradient id="paint22_linear_228_8144" x1="264.712" y1="244.879" x2="264.712" y2="625.473" gradientUnits="userSpaceOnUse">
<stop stop-color="white"/>
<stop offset="0.975613" stop-color="white"/>
</linearGradient>
<linearGradient id="paint23_linear_228_8144" x1="359.205" y1="195.453" x2="359.205" y2="235.3" gradientUnits="userSpaceOnUse">
<stop stop-color="white"/>
<stop offset="0.975613" stop-color="white"/>
</linearGradient>
<linearGradient id="paint24_linear_228_8144" x1="-21.6357" y1="381.809" x2="-21.6357" y2="650.81" gradientUnits="userSpaceOnUse">
<stop stop-color="white"/>
<stop offset="0.975613" stop-color="white"/>
</linearGradient>
<linearGradient id="paint25_linear_228_8144" x1="222.613" y1="372.594" x2="222.613" y2="479.705" gradientUnits="userSpaceOnUse">
<stop stop-color="white"/>
<stop offset="0.975613" stop-color="white"/>
</linearGradient>
<linearGradient id="paint26_linear_228_8144" x1="95.9854" y1="319.578" x2="95.9854" y2="335.907" gradientUnits="userSpaceOnUse">
<stop stop-color="white"/>
<stop offset="0.975613" stop-color="white"/>
</linearGradient>
<linearGradient id="paint27_linear_228_8144" x1="111.728" y1="306.172" x2="111.728" y2="326.753" gradientUnits="userSpaceOnUse">
<stop stop-color="white"/>
<stop offset="0.975613" stop-color="white"/>
</linearGradient>
<linearGradient id="paint28_linear_228_8144" x1="76.6133" y1="424.309" x2="76.6133" y2="544.306" gradientUnits="userSpaceOnUse">
<stop stop-color="white"/>
<stop offset="0.975613" stop-color="white"/>
</linearGradient>
<linearGradient id="paint29_linear_228_8144" x1="151.479" y1="362.949" x2="151.479" y2="385.53" gradientUnits="userSpaceOnUse">
<stop stop-color="white"/>
<stop offset="0.975613" stop-color="white"/>
</linearGradient>
<linearGradient id="paint30_linear_228_8144" x1="131.404" y1="114.57" x2="131.404" y2="132.731" gradientUnits="userSpaceOnUse">
<stop stop-color="white"/>
<stop offset="0.975613" stop-color="white"/>
</linearGradient>
<linearGradient id="paint31_linear_228_8144" x1="222.573" y1="66.3906" x2="222.573" y2="70.1728" gradientUnits="userSpaceOnUse">
<stop stop-color="white"/>
<stop offset="0.975613" stop-color="white"/>
</linearGradient>
<linearGradient id="paint32_linear_228_8144" x1="29.6201" y1="404.512" x2="29.6201" y2="437.12" gradientUnits="userSpaceOnUse">
<stop stop-color="white"/>
<stop offset="0.975613" stop-color="white"/>
</linearGradient>
<linearGradient id="paint33_linear_228_8144" x1="286.524" y1="386.172" x2="286.524" y2="597.484" gradientUnits="userSpaceOnUse">
<stop stop-color="white"/>
<stop offset="0.975613" stop-color="white"/>
</linearGradient>
<linearGradient id="paint34_linear_228_8144" x1="245.243" y1="294.559" x2="245.243" y2="366.77" gradientUnits="userSpaceOnUse">
<stop stop-color="white"/>
<stop offset="0.975613" stop-color="white"/>
</linearGradient>
<linearGradient id="paint35_linear_228_8144" x1="115.906" y1="486.961" x2="115.906" y2="500.734" gradientUnits="userSpaceOnUse">
<stop stop-color="white"/>
<stop offset="0.975613" stop-color="white"/>
</linearGradient>
<linearGradient id="paint36_linear_228_8144" x1="-252.709" y1="-27.8359" x2="-252.709" y2="761.554" gradientUnits="userSpaceOnUse">
<stop stop-color="white"/>
<stop offset="0.975613" stop-color="white"/>
</linearGradient>
</defs>
</svg>
