<svg width="295" height="103" viewBox="0 0 295 103" fill="none" xmlns="http://www.w3.org/2000/svg">
<g clip-path="url(#clip0_288_9845)">
<g style="mix-blend-mode:soft-light">
<path d="M292.768 95.9553H57.0948C56.5033 95.9553 55.9359 95.7203 55.5176 95.302C55.0993 94.8837 54.8643 94.3163 54.8643 93.7247C54.8643 93.1331 55.0993 92.5658 55.5176 92.1475C55.9359 91.7291 56.5033 91.4941 57.0948 91.4941H292.768C293.36 91.4941 293.927 91.7291 294.346 92.1475C294.764 92.5658 294.999 93.1331 294.999 93.7247C294.999 94.3163 294.764 94.8837 294.346 95.302C293.927 95.7203 293.36 95.9553 292.768 95.9553Z" fill="#3E1A00"/>
<path d="M45.7972 95.9553H6.06359C5.47201 95.9553 4.90465 95.7203 4.48633 95.302C4.06802 94.8837 3.83301 94.3163 3.83301 93.7247C3.83301 93.1331 4.06802 92.5658 4.48633 92.1475C4.90465 91.7291 5.47201 91.4941 6.06359 91.4941H45.7972C46.3887 91.4941 46.9561 91.7291 47.3744 92.1475C47.7927 92.5658 48.0277 93.1331 48.0277 93.7247C48.0277 94.3163 47.7927 94.8837 47.3744 95.302C46.9561 95.7203 46.3887 95.9553 45.7972 95.9553Z" fill="#3E1A00"/>
</g>
<path d="M38.5034 80.751C38.5438 80.0353 38.4179 79.3199 38.1355 78.6609C37.8531 78.002 37.4219 77.4174 36.8757 76.953C35.7905 76.0638 33.8614 75.1143 31.038 74.1196C25.1701 72.2674 20.8161 70.2847 17.976 68.1713C15.1358 66.058 13.7225 63.0018 13.7359 59.0028C13.7359 55.111 15.4205 51.9644 18.7899 49.563C22.1592 47.1616 26.4462 45.9609 31.6509 45.9609C36.7953 45.9609 41.0103 47.2839 44.2959 49.9298C45.86 51.1185 47.1113 52.6699 47.9419 54.4501C48.7725 56.2304 49.1575 58.186 49.0635 60.1483L48.9982 60.3392H38.5336C38.5641 59.4947 38.412 58.6536 38.0878 57.8733C37.7635 57.093 37.2747 56.3918 36.6546 55.8177C35.3987 54.6555 33.6655 54.0761 31.455 54.0795C29.2445 54.0828 27.5431 54.5618 26.3507 55.5163C25.7843 55.9124 25.3209 56.4383 24.9993 57.0501C24.6776 57.6619 24.5071 58.3418 24.502 59.033C24.4976 59.6945 24.6681 60.3454 24.9963 60.9197C25.3245 61.494 25.7987 61.9714 26.3708 62.3035C27.61 63.1207 29.9428 64.1472 33.369 65.3831C38.6407 66.9539 42.6112 68.8881 45.2806 71.1856C47.9499 73.4832 49.2896 76.6399 49.2996 80.6556C49.2996 84.7383 47.7104 87.9335 44.532 90.2411C41.3536 92.5487 37.1386 93.7008 31.887 93.6975C26.6153 93.6975 22.0554 92.3745 18.2071 89.7286C14.3588 87.0828 12.4766 83.2814 12.5603 78.3245L12.6256 78.1336H23.1104C23.1104 80.8164 23.8338 82.7254 25.2807 83.8759C26.7275 85.0263 28.9129 85.5991 31.8468 85.5991C34.0808 85.5991 35.7453 85.1519 36.8405 84.2577C37.3729 83.8442 37.8007 83.3114 38.0895 82.7024C38.3783 82.0933 38.5201 81.4249 38.5034 80.751Z" fill="#1C752E"/>
<path d="M91.8856 46.6309V77.0552C91.8856 82.347 90.1256 86.4498 86.6056 89.3637C83.0855 92.2775 78.4787 93.7327 72.785 93.7294C67.0243 93.7294 62.3789 92.2741 58.8488 89.3637C55.3188 86.4532 53.5537 82.3504 53.5537 77.0552V46.6309H64.365V77.0552C64.365 79.9054 65.0985 82.0154 66.5655 83.3853C68.0324 84.7551 70.1056 85.44 72.785 85.44C75.4443 85.44 77.4906 84.7601 78.9241 83.4004C80.3576 82.0406 81.0743 79.9255 81.0743 77.0552V46.6309H91.8856Z" fill="#1C752E"/>
<path d="M133.82 76.7621L133.886 76.953C133.675 82.3989 132.064 86.5553 129.053 89.4222C126.042 92.2892 121.688 93.7243 115.991 93.7276C110.247 93.7276 105.58 91.9643 101.989 88.4375C98.3988 84.9108 96.602 80.3291 96.5986 74.6923V64.9963C96.5986 59.3863 98.3268 54.8096 101.783 51.2661C105.24 47.7227 109.731 45.9543 115.257 45.961C121.125 45.961 125.61 47.438 128.711 50.392C131.812 53.346 133.567 57.5443 133.976 62.9868L133.911 63.1777H123.396C123.245 60.1634 122.575 57.9211 121.386 56.4507C120.197 54.9804 118.146 54.2486 115.232 54.2553C114.099 54.2195 112.976 54.4711 111.966 54.9868C110.957 55.5025 110.095 56.2653 109.46 57.2043C108.056 59.1737 107.355 61.7509 107.355 64.936V74.6973C107.355 77.9059 108.12 80.4999 109.651 82.4793C110.386 83.4457 111.345 84.2199 112.444 84.736C113.544 85.2521 114.752 85.4948 115.966 85.4433C118.558 85.4433 120.4 84.7517 121.492 83.3685C122.584 81.9853 123.2 79.7848 123.341 76.7672L133.82 76.7621Z" fill="#1C752E"/>
<path d="M174.483 76.7621L174.548 76.953C174.331 82.3989 172.72 86.5553 169.715 89.4222C166.711 92.2892 162.347 93.7243 156.623 93.7276C150.886 93.7276 146.221 91.9643 142.627 88.4375C139.033 84.9108 137.236 80.3291 137.236 74.6923V64.9963C137.236 59.3863 138.963 54.8096 142.416 51.2661C145.869 47.7227 150.36 45.9543 155.89 45.961C161.758 45.961 166.244 47.438 169.349 50.392C172.453 53.346 174.207 57.5443 174.609 62.9868L174.548 63.1777H164.054C163.906 60.1634 163.236 57.9211 162.044 56.4507C160.852 54.9804 158.8 54.2486 155.89 54.2553C154.757 54.2209 153.634 54.4731 152.625 54.9887C151.616 55.5042 150.753 56.2664 150.117 57.2043C148.714 59.1737 148.012 61.7509 148.012 64.936V74.6973C148.012 77.9059 148.778 80.4999 150.308 82.4793C151.044 83.4457 152.003 84.2199 153.102 84.736C154.202 85.2521 155.41 85.4948 156.623 85.4433C159.216 85.4433 161.059 84.75 162.15 83.3685C163.24 81.9869 163.853 79.7865 164.003 76.7672L174.483 76.7621Z" fill="#1C752E"/>
<path d="M207.986 73.1919H189.79V84.7719H211.252V93.0612H178.979V46.6309H211.317V54.9202H189.79V64.9026H207.986V73.1919Z" fill="#1C752E"/>
<path d="M239.476 80.751C239.517 80.0353 239.391 79.3199 239.108 78.6609C238.826 78.002 238.395 77.4174 237.849 76.953C236.763 76.0638 234.834 75.1143 232.016 74.1196C226.148 72.2674 221.794 70.2847 218.954 68.1713C216.114 66.058 214.7 63.0018 214.714 59.0028C214.714 55.111 216.398 51.9644 219.768 49.563C223.137 47.1616 227.416 45.9609 232.604 45.9609C237.748 45.9609 241.963 47.2839 245.249 49.9298C246.813 51.1185 248.064 52.6699 248.895 54.4501C249.725 56.2304 250.11 58.186 250.016 60.1483L249.951 60.3392H239.506C239.537 59.4947 239.385 58.6536 239.061 57.8733C238.736 57.093 238.248 56.3918 237.627 55.8177C236.372 54.6555 234.638 54.0761 232.428 54.0795C230.217 54.0828 228.518 54.5618 227.329 55.5163C226.761 55.9112 226.296 56.4368 225.973 57.0488C225.651 57.6607 225.48 58.3412 225.475 59.033C225.47 59.6945 225.641 60.3454 225.969 60.9197C226.297 61.494 226.772 61.9714 227.344 62.3035C228.586 63.1207 230.919 64.1472 234.342 65.3831C239.614 66.9539 243.584 68.8881 246.253 71.1856C248.923 73.4832 250.262 76.6399 250.272 80.6556C250.272 84.7383 248.685 87.9335 245.51 90.2411C242.335 92.5487 238.12 93.7008 232.865 93.6975C227.59 93.6975 223.03 92.3745 219.185 89.7286C215.34 87.0828 213.468 83.2713 213.568 78.2944L213.634 78.1035H224.123C224.123 80.7862 224.847 82.6953 226.294 83.8457C227.741 84.9962 229.931 85.5689 232.865 85.5689C235.095 85.5689 236.758 85.1218 237.854 84.2275C238.374 83.813 238.792 83.2832 239.074 82.68C239.355 82.0768 239.493 81.4165 239.476 80.751Z" fill="#1C752E"/>
<path d="M279.406 80.751C279.447 80.0353 279.321 79.3199 279.038 78.6609C278.756 78.002 278.325 77.4174 277.779 76.953C276.693 76.0638 274.764 75.1143 271.941 74.1196C266.073 72.2674 261.719 70.2847 258.879 68.1713C256.039 66.058 254.625 63.0018 254.639 59.0028C254.639 55.111 256.323 51.9644 259.693 49.563C263.062 47.1616 267.341 45.9609 272.529 45.9609C277.673 45.9609 281.888 47.2839 285.174 49.9298C286.737 51.119 287.988 52.6706 288.819 54.4507C289.649 56.2308 290.034 58.1861 289.941 60.1483L289.876 60.3392H279.436C279.467 59.4942 279.315 58.6526 278.99 57.8721C278.665 57.0916 278.174 56.3907 277.552 55.8177C276.3 54.6555 274.568 54.0761 272.358 54.0795C270.147 54.0828 268.451 54.5651 267.269 55.5263C266.702 55.9224 266.239 56.4484 265.917 57.0602C265.596 57.672 265.425 58.3518 265.42 59.043C265.416 59.7039 265.586 60.3543 265.913 60.9285C266.24 61.5027 266.713 61.9805 267.284 62.3135C268.53 63.1308 270.864 64.1573 274.287 65.3932C279.555 66.9639 283.524 68.8981 286.194 71.1957C288.863 73.4933 290.203 76.6499 290.213 80.6656C290.213 84.7484 288.623 87.9435 285.445 90.2511C282.267 92.5587 278.05 93.7176 272.795 93.7276C267.523 93.7276 262.963 92.4047 259.115 89.7588C255.267 87.1129 253.396 83.3015 253.503 78.3245L253.569 78.1336H264.058C264.058 80.8164 264.782 82.7254 266.229 83.8759C267.676 85.0263 269.861 85.5991 272.795 85.5991C275.029 85.5991 276.693 85.1519 277.789 84.2577C278.312 83.8387 278.73 83.3038 279.011 82.6952C279.292 82.0866 279.427 81.421 279.406 80.751Z" fill="#1C752E"/>
<path d="M280.153 80.3359L280.605 92.8001C280.61 93.1491 280.684 93.4938 280.823 93.8138C280.963 94.1338 281.165 94.4227 281.417 94.6634C281.67 94.9042 281.969 95.0919 282.295 95.2156C282.621 95.3393 282.969 95.3965 283.318 95.3838C283.667 95.371 284.01 95.2887 284.326 95.1415C284.643 94.9943 284.927 94.7853 285.161 94.5267C285.396 94.2682 285.576 93.9654 285.692 93.6361C285.808 93.3067 285.856 92.9576 285.835 92.6092L285.393 80.3359H280.153Z" fill="#0A0A0B"/>
<path d="M221.747 95.1159L219.627 93.9453L219.311 100.647C219.708 100.566 220.06 100.34 220.3 100.013C220.539 99.686 220.649 99.2818 220.607 98.8787L220.521 98.0699C220.527 97.9406 220.565 97.8146 220.631 97.7034C220.697 97.5921 220.79 97.499 220.901 97.4323C221.012 97.3657 221.137 97.3275 221.267 97.3213C221.396 97.3151 221.525 97.341 221.642 97.3967L221.747 95.1159Z" fill="#0A0A0B"/>
<path d="M259.481 89.3075L254.206 85.6351L227.494 69.8301L226.143 71.6437L232.774 77.6271C235.366 80.0624 238.248 82.1683 241.355 83.8968L244.194 85.3136L252.734 93.1759L242.184 97.632C242.184 97.632 233.669 95.3311 228.951 95.2658L221.747 95.1L221.642 97.3859L240.978 102.359C241.847 102.624 242.767 102.667 243.656 102.485L250.187 101.018C252.739 100.556 258.522 100.099 258.522 100.099L259.481 89.3075Z" fill="#FFAC70"/>
<path d="M226.189 71.6661L223.812 71.1637L227.912 65.8535C228.16 66.1727 228.282 66.5726 228.253 66.9761C228.225 67.3796 228.047 67.7582 227.756 68.0389L227.168 68.6016C227.089 68.7029 227.037 68.8222 227.015 68.9489C226.993 69.0756 227.003 69.2057 227.044 69.3275C227.085 69.4494 227.155 69.5593 227.249 69.6474C227.342 69.7355 227.456 69.799 227.58 69.8324L226.189 71.6661Z" fill="#0A0A0B"/>
<path d="M279.958 94.5586L281.36 89.9518L270.619 87.5554L263.113 79.7383L261.591 81.2555L268.428 90.9063L268.875 91.5343L279.958 94.5586Z" fill="#FFDCC1"/>
<path d="M261.591 81.2572C260.946 81.1804 260.326 80.9607 259.777 80.6141L259.114 80.1118C258.727 79.7149 258.531 79.4235 258.792 78.9362L259.576 77.429L258.069 76.0374C258.019 75.9883 257.98 75.9292 257.954 75.864C257.928 75.7988 257.917 75.729 257.919 75.659C257.922 75.5889 257.94 75.5203 257.971 75.4574C258.002 75.3945 258.045 75.3388 258.099 75.2939C258.18 75.2303 258.278 75.1928 258.38 75.1865C258.482 75.1802 258.584 75.2054 258.672 75.2587L260.812 76.6202L261.008 76.7207C261.391 76.9244 261.742 77.1815 262.053 77.4843C262.656 77.9867 263.128 79.7299 263.128 79.7299L261.591 81.2572Z" fill="#8E3C00"/>
<path d="M280.038 85.13L276.747 83.3968L273.833 82.2563L262.133 71.4551L260.626 72.9622L271.346 85.8484C268.513 88.1393 265.318 90.0383 261.595 89.556L259.495 89.2897L258.551 100.066L267.483 101.814C274.557 102.437 281.138 97.5087 283.142 90.6964C283.376 89.9377 283.566 89.166 283.71 88.3854L280.038 85.13Z" fill="#FFDCC1"/>
<path d="M260.612 72.9809C259.967 72.9041 259.348 72.6844 258.799 72.3379L258.135 71.8355C257.749 71.4386 257.553 71.1472 257.814 70.6599L258.598 69.1528L257.09 67.7612C257.04 67.712 257.001 67.6529 256.976 67.5878C256.95 67.5226 256.938 67.4527 256.941 67.3827C256.944 67.3127 256.961 67.244 256.992 67.1812C257.023 67.1183 257.067 67.0626 257.121 67.0176C257.202 66.9548 257.3 66.9182 257.402 66.9128C257.505 66.9074 257.606 66.9335 257.693 66.9875L259.833 68.3439L260.029 68.4444C260.412 68.6482 260.764 68.9053 261.074 69.208C261.677 69.7104 262.149 71.4537 262.149 71.4537L260.612 72.9809Z" fill="#8E3C00"/>
<path d="M286.77 77.707C286.946 76.034 285.635 73.9441 283.535 73.1855C282.549 72.8278 281.474 72.7969 280.469 73.0972C279.464 73.3976 278.582 74.0133 277.954 74.8534L277.743 75.1398C276.904 76.2601 276.492 78.7318 276.778 80.1084L277.888 83.7406L277.667 87.7597L281.521 86.3882L282.475 83.9617L283.882 84.0822C284.516 84.1282 285.143 83.9226 285.628 83.5099C286.112 83.0972 286.414 82.5105 286.469 81.8768L286.564 80.7765L286.77 77.707Z" fill="#8E3C00"/>
<path d="M286.594 75.4728C286.145 74.3142 285.312 73.3447 284.234 72.7258C283.156 72.1069 281.899 71.876 280.671 72.0717C279.914 72.1942 279.191 72.4756 278.55 72.8975C277.91 73.3194 277.365 73.8721 276.953 74.5194C276.541 75.1667 276.271 75.8938 276.16 76.653C276.05 77.4122 276.101 78.1862 276.311 78.9242C276.612 79.9692 277.451 82.2098 277.451 82.2098L278.843 79.517L286.594 75.4728Z" fill="#0A0A0B"/>
<path d="M280.492 79.5212C280.471 79.7618 280.379 79.9908 280.228 80.1793C280.077 80.3678 279.874 80.5072 279.644 80.5801C279.413 80.6529 279.167 80.6558 278.935 80.5884C278.703 80.521 278.496 80.3864 278.341 80.2015C278.185 80.0166 278.088 79.7898 278.062 79.5498C278.036 79.3097 278.081 79.0672 278.192 78.853C278.304 78.6387 278.476 78.4623 278.688 78.3461C278.9 78.2298 279.141 78.179 279.381 78.1999C279.704 78.228 280.002 78.383 280.21 78.6307C280.418 78.8785 280.52 79.1988 280.492 79.5212Z" fill="#8E3C00"/>
<path d="M284.47 81.2308C284.445 81.5126 284.31 81.7731 284.093 81.9549C283.876 82.1367 283.596 82.225 283.314 82.2004C283.033 82.1758 282.772 82.0402 282.59 81.8235C282.409 81.6068 282.32 81.3267 282.345 81.0449" fill="#291100"/>
<path d="M266.912 88.7656L269.002 91.1419C269.324 91.5066 269.744 91.7702 270.213 91.9005L279.703 94.0055L269.605 92.4381C269.197 92.3265 268.849 92.0596 268.635 91.6945L266.912 88.7656Z" fill="#3A3A41"/>
<path d="M271.238 87.9922L271.866 88.5448L280.447 88.9819L271.238 87.9922Z" fill="#3A3A41"/>
<path d="M83.1748 44.4339L83.431 46.5841H89.9871C89.8915 46.2005 89.6563 45.8664 89.3273 45.6471C88.9984 45.4279 88.5995 45.3392 88.2087 45.3985L87.4199 45.514C86.8724 45.514 85.1994 44.9262 85.4104 44.4238L83.1748 44.4339Z" fill="#8E3C00"/>
<path d="M69.4148 45.5214L79.161 38.3775L83.1801 45.9635L86.1492 44.2755L81.5524 34.1976C81.4034 33.8706 81.1889 33.5777 80.9221 33.3371C80.6553 33.0965 80.3418 32.9132 80.0013 32.7988C79.6607 32.6843 79.3002 32.641 78.9422 32.6717C78.5842 32.7023 78.2363 32.8062 77.9201 32.9768L67.0938 38.8145L69.4148 45.5214Z" fill="#0A0A0B"/>
<path d="M67.1288 72.4316L65.5664 74.2653L72.0371 75.9132C72.0367 75.5104 71.8871 75.1222 71.617 74.8234C71.347 74.5246 70.9758 74.3365 70.5752 74.2955L69.7663 74.2201C69.642 74.1871 69.5277 74.1242 69.4332 74.0369C69.3388 73.9495 69.2672 73.8404 69.2246 73.7191C69.182 73.5977 69.1697 73.4677 69.1888 73.3405C69.2079 73.2134 69.2579 73.0928 69.3343 72.9893L67.1288 72.4316Z" fill="#8E3C00"/>
<path d="M58.2207 41.8672V42.7011C58.2207 43.9363 58.7114 45.1208 59.5847 45.9942C60.4581 46.8676 61.6427 47.3582 62.8778 47.3582L70.0318 56.4012L66.4347 72.161L70.1172 73.1657L75.0003 56.0847C75.2318 55.2734 75.1604 54.4056 74.7994 53.6431L69.2028 41.8672H58.2207Z" fill="#737381"/>
<path d="M69.4189 23.4008H61.8831C60.9195 23.4007 59.973 23.6559 59.14 24.1404C58.307 24.6248 57.6171 25.3213 57.1406 26.1589L53.5234 34.1216V45.5207H57.0401V35.5333L58.2308 32.2176V42.8682H71.7097L70.5693 29.3038L75.975 34.3276C76.248 34.6075 76.5836 34.8185 76.9541 34.9432C77.3246 35.0679 77.7195 35.1027 78.1062 35.0448C78.4928 34.9869 78.8602 34.8379 79.1779 34.6102C79.4957 34.3824 79.7548 34.0824 79.9338 33.7348L84.6863 24.5362L82.3151 23.0742L78.1151 29.8966L73.2973 25.0184C72.7897 24.506 72.1856 24.0993 71.5199 23.8216C70.8542 23.544 70.1401 23.4009 69.4189 23.4008Z" fill="#1C752E"/>
<path d="M71.1434 14.8714C71.1736 13.103 69.6061 11.0331 67.3354 10.4202C66.2674 10.1354 65.1362 10.2013 64.1086 10.6084C63.081 11.0154 62.2114 11.742 61.6283 12.681L61.4323 12.9975C61.0477 13.6183 60.7994 14.3139 60.7042 15.038C60.6089 15.7621 60.6687 16.4982 60.8797 17.1974L62.3869 20.91L62.4823 23.4219L64.723 25.5119L66.8179 23.4018L66.7275 20.7091H68.737C69.4069 20.6985 70.0458 20.425 70.5157 19.9475C70.9857 19.47 71.249 18.8269 71.2489 18.1569V16.9663L71.1434 14.8714Z" fill="#8E3C00"/>
<path d="M64.1748 13.4703C64.1748 13.4703 71.0474 14.048 72.2129 10.245L71.605 10.0792C70.4423 9.79169 69.3126 9.38425 68.234 8.86341C67.0033 8.23928 65.5886 8.0805 64.2501 8.41629C63.4642 8.61192 62.7286 8.97203 62.0921 9.47286C61.4555 9.97369 60.9324 10.6038 60.5574 11.3217C60.1823 12.0396 59.9637 12.8289 59.9161 13.6374C59.8686 14.446 59.993 15.2554 60.2813 16.0123C60.7355 17.34 61.3036 18.6258 61.9794 19.8556L64.1748 13.4703Z" fill="#0A0A0B"/>
<path d="M64.7177 16.2529C64.7177 16.5073 64.6423 16.7559 64.501 16.9674C64.3596 17.1789 64.1588 17.3438 63.9238 17.4411C63.6888 17.5384 63.4302 17.5639 63.1807 17.5143C62.9312 17.4647 62.7021 17.3422 62.5222 17.1623C62.3423 16.9824 62.2198 16.7533 62.1702 16.5038C62.1206 16.2543 62.1461 15.9957 62.2434 15.7607C62.3407 15.5257 62.5056 15.3249 62.7171 15.1835C62.9286 15.0422 63.1772 14.9668 63.4316 14.9668C63.7727 14.9668 64.0998 15.1023 64.341 15.3435C64.5822 15.5847 64.7177 15.9118 64.7177 16.2529Z" fill="#8E3C00"/>
<path d="M69.0529 17.9746C69.0631 18.1284 69.0418 18.2826 68.99 18.4278C68.9382 18.5729 68.8572 18.7059 68.7519 18.8185C68.6466 18.931 68.5194 19.0208 68.378 19.0821C68.2366 19.1434 68.0841 19.1751 67.93 19.1751C67.7759 19.1751 67.6234 19.1434 67.4821 19.0821C67.3407 19.0208 67.2134 18.931 67.1082 18.8185C67.0029 18.7059 66.9219 18.5729 66.8701 18.4278C66.8183 18.2826 66.7969 18.1284 66.8072 17.9746" fill="#3E1A00"/>
<path d="M56.9049 50.5952C57.0488 50.5952 57.1868 50.538 57.2885 50.4362C57.3903 50.3345 57.4475 50.1965 57.4475 50.0526V47.6813L56.3623 46.8926V50.0526C56.3623 50.1965 56.4195 50.3345 56.5212 50.4362C56.623 50.538 56.761 50.5952 56.9049 50.5952Z" fill="#8E3C00"/>
<path d="M55.7902 51.0925C55.8606 51.0932 55.9304 51.0799 55.9956 51.0534C56.0608 51.027 56.1201 50.9878 56.17 50.9383C56.22 50.8888 56.2597 50.8299 56.2868 50.7649C56.3139 50.7 56.3278 50.6303 56.3278 50.56L56.363 46.8926H55.2627L55.2276 50.5449C55.2268 50.6183 55.241 50.6911 55.2692 50.7589C55.2974 50.8266 55.3391 50.8879 55.3917 50.9391C55.4443 50.9903 55.5067 51.0303 55.5752 51.0567C55.6437 51.083 55.7169 51.0952 55.7902 51.0925Z" fill="#8E3C00"/>
<path d="M54.7594 50.5952C54.8962 50.585 55.0241 50.5234 55.1174 50.4227C55.2106 50.322 55.2622 50.1898 55.2618 50.0526V46.8926H54.1817V50.0526C54.1808 50.1271 54.1954 50.201 54.2246 50.2696C54.2537 50.3382 54.2969 50.3999 54.3512 50.451C54.4055 50.502 54.4699 50.5411 54.5402 50.566C54.6104 50.5908 54.6851 50.6007 54.7594 50.5952Z" fill="#8E3C00"/>
<path d="M53.6588 49.098C53.8023 49.0967 53.9395 49.0391 54.041 48.9377C54.1425 48.8362 54.2 48.699 54.2014 48.5555V46.8926H53.1162V48.5555C53.1175 48.699 53.1751 48.8362 53.2766 48.9377C53.378 49.0391 53.5153 49.0967 53.6588 49.098Z" fill="#8E3C00"/>
<path d="M53.1162 47.526V46.4559L53.5332 45.5215L56.4068 45.4512L56.452 45.4914C56.7814 45.8062 57.041 46.1866 57.2141 46.608C57.3872 47.0295 57.4699 47.4826 57.4568 47.938H57.5372L53.1162 47.526Z" fill="#8E3C00"/>
<path d="M82.3906 23.1079L82.687 21.038V19.3852C82.687 19.252 82.74 19.1242 82.8342 19.03C82.9284 18.9357 83.0562 18.8828 83.1894 18.8828C83.3227 18.8828 83.4504 18.9357 83.5447 19.03C83.6389 19.1242 83.6918 19.252 83.6918 19.3852L83.5662 21.239L86.7714 23.3641L84.7217 24.4894L82.3906 23.1079Z" fill="#8E3C00"/>
<path d="M83.8983 23.4023H86.8473C87.0665 23.4023 87.2441 23.2247 87.2441 23.0055V17.2381C87.2441 17.0189 87.0665 16.8412 86.8473 16.8412H83.8983C83.6791 16.8412 83.5014 17.0189 83.5014 17.2381V23.0055C83.5014 23.2247 83.6791 23.4023 83.8983 23.4023Z" fill="#0A0A0B"/>
<path d="M84.8365 22.2906C84.8494 22.4236 84.9113 22.547 85.0102 22.6368C85.1092 22.7265 85.238 22.7763 85.3715 22.7763C85.5051 22.7763 85.6339 22.7265 85.7328 22.6368C85.8317 22.547 85.8937 22.4236 85.9066 22.2906C85.9138 22.216 85.9054 22.1407 85.8818 22.0695C85.8582 21.9984 85.82 21.9329 85.7696 21.8774C85.7192 21.8219 85.6577 21.7776 85.5892 21.7472C85.5206 21.7169 85.4465 21.7012 85.3715 21.7012C85.2966 21.7012 85.2224 21.7169 85.1539 21.7472C85.0853 21.7776 85.0239 21.8219 84.9735 21.8774C84.9231 21.9329 84.8849 21.9984 84.8613 22.0695C84.8377 22.1407 84.8293 22.216 84.8365 22.2906Z" fill="#004C8D"/>
<path d="M83.5014 22.2871H87.2441V17.7305H83.5014V22.2871Z" fill="#FF9445"/>
<path d="M174.758 26.017L178.381 25.8312L178.34 25.0273L174.718 25.2132C174.665 25.2159 174.614 25.2289 174.566 25.2515C174.518 25.2741 174.475 25.306 174.44 25.3452C174.405 25.3843 174.377 25.4301 174.359 25.4799C174.342 25.5297 174.334 25.5824 174.336 25.6352C174.339 25.688 174.352 25.7398 174.375 25.7875C174.397 25.8353 174.429 25.8781 174.468 25.9135C174.508 25.949 174.553 25.9764 174.603 25.9941C174.653 26.0119 174.706 26.0197 174.758 26.017Z" fill="#8E3C00"/>
<path d="M179.009 26.9026L178.442 26.8072C176.835 26.8985 175.309 27.5449 174.126 28.6359L174.036 28.7162C173.966 28.7792 173.884 28.8262 173.795 28.8541C173.705 28.882 173.611 28.8899 173.518 28.8775C173.425 28.8651 173.336 28.8325 173.257 28.7821C173.178 28.7317 173.111 28.6646 173.061 28.5856C172.989 28.4723 172.954 28.3392 172.961 28.2049C172.968 28.0706 173.017 27.942 173.101 27.8371C174.171 26.497 175.7 25.6019 177.392 25.3251L179.276 25.0137L179.009 26.9026Z" fill="#8E3C00"/>
<path d="M199.17 23.5059L177.176 25.0884L177.849 28.8562L199.17 28.2132V23.5059Z" fill="#FFAC70"/>
<path d="M211.143 49.0014C211.074 49.0055 211.004 48.9956 210.938 48.9725C210.872 48.9494 210.812 48.9134 210.76 48.8667C210.708 48.82 210.666 48.7634 210.636 48.7003C210.606 48.6372 210.589 48.5688 210.586 48.499L210.45 46.183L211.721 45.2988L211.671 48.4036C211.674 48.5513 211.622 48.6948 211.524 48.8056C211.426 48.9164 211.29 48.9863 211.143 49.0014Z" fill="#8E3C00"/>
<path d="M212.263 49.424C212.192 49.4318 212.121 49.4246 212.054 49.4028C211.986 49.3811 211.924 49.3453 211.871 49.2979C211.819 49.2504 211.777 49.1924 211.748 49.1275C211.719 49.0627 211.705 48.9925 211.705 48.9216L211.459 45.3446L212.514 45.2793L212.76 48.8512C212.766 48.9218 212.758 48.9928 212.736 49.0601C212.715 49.1274 212.679 49.1897 212.633 49.2431C212.587 49.2965 212.53 49.3401 212.466 49.3712C212.403 49.4022 212.333 49.4202 212.263 49.424Z" fill="#8E3C00"/>
<path d="M213.257 48.8758C213.116 48.8827 212.978 48.8339 212.873 48.7399C212.768 48.6459 212.704 48.5143 212.695 48.3734L212.509 45.2888L213.569 45.2285L213.75 48.3182C213.757 48.457 213.709 48.593 213.617 48.6972C213.525 48.8014 213.396 48.8655 213.257 48.8758Z" fill="#8E3C00"/>
<path d="M214.226 47.348C214.156 47.3558 214.085 47.3486 214.017 47.3269C213.95 47.3052 213.887 47.2694 213.835 47.2219C213.782 47.1745 213.74 47.1164 213.711 47.0516C213.683 46.9867 213.668 46.9165 213.669 46.8456L213.573 45.2129L214.648 45.5294L214.724 46.7753C214.73 46.8458 214.722 46.9168 214.7 46.9842C214.678 47.0515 214.643 47.1137 214.596 47.1671C214.55 47.2206 214.493 47.2641 214.43 47.2952C214.366 47.3263 214.297 47.3442 214.226 47.348Z" fill="#8E3C00"/>
<path d="M214.664 45.7818V45.4905C214.634 44.9961 214.5 44.5135 214.273 44.0737L214.157 43.8477L211.349 43.9481C211.046 44.2618 210.811 44.6349 210.66 45.044C210.508 45.453 210.443 45.889 210.469 46.3244V46.445L214.664 45.7818Z" fill="#8E3C00"/>
<path d="M208.453 79.9199L208.87 81.0101L209.212 83.1352L208.031 84.783H203.51C203.61 84.3865 203.855 84.0417 204.195 83.816C204.536 83.5902 204.949 83.4997 205.354 83.5622L206.167 83.6828C206.298 83.683 206.427 83.6508 206.543 83.5892C206.658 83.5275 206.756 83.4382 206.829 83.3293C206.902 83.2204 206.946 83.0952 206.959 82.965C206.971 82.8347 206.951 82.7033 206.901 82.5826L206.549 80.5127L208.453 79.9199Z" fill="#0A0A0B"/>
<path d="M195.187 62.7012L196.262 64.9016H189.479C189.58 64.5048 189.824 64.1595 190.165 63.9329C190.506 63.7063 190.919 63.6147 191.323 63.6758L192.137 63.8014C192.268 63.8016 192.397 63.7694 192.512 63.7078C192.628 63.6461 192.726 63.5568 192.799 63.4479C192.871 63.339 192.916 63.2139 192.928 63.0836C192.941 62.9533 192.921 62.8219 192.871 62.7012H195.187Z" fill="#0A0A0B"/>
<path d="M209.017 46.2689L197.271 40.1348L202.416 52.192L206.676 81.275L208.877 80.9987L209.329 74.3974C209.682 70.8228 209.589 67.2182 209.052 63.6664L208.439 60.5265L209.595 52.7496C209.906 50.6597 209.901 48.2282 209.017 46.2689Z" fill="#8E3C00"/>
<path d="M201.246 43.5862L191.766 40.2654C191.324 40.1099 190.849 40.076 190.389 40.1674C189.93 40.2587 189.503 40.472 189.154 40.7848C188.805 41.0976 188.547 41.4985 188.407 41.9454C188.266 42.3923 188.248 42.8688 188.355 43.325L192.876 62.7019H195.192L195.363 55.4224C195.382 52.3077 194.736 49.2249 193.469 46.3795C193.469 46.3795 196.594 52.2121 202.422 52.2121L201.246 43.5862Z" fill="#8E3C00"/>
<path d="M195.825 29.1381L195.096 32.0067C194.979 32.4586 194.993 32.9343 195.135 33.3788C195.277 33.8233 195.543 34.2185 195.9 34.5186L196.985 35.438L196.83 38.3618L196.629 41.979C197.781 43.6953 199.406 45.0415 201.306 45.8554C203.207 46.6692 205.302 46.9159 207.339 46.5658L209.017 46.2794L206.897 38.0906L207.455 30.5548L209.801 35.0763C209.982 35.4254 210.097 35.8054 210.138 36.1966L211.002 43.883L214.282 43.9433L213.398 34.8602C213.327 34.1234 213.093 33.4115 212.715 32.7753L209.947 27.4752C209.524 26.6547 208.934 25.9319 208.215 25.3531C207.496 24.7742 206.664 24.3523 205.772 24.1142C205.036 23.8991 204.277 23.771 203.511 23.7324H198.593C197.833 23.8315 197.086 24.0152 196.367 24.28L195.825 29.1381Z" fill="#FFAC70"/>
<path d="M194.749 15.3279C194.714 13.238 196.935 10.7211 199.899 10.7562C200.772 10.7788 201.625 11.0207 202.38 11.4597C203.135 11.8987 203.768 12.5206 204.219 13.2681L204.35 13.4842C205.124 14.8959 205.32 16.5527 204.897 18.1061L202.888 21.2309L203.089 23.8433L202.642 24.3457C202.391 24.6191 202.077 24.8279 201.728 24.9543C201.379 25.0807 201.005 25.1209 200.637 25.0716C200.269 25.0223 199.918 24.8848 199.615 24.671C199.312 24.4572 199.064 24.1732 198.894 23.8433V21.5776H197.186C196.525 21.5696 195.894 21.3015 195.429 20.8313C194.965 20.3611 194.704 19.7267 194.704 19.0657V17.87L194.749 15.3279Z" fill="#8E3C00"/>
<path d="M196.814 18.8633C196.814 19.1577 196.931 19.4401 197.14 19.6484C197.348 19.8566 197.63 19.9735 197.925 19.9735C198.219 19.9735 198.502 19.8566 198.71 19.6484C198.918 19.4401 199.035 19.1577 199.035 18.8633" fill="#3E1A00"/>
<path d="M204.706 30.2419C205.063 30.0699 205.364 29.8002 205.574 29.4641C205.784 29.1279 205.894 28.7392 205.892 28.3429L205.847 14.1003C205.797 12.8887 205.35 11.7272 204.574 10.7948C203.799 9.86245 202.739 9.21097 201.556 8.94082C200.215 8.56405 198.78 8.71153 197.543 9.35335C196.306 9.99517 195.359 11.0833 194.895 12.3972C194.757 12.7461 194.673 13.1135 194.644 13.4874C194.644 13.4874 198.316 15.8335 201.466 15.8335L201.687 28.3931C201.695 28.7454 201.791 29.09 201.967 29.3954C202.142 29.7009 202.392 29.9573 202.692 30.1413C202.993 30.3253 203.335 30.4309 203.686 30.4485C204.038 30.4661 204.389 30.395 204.706 30.2419Z" fill="#0A0A0B"/>
<path d="M8.86806 99.6367L7.82812 101.767H14.3893C14.2936 101.382 14.0576 101.047 13.7276 100.828C13.3975 100.609 12.9974 100.521 12.6058 100.581L11.8171 100.702C11.6905 100.702 11.566 100.67 11.4545 100.61C11.343 100.551 11.248 100.464 11.1779 100.359C11.1078 100.253 11.0648 100.132 11.0527 100.006C11.0407 99.8805 11.0599 99.7535 11.1087 99.6367H8.86806Z" fill="#0A0A0B"/>
<path d="M18.5872 99.6367L17.9844 101.767H24.1135C24.0167 101.382 23.7797 101.047 23.4489 100.828C23.118 100.608 22.7172 100.52 22.325 100.581L21.5413 100.702C21.4147 100.702 21.2902 100.67 21.1787 100.61C21.0672 100.551 20.9722 100.464 20.9021 100.359C20.832 100.253 20.789 100.132 20.7769 100.006C20.7649 99.8805 20.7841 99.7535 20.8329 99.6367H18.5872Z" fill="#0A0A0B"/>
<path d="M16.4286 62.6074H9.62134L8.61657 65.5012C7.75714 67.3687 7.46204 69.4466 7.76754 71.4795L8.88284 79.0153L8.29002 82.0547C7.77656 85.4924 7.69218 88.9805 8.03883 92.439L8.87781 99.6532H11.1184L14.7256 70.957L16.4286 62.6074Z" fill="#FFAC70"/>
<path d="M15.8392 62.6074L20.4511 66.2497L24.7867 77.9151C25.0126 78.77 25.023 79.6676 24.8168 80.5275L20.843 99.6181H18.5872L18.4215 92.5847C18.2707 87.9728 20.1296 79.5478 20.1296 79.5478L14.7139 70.942L15.8392 62.6074Z" fill="#FF8733"/>
<path d="M22.15 47.7255C21.3864 46.6555 20.0802 45.5251 17.3472 45.5452C15.6793 45.5452 11.1076 46.2837 11.1076 46.2837C10.1125 46.2842 9.13535 46.5485 8.27574 47.0498C7.41614 47.5511 6.70484 48.2714 6.2144 49.1372L0.431961 57.8084C-0.417069 59.0895 -8.96229e-05 60.5012 1.50706 61.4657L8.13351 66.7408L11.2734 66.2987L20.4771 66.2484L20.2058 56.3515C20.1304 53.7994 19.8642 50.5941 20.9443 48.7403C21.0684 48.5 21.2388 48.2866 21.4457 48.1124C21.6527 47.9383 21.892 47.8068 22.15 47.7255ZM7.31462 61.9932L4.11946 59.0242L7.31462 55.3668V61.9932Z" fill="#0A0A0B"/>
<path d="M20.6626 36.7134C20.6927 34.8847 19.075 32.7446 16.7239 32.1166C15.6223 31.8213 14.4548 31.8886 13.3944 32.3084C12.334 32.7282 11.4369 33.4783 10.8359 34.4477L10.635 34.7742C10.2336 35.4142 9.97357 36.1324 9.8722 36.881C9.77083 37.6296 9.8305 38.3912 10.0472 39.1148L11.6096 43.7066V46.2637L11.8407 46.5802C12.0993 46.9326 12.4467 47.21 12.8475 47.3843C13.2482 47.5587 13.6881 47.6236 14.1221 47.5725C14.5562 47.5215 14.9689 47.3562 15.3183 47.0937C15.6677 46.8311 15.9412 46.4806 16.111 46.0778V43.4152L18.1205 43.4755C18.813 43.4649 19.4736 43.1824 19.9596 42.6889C20.4456 42.1954 20.7179 41.5306 20.7178 40.838V38.8737L20.6626 36.7134Z" fill="#8E3C00"/>
<path d="M18.5075 40.6562C18.5075 40.8087 18.4775 40.9596 18.4192 41.1004C18.3609 41.2412 18.2754 41.3691 18.1676 41.4769C18.0599 41.5846 17.9319 41.6701 17.7911 41.7284C17.6503 41.7867 17.4994 41.8168 17.347 41.8168C17.1946 41.8168 17.0437 41.7867 16.9029 41.7284C16.7621 41.6701 16.6342 41.5846 16.5264 41.4769C16.4187 41.3691 16.3332 41.2412 16.2749 41.1004C16.2165 40.9596 16.1865 40.8087 16.1865 40.6562" fill="#522200"/>
<path d="M14.3871 66.3508C14.4241 66.2875 14.4483 66.2175 14.4583 66.1448C14.4682 66.0721 14.4637 65.9982 14.4451 65.9273C14.4264 65.8563 14.3939 65.7898 14.3495 65.7314C14.3051 65.673 14.2496 65.624 14.1862 65.5871L12.056 64.3613L10.79 64.919L13.6185 66.5567C13.6825 66.5937 13.7531 66.6177 13.8264 66.6273C13.8996 66.637 13.9741 66.6321 14.0454 66.613C14.1168 66.5938 14.1837 66.5608 14.2424 66.5158C14.301 66.4709 14.3502 66.4148 14.3871 66.3508Z" fill="#8E3C00"/>
<path d="M14.271 67.5803C14.3402 67.4507 14.3575 67.2996 14.3192 67.1578C14.2809 67.0159 14.1901 66.8939 14.0651 66.8167L10.8046 64.8926L10.2168 65.8973L13.4873 67.8215C13.5542 67.8588 13.628 67.8821 13.7042 67.8902C13.7804 67.8982 13.8574 67.8907 13.9307 67.8682C14.0039 67.8457 14.0718 67.8085 14.1303 67.7591C14.1888 67.7096 14.2367 67.6488 14.271 67.5803Z" fill="#8E3C00"/>
<path d="M13.2738 68.285C13.3464 68.1557 13.365 68.0028 13.3255 67.8598C13.286 67.7168 13.1916 67.5952 13.0628 67.5214L10.2344 65.8887L9.67676 66.8583L12.5052 68.491C12.5692 68.528 12.6398 68.552 12.7131 68.5616C12.7863 68.5712 12.8608 68.5664 12.9322 68.5472C13.0035 68.5281 13.0705 68.4951 13.1291 68.4501C13.1877 68.4051 13.2369 68.349 13.2738 68.285Z" fill="#8E3C00"/>
<path d="M11.3737 68.4785C11.4106 68.4149 11.4345 68.3447 11.444 68.2718C11.4536 68.1989 11.4487 68.1249 11.4295 68.0539C11.4104 67.9829 11.3774 67.9164 11.3325 67.8583C11.2876 67.8001 11.2316 67.7514 11.1678 67.7149L9.94194 67.0065C9.87327 66.9661 9.79138 66.9545 9.71418 66.9743C9.63699 66.994 9.57076 67.0436 9.52998 67.112L9.27377 67.5592C9.25327 67.5933 9.23985 67.6312 9.23432 67.6706C9.22879 67.71 9.23125 67.7502 9.24157 67.7886C9.25188 67.8271 9.26984 67.863 9.29436 67.8944C9.31888 67.9257 9.34946 67.9518 9.38429 67.9711L10.6101 68.6795C10.6734 68.7165 10.7434 68.7407 10.8161 68.7506C10.8888 68.7606 10.9627 68.7561 11.0336 68.7374C11.1045 68.7188 11.1711 68.6863 11.2295 68.6419C11.2878 68.5974 11.3369 68.5419 11.3737 68.4785Z" fill="#8E3C00"/>
<path d="M9.68589 68.1474L8.73135 67.5947L8.1084 66.7407L9.54522 64.1383H9.6055C10.0569 64.0076 10.5308 63.9731 10.9964 64.0372C11.462 64.1012 11.909 64.2623 12.3083 64.5101L12.3586 64.4448L9.68589 68.1474Z" fill="#8E3C00"/>
<path d="M13.6651 30.8788C15.0356 30.4903 16.5025 30.6374 17.7685 31.2905C19.0345 31.9435 20.0047 33.0536 20.4825 34.3955C20.6205 34.7547 20.7051 35.1321 20.7337 35.5158L18.5533 35.6666L17.7596 34.2498L17.4129 35.7218L13.6099 35.9881L11.1733 42.3834C10.3795 41.0471 10.063 39.6454 9.66614 38.5653C9.37376 37.8006 9.24681 36.9825 9.29368 36.1652C9.34054 35.3478 9.56015 34.5496 9.93803 33.8233C10.3159 33.097 10.8435 32.459 11.4859 31.9515C12.1283 31.4439 12.8711 31.0784 13.6651 30.8788Z" fill="#291100"/>
<path d="M13.4983 38.8795C13.4983 39.0902 13.4358 39.2961 13.3188 39.4712C13.2018 39.6464 13.0354 39.7829 12.8408 39.8635C12.6462 39.9441 12.432 39.9652 12.2254 39.9241C12.0188 39.883 11.8291 39.7816 11.6801 39.6326C11.5312 39.4837 11.4297 39.2939 11.3886 39.0873C11.3475 38.8807 11.3686 38.6665 11.4492 38.4719C11.5298 38.2773 11.6664 38.111 11.8415 37.9939C12.0167 37.8769 12.2226 37.8145 12.4332 37.8145C12.7157 37.8145 12.9866 37.9267 13.1863 38.1264C13.3861 38.3261 13.4983 38.597 13.4983 38.8795Z" fill="#8E3C00"/>
<path d="M152.554 36.3979L151.117 35.7196C150.181 35.2714 149.39 34.5686 148.835 33.6917C148.28 32.8147 147.982 31.7991 147.978 30.7611V28.1738H152.293V29.5001H149.309V30.7611C149.311 31.5476 149.536 32.3174 149.956 32.9822C150.376 33.6469 150.976 34.1796 151.685 34.5189L153.122 35.2022L152.554 36.3979Z" fill="#FF8733"/>
<path d="M160.261 36.3979L161.698 35.7196C162.634 35.2714 163.425 34.5686 163.98 33.6917C164.536 32.8147 164.833 31.7991 164.838 30.7611V28.1738H160.527V29.5001H163.511V30.7611C163.509 31.5483 163.284 32.3187 162.863 32.9836C162.442 33.6485 161.841 34.1808 161.13 34.5189L159.693 35.2022L160.261 36.3979Z" fill="#FF8733"/>
<path d="M155.142 38.8029V42.8973L152.53 44.9069V45.9116H160.367V44.9069L157.755 42.8973V38.8029C160.367 38.4663 161.673 36.6025 161.673 34.3468V27.1777H151.219V34.3468C151.219 36.6025 153.183 38.4663 155.142 38.8029Z" fill="#FFAC70"/>
<path d="M154.15 32.8291C154.147 32.3635 154.283 31.9074 154.539 31.5188C154.796 31.1302 155.162 30.8265 155.591 30.6462C156.021 30.466 156.494 30.4172 156.951 30.5062C157.408 30.5953 157.828 30.818 158.159 31.1462C158.489 31.4744 158.714 31.8933 158.806 32.3498C158.898 32.8063 158.853 33.2798 158.675 33.7103C158.498 34.1408 158.196 34.5089 157.809 34.7679C157.422 35.0269 156.967 35.1652 156.502 35.1652C155.881 35.1639 155.286 34.9178 154.846 34.4805C154.406 34.0431 154.156 33.4497 154.15 32.8291Z" fill="#D6F6DD"/>
<path d="M258.617 17.0293H244.776V33.6431H258.617V17.0293Z" fill="#FFAC70"/>
<path d="M258.617 22.502H244.776V28.1739H258.617V22.502Z" fill="#8E3C00"/>
<path d="M244.933 27.8867V33.644L250.142 27.8867H244.933Z" fill="#CC5600"/>
<path d="M233.161 8.43945H231.046V46.0178H233.161V8.43945Z" fill="#0A0A0B"/>
<path d="M250.252 11.5547H231.046V28.1685H250.252V11.5547Z" fill="#FFAC70"/>
<path d="M250.252 17.0312H231.046V22.7032H250.252V17.0312Z" fill="#8E3C00"/>
<path d="M233.85 7.53458C233.849 7.88014 233.746 8.21766 233.553 8.50451C233.36 8.79135 233.087 9.01465 232.767 9.14621C232.448 9.27776 232.096 9.31167 231.758 9.24364C231.419 9.17562 231.108 9.00871 230.864 8.76401C230.62 8.51931 230.454 8.20779 230.387 7.86879C230.32 7.52979 230.355 7.17852 230.487 6.85935C230.62 6.54019 230.844 6.26744 231.131 6.07555C231.418 5.88367 231.756 5.78126 232.102 5.78126C232.332 5.78059 232.56 5.82552 232.773 5.91346C232.986 6.0014 233.179 6.1306 233.341 6.29361C233.504 6.45662 233.632 6.65021 233.72 6.86321C233.807 7.0762 233.851 7.30438 233.85 7.53458Z" fill="#0A0A0B"/>
<path d="M118.448 13.875L119.639 16.5577L122.558 16.8592L120.372 18.8134L120.985 21.682L118.448 20.2101L115.911 21.682L116.529 18.8134L114.344 16.8592L117.263 16.5577L118.448 13.875Z" fill="#F46600"/>
<path d="M117.829 13.875L119.326 16.5577L122.401 16.8592L120.291 18.8134L120.637 21.682L117.829 20.2101V13.875Z" fill="#FF8733"/>
<path d="M129.875 0L132.025 4.85303L137.301 5.39058L133.352 8.93239L134.467 14.122L129.875 11.4544L125.289 14.122L126.404 8.93239L122.455 5.39058L127.73 4.85303L129.875 0Z" fill="#F46600"/>
<path d="M129.887 0L132.027 4.85303L137.302 5.39058L133.353 8.93239L134.468 14.122L129.887 11.4544V0Z" fill="#FF8733"/>
<path d="M171.72 102.591H168.887L171.273 89.6094H174.106L171.72 102.591Z" fill="#0A0A0B"/>
<path d="M182.612 102.591H185.445L183.064 89.6094H180.226L182.612 102.591Z" fill="#0A0A0B"/>
<path d="M185.636 93.217C190.313 88.5397 190.313 80.9564 185.636 76.2791C180.959 71.6019 173.376 71.6019 168.698 76.2791C164.021 80.9564 164.021 88.5397 168.698 93.217C173.376 97.8942 180.959 97.8942 185.636 93.217Z" fill="#F46600"/>
<path d="M177.165 93.7289C182.126 93.7289 186.148 89.7073 186.148 84.7463C186.148 79.7853 182.126 75.7637 177.165 75.7637C172.204 75.7637 168.183 79.7853 168.183 84.7463C168.183 89.7073 172.204 93.7289 177.165 93.7289Z" fill="#1C752E"/>
<path d="M181.754 85.8241C182.353 83.2884 180.782 80.7477 178.247 80.1492C175.711 79.5507 173.17 81.1211 172.572 83.6568C171.973 86.1925 173.544 88.7332 176.08 89.3317C178.615 89.9302 181.156 88.3597 181.754 85.8241Z" fill="#8E3C00"/>
<path d="M178.854 83.3139L189.912 73.9395" stroke="#FFDCC1" stroke-width="1.00477" stroke-miterlimit="10"/>
<path d="M178.327 82.2344L177.166 84.7463L179.844 83.9676L178.327 82.2344Z" fill="#FFDCC1"/>
</g>
<defs>
<clipPath id="clip0_288_9845">
<rect width="295" height="102.592" fill="white"/>
</clipPath>
</defs>
</svg>
