<svg width="100" height="100" viewBox="0 0 100 100" fill="none" xmlns="http://www.w3.org/2000/svg">
<path d="M17.2558 89.5176C-0.826164 79.0776 -0.826164 62.1496 17.2558 51.7176C35.3378 41.2856 64.6558 41.2776 82.7438 51.7176C100.832 62.1576 100.826 79.0856 82.7438 89.5176C64.6618 99.9496 35.3398 99.9596 17.2558 89.5176Z" fill="#D6F6DD"/>
<path d="M31.7285 90.0251C39.5754 90.0251 45.9365 86.3529 45.9365 81.8231C45.9365 77.2932 39.5754 73.6211 31.7285 73.6211C23.8816 73.6211 17.5205 77.2932 17.5205 81.8231C17.5205 86.3529 23.8816 90.0251 31.7285 90.0251Z" fill="#9BE8AC"/>
<path d="M64.5669 77.9885C74.419 72.6748 80.2621 64.3928 77.6178 59.4901C74.9735 54.5874 64.8432 54.9205 54.9911 60.2342C45.139 65.5479 39.2959 73.8299 41.9402 78.7326C44.5845 83.6353 54.7148 83.3022 64.5669 77.9885Z" fill="#9BE8AC"/>
<path d="M74.3701 66.3434C76.3401 63.9954 79.4261 62.4654 82.8961 61.5614C86.3241 60.6714 86.9381 58.5614 84.6661 57.8794C82.0921 57.1034 78.8801 58.5274 76.8081 60.5094C73.2001 63.9634 72.7461 66.6014 72.7461 66.6014L74.3701 66.3434Z" fill="#9BE8AC"/>
<path opacity="0.15" d="M74.3701 66.3434C76.3401 63.9954 79.4261 62.4654 82.8961 61.5614C86.3241 60.6714 86.9381 58.5614 84.6661 57.8794C82.0921 57.1034 78.8801 58.5274 76.8081 60.5094C73.2001 63.9634 72.7461 66.6014 72.7461 66.6014L74.3701 66.3434Z" fill="#1B1B1E"/>
<path d="M73.3561 66.1991C73.3416 66.2021 73.3266 66.2021 73.3121 66.1991C73.3003 66.1934 73.2897 66.1853 73.281 66.1755C73.2722 66.1656 73.2655 66.1541 73.2613 66.1417C73.257 66.1292 73.2552 66.116 73.2561 66.1029C73.2569 66.0898 73.2603 66.0769 73.2661 66.0651C76.1901 60.0651 82.6661 58.5891 84.2341 58.7011C84.2603 58.7032 84.2846 58.7154 84.3018 58.7353C84.319 58.7551 84.3278 58.7809 84.3261 58.8071C84.3236 58.8335 84.3109 58.8578 84.2907 58.875C84.2706 58.8921 84.2445 58.9008 84.2181 58.8991C82.6821 58.7831 76.3241 60.2451 73.4461 66.1531C73.4363 66.1678 73.4228 66.1797 73.4071 66.1878C73.3913 66.1958 73.3738 66.1997 73.3561 66.1991Z" fill="#F4F4F5"/>
<path d="M72.7461 66.9651C72.7462 67.0616 72.7719 67.1563 72.8205 67.2396C72.8692 67.3229 72.939 67.3918 73.0229 67.4394C73.1069 67.487 73.2019 67.5114 73.2984 67.5103C73.3948 67.5092 73.4893 67.4826 73.5721 67.4331C75.4041 66.3671 78.0761 65.7771 82.4001 67.0091C84.7001 67.6631 85.8321 67.2251 86.3161 66.2891C86.8561 65.2491 85.7161 64.2431 84.4161 63.7691C79.9901 62.1511 75.9961 63.2551 72.7461 66.4831V66.9651Z" fill="#9BE8AC"/>
<path d="M73.0003 67.0538C72.9861 67.054 72.972 67.0513 72.9589 67.0458C72.9458 67.0403 72.934 67.0321 72.9243 67.0218C72.9058 67.0028 72.8955 66.9773 72.8955 66.9508C72.8955 66.9243 72.9058 66.8988 72.9243 66.8798C76.7463 63.4638 82.6663 64.1298 84.9063 65.4618C84.929 65.4751 84.9455 65.4969 84.9522 65.5224C84.959 65.5479 84.9554 65.575 84.9423 65.5978C84.9285 65.6206 84.9064 65.6372 84.8806 65.6439C84.8548 65.6506 84.8274 65.647 84.8043 65.6338C82.6043 64.3278 76.8043 63.6778 73.0583 67.0338C73.0413 67.0459 73.0211 67.0529 73.0003 67.0538Z" fill="#F4F4F5"/>
<path d="M29.9841 74.9286C28.3041 72.3646 25.4201 70.4806 22.0801 69.1746C18.7841 67.8866 18.4221 65.7206 20.7581 65.3086C23.4061 64.8426 26.4281 66.6366 28.2521 68.8486C31.4281 72.7046 31.5661 75.3826 31.5661 75.3826L29.9841 74.9286Z" fill="#9BE8AC"/>
<path opacity="0.15" d="M29.9841 74.9286C28.3041 72.3646 25.4201 70.4806 22.0801 69.1746C18.7841 67.8866 18.4221 65.7206 20.7581 65.3086C23.4061 64.8426 26.4281 66.6366 28.2521 68.8486C31.4281 72.7046 31.5661 75.3826 31.5661 75.3826L29.9841 74.9286Z" fill="#1B1B1E"/>
<path d="M30.9996 74.9117C31.0141 74.9145 31.029 74.9145 31.0436 74.9117C31.0685 74.9026 31.089 74.8842 31.1006 74.8603C31.1121 74.8364 31.1139 74.8089 31.1056 74.7837C28.9056 68.4817 22.6576 66.2517 21.0816 66.1837C21.0554 66.1826 21.0298 66.1918 21.0103 66.2094C20.9909 66.227 20.9791 66.2515 20.9776 66.2777C20.977 66.3043 20.9866 66.3301 21.0045 66.3498C21.0223 66.3695 21.047 66.3816 21.0736 66.3837C22.6136 66.4477 28.7536 68.6497 30.9156 74.8557C30.9233 74.8716 30.9352 74.8852 30.95 74.8951C30.9647 74.9049 30.9819 74.9106 30.9996 74.9117Z" fill="#F4F4F5"/>
<path d="M31.5796 75.2591C31.5639 75.4012 31.5119 75.5369 31.4285 75.6531C31.3451 75.7692 31.2331 75.8619 31.1035 75.9223C30.9738 75.9826 30.8308 76.0084 30.6883 75.9974C30.5457 75.9863 30.4084 75.9387 30.2896 75.8591C28.5936 74.7231 26.0676 73.9851 21.9296 74.6591C19.5696 75.0371 18.4976 74.4591 18.1296 73.4811C17.7176 72.3851 18.9696 71.5231 20.3156 71.2051C24.9016 70.1211 28.7376 71.6891 31.5836 75.2751L31.5796 75.2591Z" fill="#9BE8AC"/>
<path d="M31.2635 75.7994C31.2775 75.8014 31.2917 75.8002 31.3052 75.7961C31.3187 75.7919 31.3311 75.7849 31.3415 75.7754C31.36 75.7564 31.3703 75.7309 31.3703 75.7044C31.3703 75.6779 31.36 75.6524 31.3415 75.6334C27.9415 71.7914 21.9915 71.7534 19.6095 72.8114C19.5851 72.8223 19.566 72.8424 19.5565 72.8673C19.5469 72.8923 19.5477 72.92 19.5585 72.9444C19.5694 72.9688 19.5895 72.9879 19.6145 72.9974C19.6394 73.007 19.6671 73.0063 19.6915 72.9954C22.0255 71.9574 27.8655 71.9954 31.1915 75.7654C31.2002 75.7761 31.2112 75.7847 31.2237 75.7906C31.2361 75.7965 31.2497 75.7995 31.2635 75.7994Z" fill="#F4F4F5"/>
<path d="M76.1644 29.2339L76.1324 29.2179L68.5084 24.8299L68.4624 24.8079C64.9004 23.0079 60.1484 23.5499 55.0364 26.8539C44.7684 33.4939 36.9444 48.7779 37.5604 60.9919C37.8664 67.0779 40.2144 71.2519 43.7604 73.0879L43.7904 73.1039L51.4164 77.4939L51.4524 77.5139C55.0144 79.3139 59.7704 78.7799 64.8864 75.4719C75.1544 68.8319 82.9784 53.5479 82.3624 41.3339C82.0604 35.2439 79.7124 31.0699 76.1644 29.2339Z" fill="#1C752E"/>
<path d="M51.1541 77.3523L43.8001 73.1003L43.7641 73.0783C40.2181 71.2383 37.8721 67.0643 37.5641 60.9863C37.2901 55.5383 38.6961 49.4843 41.2441 43.8623L41.2941 43.7383L48.8701 48.2503C46.3181 53.8723 44.9161 59.9263 45.1901 65.3743C45.4801 71.3323 47.7341 75.4563 51.1541 77.3523Z" fill="#1C752E"/>
<path d="M64.8905 75.466C75.1585 68.826 82.9825 53.542 82.3665 41.328C81.7505 29.114 72.9265 24.598 62.6585 31.238C52.3905 37.878 44.5645 53.162 45.1805 65.374C45.7965 77.586 54.6225 82.106 64.8905 75.466Z" fill="#158E37"/>
<path d="M73.5859 28.2852L60.7159 54.7992L57.9459 51.7992C57.1199 50.9392 55.9897 50.4375 54.7979 50.4018C53.6061 50.3661 52.4478 50.7992 51.5718 51.6081C50.6959 52.417 50.1721 53.5372 50.113 54.7281C50.0539 55.919 50.4643 57.0855 51.2559 57.9772L58.5539 65.8832C59.3563 66.755 60.4685 67.2777 61.6519 67.3392C61.7359 67.3392 61.8199 67.3392 61.9039 67.3392C62.1247 67.339 62.3453 67.3229 62.5639 67.2912C63.2985 67.1842 63.9957 66.899 64.5947 66.4604C65.1937 66.0218 65.6761 65.4432 65.9999 64.7752L80.7599 34.3752C79.2459 30.9992 76.7259 28.9072 73.5859 28.2852Z" fill="#1C752E"/>
<path d="M84.0386 19.5535C83.9586 19.5075 83.8746 19.4635 83.7906 19.4235C82.8473 18.9664 81.7612 18.9022 80.7706 19.2449C79.78 19.5876 78.9657 20.3092 78.5066 21.2515L62.1306 54.9835L61.1986 53.9835C60.9295 53.6896 60.6165 53.4393 60.2706 53.2415C59.7826 52.9615 57.7066 51.7595 57.3706 51.5655C56.5516 51.0917 55.5899 50.9273 54.66 51.1021C53.7301 51.2769 52.8938 51.7793 52.3028 52.5182C51.7118 53.2571 51.4053 54.1834 51.439 55.1289C51.4728 56.0745 51.8444 56.9766 52.4866 57.6715L59.7846 65.5755C60.0582 65.8724 60.3759 66.1254 60.7266 66.3255C61.2026 66.5955 63.2706 67.7955 63.6106 67.9915C64.0808 68.2638 64.6022 68.4363 65.1421 68.4981C65.682 68.5599 66.2289 68.5098 66.7486 68.3509C67.2683 68.1919 67.7496 67.9275 68.1625 67.5742C68.5754 67.2209 68.9111 66.7863 69.1486 66.2975L88.5226 26.3915C88.9581 25.4921 89.0376 24.4613 88.7449 23.5057C88.4522 22.5502 87.8091 21.7407 86.9446 21.2395L84.0386 19.5535Z" fill="#9BE8AC"/>
<path opacity="0.15" d="M84.0386 19.5535C83.9586 19.5075 83.8746 19.4635 83.7906 19.4235C82.8473 18.9664 81.7612 18.9022 80.7706 19.2449C79.78 19.5876 78.9657 20.3092 78.5066 21.2515L62.1306 54.9835L61.1986 53.9835C60.9295 53.6896 60.6165 53.4393 60.2706 53.2415C59.7826 52.9615 57.7066 51.7595 57.3706 51.5655C56.5516 51.0917 55.5899 50.9273 54.66 51.1021C53.7301 51.2769 52.8938 51.7793 52.3028 52.5182C51.7118 53.2571 51.4053 54.1834 51.439 55.1289C51.4728 56.0745 51.8444 56.9766 52.4866 57.6715L59.7846 65.5755C60.0582 65.8724 60.3759 66.1254 60.7266 66.3255C61.2026 66.5955 63.2706 67.7955 63.6106 67.9915C64.0808 68.2638 64.6022 68.4363 65.1421 68.4981C65.682 68.5599 66.2289 68.5098 66.7486 68.3509C67.2683 68.1919 67.7496 67.9275 68.1625 67.5742C68.5754 67.2209 68.9111 66.7863 69.1486 66.2975L88.5226 26.3915C88.9581 25.4921 89.0376 24.4613 88.7449 23.5057C88.4522 22.5502 87.8091 21.7407 86.9446 21.2395L84.0386 19.5535Z" fill="#1B1B1E"/>
<path opacity="0.15" d="M63.6006 67.9809C63.2646 67.7809 61.2006 66.5809 60.7186 66.3149C60.368 66.1147 60.0503 65.8617 59.7766 65.5649L52.4786 57.6609C52.1568 57.3098 51.9013 56.9032 51.7246 56.4609L54.6266 58.1349C54.8026 58.5785 55.0596 58.9855 55.3846 59.3349L62.6806 67.2389C62.9491 67.5302 63.2591 67.7803 63.6006 67.9809Z" fill="#1B1B1E"/>
<path opacity="0.15" d="M82.3259 21.7112C81.9446 22.0533 81.6335 22.4663 81.4099 22.9272L64.5659 57.6232L62.1299 54.9832L78.5059 21.2512C78.7291 20.7895 79.041 20.3763 79.4239 20.0352L82.3259 21.7112Z" fill="#1B1B1E"/>
<path d="M86.694 21.0979C85.7505 20.6419 84.6648 20.5783 83.6745 20.9209C82.6842 21.2635 81.87 21.9844 81.41 22.9259L64.566 57.6219L61.2 53.9739C60.4797 53.2422 59.5028 52.8195 58.4763 52.7955C57.4498 52.7714 56.4542 53.1478 55.7003 53.845C54.9465 54.5422 54.4936 55.5053 54.4375 56.5306C54.3815 57.5559 54.7267 58.5627 55.4 59.3379L62.696 67.2439C63.1328 67.7164 63.6782 68.0752 64.2851 68.2891C64.892 68.503 65.5419 68.5656 66.1784 68.4714C66.8149 68.3772 67.4188 68.1291 67.9377 67.7486C68.4566 67.3681 68.8748 66.8667 69.156 66.2879L88.53 26.3819C88.9865 25.4377 89.0496 24.3508 88.7054 23.36C88.3611 22.3693 87.6377 21.5557 86.694 21.0979Z" fill="#9BE8AC"/>
<path d="M71.9242 18.661L70.8022 18.999L69.9922 16.293L71.1102 15.957L71.9242 18.661Z" fill="#9BE8AC"/>
<path d="M75.426 16.2596C75.4353 16.3694 75.4095 16.4793 75.3524 16.5735C75.2952 16.6676 75.2096 16.7412 75.108 16.7836C75.1808 16.8663 75.2347 16.9639 75.2659 17.0696C75.3299 17.2696 75.1599 17.5596 74.8219 17.6696L72.256 18.4416L71.502 15.9276C71.502 15.9276 71.936 14.8176 71.958 14.6496C71.98 14.4816 71.724 13.8656 71.688 13.7496C71.652 13.6336 72.068 13.4816 72.396 13.6136C72.4722 13.6475 72.5404 13.6973 72.596 13.7596C72.7139 13.8853 72.813 14.0274 72.89 14.1816C72.9988 14.4014 73.0524 14.6444 73.046 14.8896L74.6 14.4156C74.7072 14.3768 74.8247 14.3768 74.932 14.4156C75.0022 14.4434 75.064 14.4888 75.1115 14.5475C75.159 14.6062 75.1905 14.6761 75.203 14.7506C75.2155 14.8251 75.2085 14.9015 75.1827 14.9724C75.157 15.0434 75.1133 15.1065 75.056 15.1556C75.1484 15.1489 75.2405 15.1735 75.3174 15.2253C75.3943 15.2772 75.4515 15.3534 75.4799 15.4416C75.5037 15.5442 75.4911 15.6519 75.4445 15.7463C75.3978 15.8408 75.3199 15.9161 75.2239 15.9596C75.3277 16.0296 75.4001 16.1372 75.426 16.2596Z" fill="#9BE8AC"/>
<path d="M87.9995 46.7203L86.5615 46.3743L87.3995 42.9062L88.8375 43.2523L87.9995 46.7203Z" fill="#9BE8AC"/>
<path d="M93.3538 46.3302C93.2941 46.4558 93.1961 46.5593 93.0739 46.6257C92.9518 46.6922 92.8117 46.7183 92.6738 46.7002C92.6997 46.8366 92.6963 46.9771 92.6638 47.1122C92.5998 47.3822 92.2338 47.5802 91.8018 47.4742L88.5098 46.6742L89.2858 43.4522C89.2858 43.4522 90.4678 42.5182 90.5978 42.3482C90.7278 42.1782 90.8398 41.3482 90.8758 41.1942C90.9118 41.0402 91.4618 41.1442 91.7358 41.4982C91.8023 41.5841 91.8487 41.6839 91.8718 41.7902C91.9204 42.0018 91.9379 42.2194 91.9238 42.4362C91.9021 42.7458 91.806 43.0456 91.6438 43.3102L93.6318 43.7902C93.7728 43.8201 93.8988 43.8987 93.9878 44.0122C94.037 44.0769 94.072 44.1514 94.0902 44.2308C94.1085 44.3101 94.1097 44.3923 94.0938 44.4722C94.0671 44.5773 94.0116 44.6729 93.9335 44.7482C93.8554 44.8234 93.7578 44.8754 93.6518 44.8982C93.757 44.9497 93.8418 45.0351 93.8926 45.1407C93.9434 45.2462 93.9572 45.3658 93.9318 45.4802C93.8912 45.6066 93.8085 45.7153 93.6975 45.7881C93.5865 45.8609 93.4539 45.8934 93.3218 45.8802C93.3906 46.0203 93.402 46.1817 93.3538 46.3302Z" fill="#9BE8AC"/>
<path d="M15.3643 44.6474L16.9343 45.1194L18.0703 41.3314L16.5023 40.8594L15.3643 44.6474Z" fill="#9BE8AC"/>
<path d="M10.4579 41.2821C10.4448 41.4359 10.481 41.59 10.5611 41.7219C10.6413 41.8538 10.7614 41.9569 10.9039 42.0161C10.8031 42.1324 10.7281 42.2687 10.6839 42.4161C10.5939 42.7101 10.8339 43.1041 11.3039 43.2441L14.9039 44.3261L15.9559 40.8001C15.9559 40.8001 15.3459 39.2441 15.3159 39.0001C15.2859 38.7561 15.6459 37.9041 15.6939 37.7401C15.7339 37.6081 15.1619 37.3661 14.6939 37.5521C14.5826 37.5957 14.4828 37.6641 14.4019 37.7521C14.2357 37.9307 14.0969 38.1329 13.9899 38.3521C13.8367 38.6627 13.7612 39.0059 13.7699 39.3521L11.6099 38.7001C11.4576 38.65 11.2924 38.6557 11.1439 38.7161C11.0455 38.7549 10.9588 38.8184 10.8922 38.9007C10.8257 38.9829 10.7816 39.081 10.7643 39.1854C10.747 39.2897 10.757 39.3968 10.7934 39.4961C10.8298 39.5954 10.8913 39.6836 10.9719 39.7521C10.8414 39.7409 10.7109 39.7744 10.6019 39.8471C10.4929 39.9198 10.4118 40.0273 10.3719 40.1521C10.3387 40.2961 10.3561 40.4472 10.4214 40.5798C10.4866 40.7125 10.5956 40.8185 10.7299 40.8801C10.5929 40.9761 10.496 41.1192 10.4579 41.2821Z" fill="#9BE8AC"/>
</svg>
