<svg width="24" height="24" viewBox="0 0 24 24" fill="none" xmlns="http://www.w3.org/2000/svg">
<path d="M4.81855 6.00039C4.81855 4.01289 6.43105 2.40039 8.41855 2.40039C10.4061 2.40039 12.0186 4.01289 12.0186 6.00039V12.1766C13.1248 13.1666 13.8186 14.6029 13.8186 16.2004C13.8186 19.1816 11.3998 21.6004 8.41855 21.6004C5.4373 21.6004 3.01855 19.1816 3.01855 16.2004C3.01855 14.6029 3.7123 13.1629 4.81855 12.1766V6.00039ZM8.41855 18.6004C9.7423 18.6004 10.8186 17.5241 10.8186 16.2004C10.8186 15.1916 10.1998 14.3291 9.31855 13.9766V12.9004C9.31855 12.4016 8.9173 12.0004 8.41855 12.0004C7.9198 12.0004 7.51855 12.4016 7.51855 12.9004V13.9766C6.6373 14.3329 6.01855 15.1954 6.01855 16.2004C6.01855 17.5241 7.0948 18.6004 8.41855 18.6004ZM18.8661 14.0479C18.6411 14.2729 18.3373 14.4004 18.0186 14.4004C17.6998 14.4004 17.3961 14.2729 17.1711 14.0479L14.7711 11.6479C14.3023 11.1791 14.3023 10.4179 14.7711 9.94914C15.2398 9.48039 16.0011 9.48039 16.4698 9.94914L16.8223 10.3016V3.60039C16.8223 2.93664 17.3586 2.40039 18.0223 2.40039C18.6861 2.40039 19.2223 2.93664 19.2223 3.60039V10.3016L19.5748 9.94914C20.0436 9.48039 20.8048 9.48039 21.2736 9.94914C21.7423 10.4179 21.7423 11.1791 21.2736 11.6479L18.8736 14.0479H18.8661Z" fill="#FFCFAD"/>
</svg>
