<svg width="24" height="24" viewBox="0 0 24 24" fill="none" xmlns="http://www.w3.org/2000/svg">
<path d="M6.83961 2.00703L5.91711 3.58578C5.77461 3.82953 5.69961 4.11078 5.69961 4.39578V4.50078C5.69961 5.32953 6.37086 6.00078 7.19961 6.00078C8.02836 6.00078 8.69961 5.32953 8.69961 4.50078V4.39578C8.69961 4.11078 8.62461 3.83328 8.48211 3.58578L7.55961 2.00703C7.48461 1.87953 7.34586 1.80078 7.19961 1.80078C7.05336 1.80078 6.91461 1.87953 6.83961 2.00703ZM11.6396 2.00703L10.7171 3.58578C10.5746 3.82953 10.4996 4.11078 10.4996 4.39578V4.50078C10.4996 5.32953 11.1709 6.00078 11.9996 6.00078C12.8284 6.00078 13.4996 5.32953 13.4996 4.50078V4.39578C13.4996 4.11078 13.4246 3.83328 13.2821 3.58578L12.3596 2.00703C12.2846 1.87953 12.1459 1.80078 11.9996 1.80078C11.8534 1.80078 11.7146 1.87953 11.6396 2.00703ZM15.5171 3.58578C15.3746 3.82953 15.2996 4.11078 15.2996 4.39578V4.50078C15.2996 5.32953 15.9709 6.00078 16.7996 6.00078C17.6284 6.00078 18.2996 5.32953 18.2996 4.50078V4.39578C18.2996 4.11078 18.2246 3.83328 18.0821 3.58578L17.1596 2.00703C17.0846 1.87953 16.9459 1.80078 16.7996 1.80078C16.6534 1.80078 16.5146 1.87953 16.4396 2.00703L15.5171 3.58578ZM8.39961 8.40078C8.39961 7.73703 7.86336 7.20078 7.19961 7.20078C6.53586 7.20078 5.99961 7.73703 5.99961 8.40078V10.407C4.60086 10.8983 3.59961 12.2333 3.59961 13.8008V14.5808C4.38336 14.6295 5.15961 14.8545 5.86086 15.2558L6.12711 15.4095C7.11336 15.972 8.33586 15.912 9.26211 15.252C10.9009 14.082 13.0984 14.082 14.7371 15.252C15.6596 15.912 16.8859 15.9758 17.8721 15.4095L18.1384 15.2558C18.8396 14.8545 19.6121 14.6295 20.3996 14.5808V13.8008C20.3996 12.2333 19.3984 10.8983 17.9996 10.407V8.40078C17.9996 7.73703 17.4634 7.20078 16.7996 7.20078C16.1359 7.20078 15.5996 7.73703 15.5996 8.40078V10.2008H13.1996V8.40078C13.1996 7.73703 12.6634 7.20078 11.9996 7.20078C11.3359 7.20078 10.7996 7.73703 10.7996 8.40078V10.2008H8.39961V8.40078ZM20.3996 16.3883C19.9234 16.4333 19.4584 16.5758 19.0309 16.8195L18.7646 16.9733C17.1671 17.8845 15.1871 17.787 13.6909 16.7183C12.6784 15.9945 11.3209 15.9945 10.3084 16.7183C8.81211 17.787 6.83211 17.8883 5.23461 16.9733L4.96836 16.8195C4.54086 16.5758 4.07586 16.4295 3.59961 16.3883V19.2008C3.59961 20.5245 4.67586 21.6008 5.99961 21.6008H17.9996C19.3234 21.6008 20.3996 20.5245 20.3996 19.2008V16.3883Z" fill="#FFCFAD"/>
</svg>
