<svg width="24" height="24" viewBox="0 0 24 24" fill="none" xmlns="http://www.w3.org/2000/svg">
<path d="M15.8101 20.1786C15.5501 20.1786 15.2801 20.1686 14.9901 20.1385C14.4701 20.0985 13.8801 19.9986 13.2701 19.8486L11.5901 19.4486C6.98007 18.3586 5.47007 15.9186 6.55007 11.3186L7.53007 7.12855C7.75007 6.17855 8.01007 5.40855 8.33007 4.76855C10.0501 1.21855 13.3401 1.53855 15.6801 2.08855L17.3501 2.47855C19.6901 3.02855 21.1701 3.89855 22.0001 5.22855C22.8201 6.55855 22.9501 8.26855 22.4001 10.6086L21.4201 14.7886C20.5601 18.4486 18.7701 20.1786 15.8101 20.1786ZM13.1201 3.24855C11.4501 3.24855 10.3901 3.93855 9.68007 5.41855C9.42007 5.95855 9.19007 6.62855 8.99007 7.46855L8.01007 11.6586C7.12007 15.4385 8.15007 17.0886 11.9301 17.9886L13.6101 18.3885C14.1501 18.5185 14.6601 18.5985 15.1201 18.6385C17.8401 18.9086 19.1901 17.7185 19.9501 14.4486L20.9301 10.2686C21.3801 8.33855 21.3201 6.98855 20.7201 6.01855C20.1201 5.04855 18.9401 4.38855 17.0001 3.93855L15.3301 3.54855C14.5001 3.34855 13.7601 3.24855 13.1201 3.24855Z" fill="#737381"/>
<path d="M8.33005 22.2516C5.76005 22.2516 4.12005 20.7116 3.07005 17.4616L1.79005 13.5116C0.370052 9.11164 1.64005 6.63164 6.02005 5.21164L7.60005 4.70164C8.12005 4.54164 8.51005 4.43164 8.86005 4.37164C9.15005 4.31164 9.43005 4.42164 9.60005 4.65164C9.77005 4.88164 9.80005 5.18164 9.68005 5.44164C9.42005 5.97164 9.19005 6.64164 9.00005 7.48164L8.02005 11.6716C7.13005 15.4516 8.16005 17.1016 11.9401 18.0016L13.6201 18.4016C14.1601 18.5316 14.6701 18.6116 15.1301 18.6516C15.4501 18.6816 15.7101 18.9016 15.8001 19.2116C15.8801 19.5216 15.7601 19.8416 15.5001 20.0216C14.8401 20.4716 14.0101 20.8516 12.9601 21.1916L11.3801 21.7116C10.2301 22.0716 9.23005 22.2516 8.33005 22.2516ZM7.78005 6.22164L6.49005 6.64164C2.92005 7.79164 2.07005 9.47164 3.22005 13.0516L4.50005 17.0016C5.66005 20.5716 7.34005 21.4316 10.9101 20.2816L12.4901 19.7616C12.5501 19.7416 12.6001 19.7216 12.6601 19.7016L11.6001 19.4516C6.99005 18.3616 5.48005 15.9216 6.56005 11.3216L7.54005 7.13164C7.61005 6.81164 7.69005 6.50164 7.78005 6.22164Z" fill="#737381"/>
<path d="M17.4904 10.5117C17.4304 10.5117 17.3704 10.5017 17.3004 10.4917L12.4504 9.26173C12.0504 9.16173 11.8104 8.75173 11.9104 8.35173C12.0104 7.95173 12.4204 7.71173 12.8204 7.81173L17.6704 9.04173C18.0704 9.14173 18.3104 9.55173 18.2104 9.95173C18.1304 10.2817 17.8204 10.5117 17.4904 10.5117Z" fill="#737381"/>
<path d="M14.5601 13.8889C14.5001 13.8889 14.4401 13.8789 14.3701 13.8689L11.4601 13.1289C11.0601 13.0289 10.8201 12.6189 10.9201 12.2189C11.0201 11.8189 11.4301 11.5789 11.8301 11.6789L14.7401 12.4189C15.1401 12.5189 15.3801 12.9289 15.2801 13.3289C15.2001 13.6689 14.9001 13.8889 14.5601 13.8889Z" fill="#737381"/>
</svg>
