<svg width="14" height="16" viewBox="0 0 14 16" fill="none" xmlns="http://www.w3.org/2000/svg">
<path d="M9.75998 12.8711C9.42012 12.8631 9.14675 12.5591 9.14675 12.1911C9.13936 11.8231 9.41273 11.5199 9.7526 11.5119H9.75998C10.1072 11.5119 10.388 11.8159 10.388 12.1911C10.388 12.5671 10.1072 12.8711 9.75998 12.8711ZM6.74555 9.92709C6.40568 9.94389 6.12493 9.65509 6.11015 9.28789C6.11015 8.91989 6.37613 8.61589 6.71599 8.59909C7.04847 8.59909 7.32184 8.87989 7.32922 9.23909C7.344 9.60789 7.07802 9.91189 6.74555 9.92709ZM6.74555 12.8311C6.40568 12.8479 6.12493 12.5591 6.11015 12.1911C6.11015 11.8231 6.37613 11.5199 6.71599 11.5031C7.04847 11.5031 7.32184 11.7839 7.32922 12.1439C7.344 12.5119 7.07802 12.8159 6.74555 12.8311ZM3.70894 9.92709C3.36908 9.94389 3.08832 9.65509 3.07355 9.28789C3.07355 8.91989 3.33953 8.61589 3.67939 8.59909C4.01186 8.59909 4.28523 8.87989 4.29262 9.23909C4.3074 9.60789 4.04142 9.91189 3.70894 9.92709ZM3.70155 12.8311C3.36169 12.8479 3.08093 12.5591 3.06616 12.1911C3.06616 11.8231 3.33214 11.5199 3.672 11.5031C4.00448 11.5031 4.27784 11.7839 4.28523 12.1439C4.30001 12.5119 4.03403 12.8159 3.70155 12.8311ZM9.15414 9.27989C9.15414 8.91189 9.42012 8.61589 9.75998 8.60789C10.0925 8.60789 10.3584 8.89509 10.3732 9.24789C10.3806 9.61589 10.1146 9.91989 9.78215 9.92709C9.44229 9.93509 9.16153 9.65509 9.15414 9.28789V9.27989ZM0 5.80469V11.8951C0 14.4231 1.49244 15.9991 3.83454 15.9991H9.61961C11.9839 15.9991 13.4615 14.4551 13.4615 11.9439V5.80469H0Z" fill="#FFAC70"/>
<path opacity="0.4" d="M0.00195312 5.80501C0.011558 5.33541 0.0484996 4.40341 0.11795 4.10341C0.47259 2.41621 1.67689 1.34421 3.39837 1.19141H10.0626C11.7693 1.35221 12.9884 2.43141 13.3431 4.10341C13.4118 4.39541 13.4487 5.33461 13.4583 5.80501H0.00195312Z" fill="#FFAC70"/>
<path d="M3.96734 3.672C4.29243 3.672 4.53624 3.4088 4.53624 3.056V0.6168C4.53624 0.264 4.29243 0 3.96734 0C3.64225 0 3.39844 0.264 3.39844 0.6168V3.056C3.39844 3.4088 3.64225 3.672 3.96734 3.672Z" fill="#FFAC70"/>
<path d="M9.49468 3.672C9.81238 3.672 10.0636 3.4088 10.0636 3.056V0.6168C10.0636 0.264 9.81238 0 9.49468 0C9.1696 0 8.92578 0.264 8.92578 0.6168V3.056C8.92578 3.4088 9.1696 3.672 9.49468 3.672Z" fill="#FFAC70"/>
</svg>
