<svg width="24" height="24" viewBox="0 0 24 24" fill="none" xmlns="http://www.w3.org/2000/svg">
<path d="M17.0002 6C16.3902 6 15.8302 5.65 15.5502 5.11L14.8302 3.66C14.3702 2.75 13.1702 2 12.1502 2H9.86017C8.83017 2 7.63017 2.75 7.17017 3.66L6.45017 5.11C6.17017 5.65 5.61017 6 5.00017 6C2.83017 6 1.11017 7.83 1.25017 9.99L1.77017 18.25C1.89017 20.31 3.00017 22 5.76017 22H16.2402C19.0002 22 20.1002 20.31 20.2302 18.25L20.7502 9.99C20.8902 7.83 19.1702 6 17.0002 6ZM9.50017 7.25H12.5002C12.9102 7.25 13.2502 7.59 13.2502 8C13.2502 8.41 12.9102 8.75 12.5002 8.75H9.50017C9.09017 8.75 8.75017 8.41 8.75017 8C8.75017 7.59 9.09017 7.25 9.50017 7.25ZM11.0002 18.12C9.14017 18.12 7.62017 16.61 7.62017 14.74C7.62017 12.87 9.13017 11.36 11.0002 11.36C12.8702 11.36 14.3802 12.87 14.3802 14.74C14.3802 16.61 12.8602 18.12 11.0002 18.12Z" fill="#FE6A00"/>
</svg>
