<svg width="24" height="24" viewBox="0 0 24 24" fill="none" xmlns="http://www.w3.org/2000/svg">
<path d="M9.25887 3.08703L10.1626 2.54328C10.9726 2.05578 11.8989 1.80078 12.8439 1.80078C14.2239 1.80078 15.5514 2.34828 16.5264 3.32703L18.9226 5.72328C19.4851 6.28578 19.8001 7.05078 19.8001 7.84578V9.00453L20.5389 9.74328C21.1239 9.15828 22.0726 9.15828 22.6614 9.74328C23.2501 10.3283 23.2464 11.277 22.6614 11.8658L20.2614 14.2658C19.6764 14.8508 18.7276 14.8508 18.1389 14.2658C17.5501 13.6808 17.5539 12.732 18.1389 12.1433L17.4001 11.4008H16.2414C15.4464 11.4008 14.6814 11.0858 14.1189 10.5233L12.2776 8.68203C11.7151 8.11953 11.4001 7.35453 11.4001 6.55953V6.08328C11.4001 5.66328 11.1789 5.26953 10.8189 5.05578L9.25887 4.11828C8.86887 3.88578 8.86887 3.32328 9.25887 3.09078V3.08703ZM1.90137 17.502L10.2301 9.17328L13.6239 12.567L5.29512 20.8958C4.35762 21.8333 2.83887 21.8333 1.90137 20.8958C0.963867 19.9583 0.963867 18.4395 1.90137 17.502Z" fill="#FFCFAD"/>
</svg>
