<svg width="24" height="24" viewBox="0 0 24 24" fill="none" xmlns="http://www.w3.org/2000/svg">
<path d="M22.4477 4.4468C22.9164 3.97805 22.9164 3.2168 22.4477 2.74805C21.9789 2.2793 21.2177 2.2793 20.7489 2.74805L13.5489 9.94805L12.2477 8.6468C12.0902 8.4893 11.8727 8.3993 11.6477 8.3993C11.1789 8.3993 10.8002 8.77805 10.8002 9.2468V10.338L14.8614 14.3993H15.9527C16.4214 14.3993 16.8002 14.0205 16.8002 13.5518C16.8002 13.3268 16.7102 13.1093 16.5527 12.9518L15.2514 11.6505L22.4514 4.45055L22.4477 4.4468ZM13.9914 15.6518L9.5477 11.208C7.94645 11.0693 6.3527 11.6468 5.2052 12.7943L4.9052 13.0943C4.06895 13.9305 3.6002 15.063 3.6002 16.2443C3.6002 16.4993 3.86645 16.6643 4.0952 16.5518L6.01145 15.5955C6.19895 15.5018 6.3677 15.7493 6.21395 15.8918L1.47395 20.1518C1.30145 20.3093 1.2002 20.5343 1.2002 20.7705C1.2002 21.228 1.57145 21.5993 2.02895 21.5993H8.5277C9.9827 21.5993 11.3739 21.0218 12.4052 19.9943C13.5527 18.8468 14.1264 17.253 13.9914 15.6518Z" fill="#FFCFAD"/>
</svg>
