<svg width="24" height="24" viewBox="0 0 24 24" fill="none" xmlns="http://www.w3.org/2000/svg">
<path d="M4.79625 2.94039C4.76625 2.63289 4.5075 2.40039 4.2 2.40039C3.8925 2.40039 3.63375 2.63289 3.6 2.93664L3.07125 8.01414C3.0225 8.23914 3 8.46789 3 8.69664C3 10.4179 4.31625 11.8316 6 11.9854V20.4004C6 21.0641 6.53625 21.6004 7.2 21.6004C7.86375 21.6004 8.4 21.0641 8.4 20.4004V11.9854C10.0837 11.8316 11.4 10.4179 11.4 8.69664C11.4 8.46789 11.3775 8.23914 11.3287 8.01414L10.7962 2.93664C10.7662 2.63289 10.5075 2.40039 10.2 2.40039C9.8925 2.40039 9.63375 2.63289 9.60375 2.94039L9.09375 8.02164C9.07125 8.23539 8.89125 8.40039 8.6775 8.40039C8.46 8.40039 8.28 8.23539 8.2575 8.01789L7.79625 2.94789C7.77 2.63664 7.51125 2.40039 7.2 2.40039C6.88875 2.40039 6.63 2.63664 6.60375 2.94789L6.1425 8.01789C6.12375 8.23539 5.94 8.40039 5.7225 8.40039C5.505 8.40039 5.325 8.23539 5.30625 8.02164L4.79625 2.94039ZM19.2 2.40039C18.6 2.40039 14.4 3.60039 14.4 9.00039V13.2004C14.4 14.5241 15.4762 15.6004 16.8 15.6004H18V20.4004C18 21.0641 18.5362 21.6004 19.2 21.6004C19.8637 21.6004 20.4 21.0641 20.4 20.4004V3.60039C20.4 2.93664 19.8637 2.40039 19.2 2.40039Z" fill="#FFCFAD"/>
</svg>
