<svg width="24" height="24" viewBox="0 0 24 24" fill="none" xmlns="http://www.w3.org/2000/svg">
<path d="M12 18.75C11.59 18.75 11.25 18.41 11.25 18V17C11.25 16.59 11.59 16.25 12 16.25C12.41 16.25 12.75 16.59 12.75 17V18C12.75 18.41 12.41 18.75 12 18.75Z" fill="#FE6A00"/>
<path d="M12 22.75C11.59 22.75 11.25 22.41 11.25 22V21C11.25 20.59 11.59 20.25 12 20.25C12.41 20.25 12.75 20.59 12.75 21V22C12.75 22.41 12.41 22.75 12 22.75Z" fill="#FE6A00"/>
<path d="M2.0001 22.7481C1.9401 22.7481 1.8801 22.7381 1.8201 22.7281C1.4201 22.6281 1.1701 22.2181 1.2701 21.8181L2.2701 17.8181C2.3701 17.4181 2.7701 17.1681 3.1801 17.2681C3.5801 17.3681 3.8301 17.7781 3.7301 18.1781L2.7301 22.1781C2.6401 22.5181 2.3401 22.7481 2.0001 22.7481Z" fill="#FE6A00"/>
<path d="M21.7526 22.5026C21.4126 22.5026 21.1126 22.2726 21.0226 21.9326L20.0226 17.9326C19.9226 17.5326 20.1626 17.1226 20.5726 17.0226C20.9726 16.9226 21.3826 17.1626 21.4826 17.5726L22.4826 21.5726C22.5826 21.9726 22.3426 22.3826 21.9326 22.4826C21.8726 22.4926 21.8126 22.5026 21.7526 22.5026Z" fill="#FE6A00"/>
<path d="M19.1402 5.3C19.1402 5.6 18.8902 5.84 18.6002 5.84H5.53023C5.23023 5.84 4.99023 5.59 4.99023 5.3C4.99023 5 5.24023 4.76 5.53023 4.76H6.27023L6.55023 3.45C6.81023 2.17 7.35023 1 9.51023 1H14.6002C16.7602 1 17.3102 2.17 17.5702 3.44L17.8502 4.75H18.5902C18.8902 4.75 19.1402 5 19.1402 5.3Z" fill="#FE6A00"/>
<path d="M19.4501 9.39969C19.3401 8.19969 19.0201 6.92969 16.6901 6.92969H7.43014C5.10014 6.92969 4.79014 8.20969 4.67014 9.39969L4.26014 13.8197C4.21014 14.3697 4.39014 14.9197 4.77014 15.3397C5.16014 15.7597 5.70014 15.9997 6.28014 15.9997H7.64014C8.82014 15.9997 9.04014 15.3297 9.19014 14.8797L9.34014 14.4397C9.51014 13.9397 9.55014 13.8197 10.2001 13.8197H13.9201C14.5701 13.8197 14.5901 13.8897 14.7801 14.4397L14.9301 14.8797C15.0701 15.3297 15.3001 15.9997 16.4701 15.9997H17.8301C18.4001 15.9997 18.9501 15.7597 19.3401 15.3397C19.7201 14.9297 19.9001 14.3697 19.8501 13.8197L19.4501 9.39969ZM9.88014 10.9197H7.71014C7.41014 10.9197 7.17014 10.6697 7.17014 10.3797C7.17014 10.0897 7.42014 9.83969 7.71014 9.83969H9.89014C10.1901 9.83969 10.4301 10.0897 10.4301 10.3797C10.4301 10.6697 10.1801 10.9197 9.88014 10.9197ZM16.4101 10.9197H14.2301C13.9301 10.9197 13.6901 10.6697 13.6901 10.3797C13.6901 10.0897 13.9401 9.83969 14.2301 9.83969H16.4101C16.7101 9.83969 16.9501 10.0897 16.9501 10.3797C16.9501 10.6697 16.7101 10.9197 16.4101 10.9197Z" fill="#FE6A00"/>
</svg>
