<svg width="24" height="24" viewBox="0 0 24 24" fill="none" xmlns="http://www.w3.org/2000/svg">
<path d="M22 9.25H2C1.59 9.25 1.25 8.91 1.25 8.5C1.25 8.09 1.59 7.75 2 7.75H22C22.41 7.75 22.75 8.09 22.75 8.5C22.75 8.91 22.41 9.25 22 9.25Z" fill="#737381"/>
<path d="M8 17.25H6C5.59 17.25 5.25 16.91 5.25 16.5C5.25 16.09 5.59 15.75 6 15.75H8C8.41 15.75 8.75 16.09 8.75 16.5C8.75 16.91 8.41 17.25 8 17.25Z" fill="#737381"/>
<path d="M14.5 17.25H10.5C10.09 17.25 9.75 16.91 9.75 16.5C9.75 16.09 10.09 15.75 10.5 15.75H14.5C14.91 15.75 15.25 16.09 15.25 16.5C15.25 16.91 14.91 17.25 14.5 17.25Z" fill="#737381"/>
<path d="M17.31 21.5H6.19C2.21 21.5 1 20.3 1 16.36V8.14C1 4.2 2.21 3 6.19 3H17.3C21.28 3 22.49 4.2 22.49 8.14V16.35C22.5 20.3 21.29 21.5 17.31 21.5ZM6.19 4.5C3.05 4.5 2.5 5.04 2.5 8.14V16.35C2.5 19.45 3.05 19.99 6.19 19.99H17.3C20.44 19.99 20.99 19.45 20.99 16.35V8.14C20.99 5.04 20.44 4.5 17.3 4.5H6.19Z" fill="#737381"/>
</svg>
