<svg width="24" height="24" viewBox="0 0 24 24" fill="none" xmlns="http://www.w3.org/2000/svg">
<path d="M8.39961 1.19922C9.06336 1.19922 9.59961 1.73547 9.59961 2.39922V5.99922H14.3996V2.39922C14.3996 1.73547 14.9359 1.19922 15.5996 1.19922C16.2634 1.19922 16.7996 1.73547 16.7996 2.39922V5.99922H19.1996C19.8634 5.99922 20.3996 6.53547 20.3996 7.19922C20.3996 7.86297 19.8634 8.39922 19.1996 8.39922V10.7992C19.1996 14.3655 16.6046 17.328 13.1996 17.898V20.3992C13.1996 21.063 12.6634 21.5992 11.9996 21.5992C11.3359 21.5992 10.7996 21.063 10.7996 20.3992V17.898C7.39461 17.328 4.79961 14.3655 4.79961 10.7992V8.39922C4.13586 8.39922 3.59961 7.86297 3.59961 7.19922C3.59961 6.53547 4.13586 5.99922 4.79961 5.99922H7.19961V2.39922C7.19961 1.73547 7.73586 1.19922 8.39961 1.19922Z" fill="#FFCFAD"/>
</svg>
