<svg width="117" height="100" viewBox="0 0 117 100" fill="none" xmlns="http://www.w3.org/2000/svg">
<g clip-path="url(#clip0_544_24208)">
<path d="M97.8139 27.8895L49.8701 41.4609L66.3411 99.9998L114.285 86.4284L97.8139 27.8895Z" fill="#FFAC70"/>
<path d="M104.712 26.5469H69.6318V87.9728H116.959V39.1184L104.712 26.5469Z" fill="url(#paint0_linear_544_24208)"/>
<path d="M103.887 29.7031V43.4818L116.88 39.1175L105.522 39.7717L103.887 29.7031Z" fill="#3E1A00"/>
<path d="M69.6406 87.682L117 49.2754L116.959 87.682" fill="#FFE6D6"/>
<path d="M94.5536 71.0137H76.7393V74.7807H94.5536V71.0137Z" fill="#FFF4EA"/>
<path d="M102.623 64.0371H76.7393V67.8073H102.623V64.0371Z" fill="#FFF4EA"/>
<path d="M102.623 56.2871H76.7393V60.0573H102.623V56.2871Z" fill="#FFF4EA"/>
<path d="M87.6124 26.4688C85.0918 47.6425 70.3053 60.4921 52.8218 60.4921C52.0656 60.4921 51.2685 60.135 50.3232 60.0876V63.5228C51.2685 63.5638 52.0656 63.9209 52.8218 63.9209C72.1926 63.9209 87.9464 49.507 90.5111 26.7216L87.6124 26.4688Z" fill="#FFF4EA"/>
<path d="M23.4258 58.2275L27.7801 54.5742L30.4015 57.8925L24.9602 61.6184L23.4258 58.2275Z" fill="#8E3C00"/>
<path d="M6.69821 80.2328L28.5518 62.6397C26.8756 57.0302 22.9687 55.5449 22.9687 55.5449L0.727539 73.0306C2.39429 74.0229 5.04092 75.8749 6.69821 80.2328Z" fill="#FE6A00"/>
<path d="M85.6248 14.1553C77.8488 -0.141745 57.9738 -4.29748 41.2307 4.86726C24.4877 14.032 17.2283 33.0504 25.0075 47.3443C32.7867 61.6381 52.6617 65.8002 69.4016 56.6323C86.1416 47.4644 93.4072 28.4428 85.6248 14.1553ZM66.6825 51.933C52.4128 59.7451 35.5688 56.3763 29.0562 44.4084C22.5436 32.4405 28.8294 16.4054 43.0991 8.5932C57.3689 0.781051 74.2128 4.14988 80.7254 16.1178C87.238 28.0857 80.9523 44.124 66.6825 51.933Z" fill="#FFCFAD"/>
<path d="M44.4259 12.4866C58.2892 5.07893 74.7361 8.45409 81.1826 20.0364C81.3926 20.4325 81.5974 20.8307 81.797 21.231C81.3794 19.8402 80.8132 18.4988 80.1082 17.2301C73.646 5.65094 57.1234 2.30739 43.1908 9.75927C29.2582 17.2112 23.1898 32.6332 29.6426 44.2061C29.7781 44.4494 29.9198 44.6769 30.0648 44.9076C25.2473 33.6129 31.3219 19.4865 44.4259 12.4866Z" fill="#8E3C00"/>
<path d="M89.7048 23.9492C91.2455 36.6977 83.6491 50.6534 69.8551 58.2064C53.1782 67.3364 33.5553 63.7748 25.0703 50.3911C25.405 51.2713 25.8118 52.1222 26.2865 52.9351C35.4237 67.3048 54.4353 71.8176 71.3927 62.536C86.6801 54.1613 94.5633 38.4674 89.7048 23.9492Z" fill="#8E3C00"/>
<path d="M0 73.3984C0 73.3984 4.60325 76.2205 5.79108 80.528C5.79108 80.528 2.07635 79.956 0 73.3984Z" fill="#8E3C00"/>
<path d="M80.9738 20.8205C75.6427 10.5307 60.5979 7.77809 47.3742 14.6738C34.1505 21.5694 27.7513 35.4967 33.0823 45.7865C38.4134 56.0763 53.4583 58.8289 66.682 51.9332C79.9057 45.0375 86.3048 31.1103 80.9738 20.8205Z" fill="url(#paint1_radial_544_24208)"/>
<path opacity="0.5" d="M68.2637 46.7154L73.8121 17.5684C73.8121 17.5684 87.3257 31.0058 68.2637 46.7154Z" fill="#FFF4EA"/>
</g>
<defs>
<linearGradient id="paint0_linear_544_24208" x1="93.2956" y1="26.5469" x2="93.2956" y2="87.9728" gradientUnits="userSpaceOnUse">
<stop stop-color="#FE6A00"/>
<stop offset="1" stop-color="#E15D02"/>
</linearGradient>
<radialGradient id="paint1_radial_544_24208" cx="0" cy="0" r="1" gradientUnits="userSpaceOnUse" gradientTransform="translate(69.6311 17.8182) scale(24.1568 24.2297)">
<stop stop-color="#FF6A00" stop-opacity="0.1"/>
<stop offset="1" stop-color="#FF6A00" stop-opacity="0.05"/>
</radialGradient>
<clipPath id="clip0_544_24208">
<rect width="117" height="100" fill="white"/>
</clipPath>
</defs>
</svg>
