<svg width="14" height="13" viewBox="0 0 14 13" fill="none" xmlns="http://www.w3.org/2000/svg">
<path d="M5.55726 8.9082H1.03659C0.464442 8.9082 0 9.3645 0 9.92662C0 10.488 0.464442 10.945 1.03659 10.945H5.55726C6.12941 10.945 6.59385 10.488 6.59385 9.92662C6.59385 9.3645 6.12941 8.9082 5.55726 8.9082Z" fill="#B4B4BC"/>
<path d="M13.7493 2.32235C13.7493 1.76098 13.2849 1.30469 12.7135 1.30469H8.19284C7.62069 1.30469 7.15625 1.76098 7.15625 2.32235C7.15625 2.88446 7.62069 3.34076 8.19284 3.34076H12.7135C13.2849 3.34076 13.7493 2.88446 13.7493 2.32235Z" fill="#B4B4BC"/>
<path d="M4.72845 2.32276C4.72845 3.60609 3.67047 4.64627 2.36422 4.64627C1.05874 4.64627 0 3.60609 0 2.32276C0 1.04018 1.05874 0 2.36422 0C3.67047 0 4.72845 1.04018 4.72845 2.32276Z" fill="#B4B4BC"/>
<path d="M13.7499 9.89968C13.7499 11.1823 12.692 12.2224 11.3857 12.2224C10.0802 12.2224 9.02148 11.1823 9.02148 9.89968C9.02148 8.61635 10.0802 7.57617 11.3857 7.57617C12.692 7.57617 13.7499 8.61635 13.7499 9.89968Z" fill="#B4B4BC"/>
</svg>
