<svg width="24" height="24" viewBox="0 0 24 24" fill="none" xmlns="http://www.w3.org/2000/svg">
<path d="M9.60039 12.0004L8.11914 13.4816C7.64664 13.2979 7.13664 13.2004 6.60039 13.2004C4.27914 13.2004 2.40039 15.0791 2.40039 17.4004C2.40039 19.7216 4.27914 21.6004 6.60039 21.6004C8.92164 21.6004 10.8004 19.7216 10.8004 17.4004C10.8004 16.8641 10.6991 16.3541 10.5191 15.8816L21.1204 5.28039C21.3866 5.01414 21.3866 4.58664 21.1204 4.32039C20.0591 3.25914 18.3416 3.25914 17.2804 4.32039L12.0004 9.60039L10.5191 8.11914C10.7029 7.64664 10.8004 7.13664 10.8004 6.60039C10.8004 4.27914 8.92164 2.40039 6.60039 2.40039C4.27914 2.40039 2.40039 4.27914 2.40039 6.60039C2.40039 8.92164 4.27914 10.8004 6.60039 10.8004C7.13664 10.8004 7.64664 10.6991 8.11914 10.5191L9.60039 12.0004ZM13.2716 15.6716L17.2804 19.6804C18.3416 20.7416 20.0591 20.7416 21.1204 19.6804C21.3866 19.4141 21.3866 18.9866 21.1204 18.7204L15.6716 13.2716L13.2716 15.6716ZM4.80039 6.60039C4.80039 5.60664 5.60664 4.80039 6.60039 4.80039C7.59414 4.80039 8.40039 5.60664 8.40039 6.60039C8.40039 7.59414 7.59414 8.40039 6.60039 8.40039C5.60664 8.40039 4.80039 7.59414 4.80039 6.60039ZM6.60039 15.6004C7.59414 15.6004 8.40039 16.4066 8.40039 17.4004C8.40039 18.3941 7.59414 19.2004 6.60039 19.2004C5.60664 19.2004 4.80039 18.3941 4.80039 17.4004C4.80039 16.4066 5.60664 15.6004 6.60039 15.6004Z" fill="#FFCFAD"/>
</svg>
