<svg width="24" height="24" viewBox="0 0 24 24" fill="none" xmlns="http://www.w3.org/2000/svg">
<path d="M3.6 4.80039C3.6 3.47664 4.67625 2.40039 6 2.40039H12C13.3238 2.40039 14.4 3.47664 14.4 4.80039V12.0004H14.7C16.5225 12.0004 18 13.4779 18 15.3004V16.5004C18 16.9991 18.4013 17.4004 18.9 17.4004C19.3988 17.4004 19.8 16.9991 19.8 16.5004V10.7254C18.765 10.4591 18 9.51789 18 8.40039V6.16914L17.0325 5.10789C16.6988 4.74039 16.725 4.17039 17.0925 3.83664C17.46 3.50289 18.03 3.52914 18.3638 3.89664L21.0525 6.85164C21.405 7.23789 21.6 7.74039 21.6 8.26539V16.5004C21.6 17.9929 20.3925 19.2004 18.9 19.2004C17.4075 19.2004 16.2 17.9929 16.2 16.5004V15.3004C16.2 14.4716 15.5288 13.8004 14.7 13.8004H14.4V19.8529C14.7488 19.9766 15 20.3104 15 20.7004C15 21.1991 14.5988 21.6004 14.1 21.6004H3.9C3.40125 21.6004 3 21.1991 3 20.7004C3 20.3066 3.25125 19.9766 3.6 19.8529V4.80039ZM6 5.40039V9.00039C6 9.33039 6.27 9.60039 6.6 9.60039H11.4C11.73 9.60039 12 9.33039 12 9.00039V5.40039C12 5.07039 11.73 4.80039 11.4 4.80039H6.6C6.27 4.80039 6 5.07039 6 5.40039Z" fill="#FFCFAD"/>
</svg>
