<svg width="18" height="18" viewBox="0 0 18 18" fill="none" xmlns="http://www.w3.org/2000/svg">
<path d="M16.8754 9.17444C16.8754 8.52695 16.8218 8.05445 16.7058 7.56445H9.16113V10.4869H13.5897C13.5004 11.2132 13.0183 12.3069 11.9468 13.0419L11.9318 13.1397L14.3173 14.9508L14.4825 14.967C16.0004 13.5932 16.8754 11.5719 16.8754 9.17444Z" fill="#4285F4"/>
<path d="M9.16098 16.8742C11.3306 16.8742 13.152 16.1742 14.4824 14.9667L11.9467 13.0416C11.2681 13.5054 10.3574 13.8291 9.16098 13.8291C7.03601 13.8291 5.23246 12.4554 4.58954 10.5566L4.4953 10.5645L2.01486 12.4458L1.98242 12.5341C3.30383 15.1066 6.01811 16.8742 9.16098 16.8742Z" fill="#34A853"/>
<path d="M4.59022 10.5566C4.42059 10.0666 4.32241 9.54159 4.32241 8.99912C4.32241 8.45659 4.42059 7.93161 4.5813 7.44161L4.57681 7.33726L2.06527 5.42578L1.9831 5.46409C1.43848 6.5316 1.12598 7.73037 1.12598 8.99912C1.12598 10.2679 1.43848 11.4666 1.9831 12.5341L4.59022 10.5566Z" fill="#FBBC05"/>
<path d="M9.16103 4.16998C10.6699 4.16998 11.6878 4.80873 12.2682 5.34251L14.536 3.1725C13.1432 1.90375 11.3306 1.125 9.16103 1.125C6.01814 1.125 3.30384 2.89249 1.98242 5.46497L4.58063 7.44249C5.23248 5.54375 7.03604 4.16998 9.16103 4.16998Z" fill="#EB4335"/>
</svg>
