<svg width="24" height="24" viewBox="0 0 24 24" fill="none" xmlns="http://www.w3.org/2000/svg">
<path d="M8.99976 3.90078C8.99976 2.74203 9.94101 1.80078 11.0998 1.80078C12.2585 1.80078 13.1998 2.74203 13.1998 3.90078C13.1998 5.05953 12.2585 6.00078 11.0998 6.00078C9.94101 6.00078 8.99976 5.05953 8.99976 3.90078ZM1.59351 9.19953C1.81476 8.75328 2.35476 8.57328 2.80101 8.79828L3.72351 9.25953L4.18101 8.49453C4.88976 7.31328 6.17601 6.60078 7.54101 6.60078C9.27351 6.60078 10.8298 7.74453 11.3098 9.42828L12.5173 13.6545L16.001 15.3945L16.9685 13.782C17.186 13.422 17.576 13.2008 17.996 13.2008C18.416 13.2008 18.8098 13.422 19.0235 13.782L22.6235 19.782C22.8448 20.1533 22.8523 20.6145 22.6385 20.9895C22.4248 21.3645 22.031 21.6008 21.5998 21.6008H14.3998C13.9685 21.6008 13.5673 21.3683 13.3573 20.9933C13.1473 20.6183 13.151 20.157 13.3723 19.7858L15.0748 16.9433L1.99851 10.407C1.55226 10.1858 1.37226 9.64578 1.59726 9.19953H1.59351ZM4.73601 13.9283L8.93601 16.0283C9.34101 16.2308 9.59976 16.647 9.59976 17.1008V20.4008C9.59976 21.0645 9.06351 21.6008 8.39976 21.6008C7.73601 21.6008 7.19976 21.0645 7.19976 20.4008V17.8433L4.90101 16.692L3.53976 20.7795C3.32976 21.4095 2.65101 21.747 2.02101 21.537C1.39101 21.327 1.05351 20.6483 1.26351 20.022L3.06351 14.622C3.17226 14.292 3.41976 14.0258 3.74226 13.8945C4.06476 13.7633 4.42851 13.7745 4.73976 13.9283H4.73601Z" fill="#FFCFAD"/>
</svg>
