<svg width="24" height="24" viewBox="0 0 24 24" fill="none" xmlns="http://www.w3.org/2000/svg">
<path d="M18.6704 2H16.7704C14.5904 2 13.4404 3.15 13.4404 5.33V7.23C13.4404 9.41 14.5904 10.56 16.7704 10.56H18.6704C20.8504 10.56 22.0004 9.41 22.0004 7.23V5.33C22.0004 3.15 20.8504 2 18.6704 2Z" fill="#FE6A00"/>
<path d="M7.24 13.4297H5.34C3.15 13.4297 2 14.5797 2 16.7597V18.6597C2 20.8497 3.15 21.9997 5.33 21.9997H7.23C9.41 21.9997 10.56 20.8497 10.56 18.6697V16.7697C10.57 14.5797 9.42 13.4297 7.24 13.4297Z" fill="#FE6A00"/>
<path d="M6.29 10.58C8.6593 10.58 10.58 8.6593 10.58 6.29C10.58 3.9207 8.6593 2 6.29 2C3.9207 2 2 3.9207 2 6.29C2 8.6593 3.9207 10.58 6.29 10.58Z" fill="#FE6A00"/>
<path d="M17.7099 22.0019C20.0792 22.0019 21.9999 20.0812 21.9999 17.7119C21.9999 15.3426 20.0792 13.4219 17.7099 13.4219C15.3406 13.4219 13.4199 15.3426 13.4199 17.7119C13.4199 20.0812 15.3406 22.0019 17.7099 22.0019Z" fill="#FE6A00"/>
</svg>
