<svg width="20" height="21" viewBox="0 0 20 21" fill="none" xmlns="http://www.w3.org/2000/svg">
<path d="M19.0871 5.21C18.2371 4.27 16.8171 3.8 14.7571 3.8H14.5171V3.76C14.5171 2.08 14.5171 0 10.7571 0H9.23711C5.47711 0 5.47711 2.09 5.47711 3.76V3.81H5.23711C3.16711 3.81 1.75711 4.28 0.907108 5.22C-0.0828922 6.32 -0.0528923 7.8 0.0471077 8.81L0.0571077 8.88L0.134563 9.69328C0.148827 9.84306 0.229491 9.97834 0.355383 10.0607C0.595188 10.2177 0.996532 10.4763 1.23711 10.61C1.37711 10.7 1.52711 10.78 1.67711 10.86C3.38711 11.8 5.26711 12.43 7.17711 12.74C7.26711 13.68 7.67711 14.78 9.86711 14.78C12.0571 14.78 12.4871 13.69 12.5571 12.72C14.5971 12.39 16.5671 11.68 18.3471 10.64C18.4071 10.61 18.4471 10.58 18.4971 10.55C18.8938 10.3258 19.3054 10.0495 19.6806 9.77885C19.7936 9.69731 19.8659 9.57125 19.8812 9.43274L19.8971 9.29L19.9471 8.82C19.9571 8.76 19.9571 8.71 19.9671 8.64C20.0471 7.63 20.0271 6.25 19.0871 5.21ZM11.0871 12.06C11.0871 13.12 11.0871 13.28 9.85711 13.28C8.62711 13.28 8.62711 13.09 8.62711 12.07V10.81H11.0871V12.06ZM6.90711 3.76C6.90711 2.06 6.90711 1.43 9.23711 1.43H10.7571C13.0871 1.43 13.0871 2.07 13.0871 3.76V3.81H6.90711V3.76Z" fill="#FE6A00"/>
<path d="M18.8706 11.9642C19.2242 11.7959 19.6314 12.0762 19.596 12.4662L19.2371 16.42C19.0271 18.42 18.2071 20.46 13.8071 20.46H6.18711C1.78711 20.46 0.967108 18.42 0.757108 16.43L0.416396 12.6822C0.381354 12.2967 0.77931 12.0167 1.13195 12.1763C2.27136 12.6918 4.3745 13.6064 5.67368 13.9467C5.83799 13.9897 5.97088 14.1073 6.04282 14.2612C6.64979 15.5593 7.96622 16.25 9.86711 16.25C11.7492 16.25 13.0823 15.5327 13.6912 14.2314C13.7633 14.0774 13.8963 13.9598 14.0607 13.9166C15.4403 13.5536 17.6789 12.5312 18.8706 11.9642Z" fill="#FE6A00"/>
</svg>
