<svg width="21" height="22" viewBox="0 0 21 22" fill="none" xmlns="http://www.w3.org/2000/svg">
<path d="M14.5022 21.5H6.50218C1.88218 21.5 1.02218 19.35 0.802181 17.26L0.0521806 9.25C-0.0578194 8.2 -0.0878193 6.65 0.952181 5.49C1.85218 4.49 3.34218 4.01 5.50218 4.01H15.5022C17.6722 4.01 19.1622 4.5 20.0522 5.49C21.0922 6.65 21.0622 8.2 20.9522 9.26L20.2022 17.25C19.9822 19.35 19.1222 21.5 14.5022 21.5ZM5.50218 5.5C3.81218 5.5 2.65218 5.83 2.06218 6.49C1.57218 7.03 1.41218 7.86 1.54218 9.1L2.29218 17.11C2.46218 18.69 2.89218 20 6.50218 20H14.5022C18.1022 20 18.5422 18.69 18.7122 17.1L19.4622 9.11C19.5922 7.86 19.4322 7.03 18.9422 6.49C18.3522 5.83 17.1922 5.5 15.5022 5.5H5.50218Z" fill="#737381"/>
<path d="M14.5022 5.5C14.0922 5.5 13.7522 5.16 13.7522 4.75V3.95C13.7522 2.17 13.7522 1.5 11.3022 1.5H9.70218C7.25218 1.5 7.25218 2.17 7.25218 3.95V4.75C7.25218 5.16 6.91218 5.5 6.50218 5.5C6.09218 5.5 5.75218 5.16 5.75218 4.75V3.95C5.75218 2.19 5.75218 0 9.70218 0H11.3022C15.2522 0 15.2522 2.19 15.2522 3.95V4.75C15.2522 5.16 14.9122 5.5 14.5022 5.5Z" fill="#737381"/>
<path d="M10.5022 15.5C7.75218 15.5 7.75218 13.8 7.75218 12.78V11.75C7.75218 10.34 8.09218 10 9.50218 10H11.5022C12.9122 10 13.2522 10.34 13.2522 11.75V12.75C13.2522 13.79 13.2522 15.5 10.5022 15.5ZM9.25218 11.5C9.25218 11.58 9.25218 11.67 9.25218 11.75V12.78C9.25218 13.81 9.25218 14 10.5022 14C11.7522 14 11.7522 13.84 11.7522 12.77V11.75C11.7522 11.67 11.7522 11.58 11.7522 11.5C11.6722 11.5 11.5822 11.5 11.5022 11.5H9.50218C9.42218 11.5 9.33218 11.5 9.25218 11.5Z" fill="#737381"/>
<path d="M12.5022 13.52C12.1322 13.52 11.8022 13.24 11.7622 12.86C11.7122 12.45 12.0022 12.07 12.4122 12.02C15.0522 11.69 17.5822 10.69 19.7122 9.14C20.0422 8.89 20.5122 8.97 20.7622 9.31C21.0022 9.64 20.9322 10.11 20.5922 10.36C18.2522 12.06 15.4922 13.15 12.5922 13.52C12.5622 13.52 12.5322 13.52 12.5022 13.52Z" fill="#737381"/>
<path d="M8.50218 13.53C8.47218 13.53 8.44218 13.53 8.41218 13.53C5.67218 13.22 3.00218 12.22 0.692181 10.64C0.352181 10.41 0.262181 9.94 0.492181 9.6C0.722181 9.26 1.19218 9.17 1.53218 9.4C3.64218 10.84 6.07218 11.75 8.57218 12.04C8.98218 12.09 9.28218 12.46 9.23218 12.87C9.20218 13.25 8.88218 13.53 8.50218 13.53Z" fill="#737381"/>
</svg>
