<svg width="24" height="24" viewBox="0 0 24 24" fill="none" xmlns="http://www.w3.org/2000/svg">
<path d="M16.8004 4.80039C17.4641 4.80039 18.0004 4.26414 18.0004 3.60039C18.0004 2.93664 17.4641 2.40039 16.8004 2.40039C16.1366 2.40039 15.6004 2.93664 15.6004 3.60039C15.6004 4.26414 16.1366 4.80039 16.8004 4.80039ZM20.4004 9.60039C21.0641 9.60039 21.6004 9.06414 21.6004 8.40039C21.6004 7.73664 21.0641 7.20039 20.4004 7.20039C19.7366 7.20039 19.2004 7.73664 19.2004 8.40039C19.2004 9.06414 19.7366 9.60039 20.4004 9.60039ZM7.20039 19.8004C7.20039 18.8066 6.39414 18.0004 5.40039 18.0004C4.40664 18.0004 3.60039 18.8066 3.60039 19.8004C3.60039 20.7941 4.40664 21.6004 5.40039 21.6004C6.39414 21.6004 7.20039 20.7941 7.20039 19.8004ZM2.40039 8.40039L2.40414 11.1229C2.40414 12.8029 3.06414 14.3891 4.20039 15.5629C4.21164 12.6754 5.70414 9.99789 8.15289 8.46414L8.22414 8.41914C8.13039 8.28039 8.11914 8.09664 8.20914 7.94289L10.5341 3.91539C10.7816 3.48414 10.6354 2.93289 10.2041 2.68539C9.77289 2.43789 9.22539 2.58789 8.97789 3.01914L6.42789 7.43664L4.80414 10.2491V8.40039C4.80414 7.73664 4.26414 7.20039 3.60414 7.20039C2.94414 7.20039 2.40039 7.74039 2.40039 8.40039ZM10.4104 7.05414C10.9391 6.72414 11.5279 6.57789 12.1054 6.60039L13.4741 4.22664C13.7216 3.79539 13.5754 3.24414 13.1441 2.99664C12.7129 2.74914 12.1616 2.89539 11.9141 3.32664L9.39789 7.68414L10.4104 7.05039V7.05414ZM13.6541 5.71539L13.0391 6.78039C13.6054 6.98664 14.1116 7.36539 14.4754 7.89414L15.2141 6.61164C15.4616 6.18039 15.3154 5.62914 14.8841 5.38164C14.4529 5.13414 13.9016 5.28039 13.6541 5.71164V5.71539ZM15.3941 8.10414L14.9254 8.91789C15.0004 9.24039 15.0191 9.57414 14.9891 9.89664H15.1504H16.4404L16.9541 9.00414C17.2016 8.57289 17.0554 8.02164 16.6241 7.77414C16.1929 7.52664 15.6416 7.67289 15.3941 8.10414ZM13.0166 8.96289C12.6641 8.40039 11.9254 8.23164 11.3629 8.58039L9.10539 9.99039C7.17414 11.2016 6.00039 13.3204 6.00039 15.6004V15.9004C6.00039 16.2341 6.03039 16.5604 6.08289 16.8791C7.41039 17.1866 8.40039 18.3791 8.40039 19.8004C8.40039 20.0366 8.37414 20.2691 8.32164 20.4904C9.26664 21.1879 10.4366 21.6004 11.7004 21.6004H18.3004C18.7991 21.6004 19.2004 21.1991 19.2004 20.7004C19.2004 20.2016 18.7991 19.8004 18.3004 19.8004H14.8504C14.6029 19.8004 14.4004 19.5979 14.4004 19.3504C14.4004 19.1029 14.6029 18.9004 14.8504 18.9004H19.5004C19.9991 18.9004 20.4004 18.4991 20.4004 18.0004C20.4004 17.5016 19.9991 17.1004 19.5004 17.1004H14.8504C14.6029 17.1004 14.4004 16.8979 14.4004 16.6504C14.4004 16.4029 14.6029 16.2004 14.8504 16.2004H20.7004C21.1991 16.2004 21.6004 15.7991 21.6004 15.3004C21.6004 14.8016 21.1991 14.4004 20.7004 14.4004H14.8504C14.6029 14.4004 14.4004 14.1979 14.4004 13.9504C14.4004 13.7029 14.6029 13.5004 14.8504 13.5004H19.5004C19.9991 13.5004 20.4004 13.0991 20.4004 12.6004C20.4004 12.1016 19.9991 11.7004 19.5004 11.7004H14.4004H10.9054L12.6379 10.6166C13.2004 10.2641 13.3691 9.52539 13.0204 8.96289H13.0166Z" fill="#FFCFAD"/>
</svg>
