<svg width="12" height="14" viewBox="0 0 12 14" fill="none" xmlns="http://www.w3.org/2000/svg">
<path d="M11.6667 4.46667C10.9667 1.38667 8.27999 0 5.91999 0C5.91999 0 5.91999 0 5.91332 0C3.55999 0 0.866652 1.38 0.166652 4.46C-0.613348 7.9 1.49332 10.8133 3.39999 12.6467C4.10665 13.3267 5.01332 13.6667 5.91999 13.6667C6.82665 13.6667 7.73332 13.3267 8.43332 12.6467C10.34 10.8133 12.4467 7.90667 11.6667 4.46667ZM5.91999 7.80667C4.75999 7.80667 3.81999 6.86667 3.81999 5.70667C3.81999 4.54667 4.75999 3.60667 5.91999 3.60667C7.07999 3.60667 8.01999 4.54667 8.01999 5.70667C8.01999 6.86667 7.07999 7.80667 5.91999 7.80667Z" fill="#FE6A00"/>
</svg>
