<svg width="24" height="24" viewBox="0 0 24 24" fill="none" xmlns="http://www.w3.org/2000/svg">
<path d="M7.47039 6.80211L6.49164 9.59961H17.5091L16.5304 6.80211C16.3616 6.32211 15.9079 5.99961 15.3979 5.99961H8.60289C8.09289 5.99961 7.63914 6.32211 7.47039 6.80211ZM3.88539 9.77961L5.20539 6.01086C5.71164 4.56711 7.07289 3.59961 8.60289 3.59961H15.3979C16.9279 3.59961 18.2891 4.56711 18.7954 6.01086L20.1154 9.77961C20.9854 10.1396 21.6004 10.9984 21.6004 11.9996V19.1996C21.6004 19.8634 21.0641 20.3996 20.4004 20.3996H19.2004C18.5366 20.3996 18.0004 19.8634 18.0004 19.1996V17.9996H6.00039V19.1996C6.00039 19.8634 5.46414 20.3996 4.80039 20.3996H3.60039C2.93664 20.3996 2.40039 19.8634 2.40039 19.1996V11.9996C2.40039 10.9984 3.01539 10.1396 3.88539 9.77961ZM7.20039 13.7996C7.20039 13.1359 6.66414 12.5996 6.00039 12.5996C5.33664 12.5996 4.80039 13.1359 4.80039 13.7996C4.80039 14.4634 5.33664 14.9996 6.00039 14.9996C6.66414 14.9996 7.20039 14.4634 7.20039 13.7996ZM18.0004 14.9996C18.6641 14.9996 19.2004 14.4634 19.2004 13.7996C19.2004 13.1359 18.6641 12.5996 18.0004 12.5996C17.3366 12.5996 16.8004 13.1359 16.8004 13.7996C16.8004 14.4634 17.3366 14.9996 18.0004 14.9996Z" fill="#FFCFAD"/>
</svg>
