<svg width="24" height="24" viewBox="0 0 24 24" fill="none" xmlns="http://www.w3.org/2000/svg">
<path d="M19.2189 2.78664L10.9164 8.32539C9.8252 9.05289 9.13145 10.2341 9.01895 11.5241C11.3552 12.0041 13.1964 13.8454 13.6802 16.1854C14.9739 16.0729 16.1514 15.3791 16.8789 14.2879L22.4139 5.98164C22.6652 5.60289 22.8002 5.16039 22.8002 4.70289C22.8002 3.43164 21.7689 2.40039 20.4977 2.40039C20.0439 2.40039 19.5977 2.53539 19.2189 2.78664ZM12.0002 17.4004C12.0002 15.0791 10.1214 13.2004 7.8002 13.2004C5.47895 13.2004 3.6002 15.0791 3.6002 17.4004C3.6002 17.5466 3.6077 17.6929 3.6227 17.8354C3.6902 18.4916 3.2402 19.2004 2.5802 19.2004H2.4002C1.73645 19.2004 1.2002 19.7366 1.2002 20.4004C1.2002 21.0641 1.73645 21.6004 2.4002 21.6004H7.8002C10.1214 21.6004 12.0002 19.7216 12.0002 17.4004Z" fill="#FFCFAD"/>
</svg>
