<svg width="16" height="16" viewBox="0 0 16 16" fill="none" xmlns="http://www.w3.org/2000/svg">
<path d="M13.3333 4.4987C14.3459 4.4987 15.1667 3.67789 15.1667 2.66536C15.1667 1.65284 14.3459 0.832031 13.3333 0.832031C12.3208 0.832031 11.5 1.65284 11.5 2.66536C11.5 3.67789 12.3208 4.4987 13.3333 4.4987Z" fill="#FE6A00"/>
<path d="M12.693 5.43203C11.6463 5.20536 10.793 4.35203 10.5663 3.30536C10.4797 2.8987 10.473 2.50536 10.5463 2.13203C10.633 1.7187 10.3263 1.33203 9.89967 1.33203H4.66634C2.82634 1.33203 1.33301 2.82536 1.33301 4.66536V9.2987C1.33301 11.1387 2.82634 12.632 4.66634 12.632H5.66634C5.85301 12.632 6.09301 12.752 6.19967 12.8987L7.19967 14.2254C7.63967 14.812 8.35967 14.812 8.79967 14.2254L9.79967 12.8987C9.92634 12.732 10.1197 12.632 10.333 12.632H11.3397C13.1797 12.632 14.6663 11.1454 14.6663 9.30536V6.0987C14.6663 5.6787 14.2797 5.37203 13.8663 5.45203C13.493 5.5187 13.0997 5.5187 12.693 5.43203ZM5.33301 7.9987C4.95967 7.9987 4.66634 7.6987 4.66634 7.33203C4.66634 6.96536 4.95967 6.66536 5.33301 6.66536C5.69967 6.66536 5.99967 6.96536 5.99967 7.33203C5.99967 7.6987 5.70634 7.9987 5.33301 7.9987ZM7.99967 7.9987C7.62634 7.9987 7.33301 7.6987 7.33301 7.33203C7.33301 6.96536 7.62634 6.66536 7.99967 6.66536C8.36634 6.66536 8.66634 6.96536 8.66634 7.33203C8.66634 7.6987 8.37301 7.9987 7.99967 7.9987ZM10.6663 7.9987C10.293 7.9987 9.99967 7.6987 9.99967 7.33203C9.99967 6.96536 10.293 6.66536 10.6663 6.66536C11.033 6.66536 11.333 6.96536 11.333 7.33203C11.333 7.6987 11.0397 7.9987 10.6663 7.9987Z" fill="#FE6A00"/>
</svg>
