<svg width="24" height="24" viewBox="0 0 24 24" fill="none" xmlns="http://www.w3.org/2000/svg">
<path d="M2.40039 4.80039C2.40039 3.47664 3.47664 2.40039 4.80039 2.40039H15.6004C16.9241 2.40039 18.0004 3.47664 18.0004 4.80039H18.6004C20.2579 4.80039 21.6004 6.14289 21.6004 7.80039V11.4004C21.6004 13.0579 20.2579 14.4004 18.6004 14.4004H12.6004C12.2704 14.4004 12.0004 14.6704 12.0004 15.0004V15.7016C12.6979 15.9491 13.2004 16.6166 13.2004 17.4004V21.0004C13.2004 21.9941 12.3941 22.8004 11.4004 22.8004H10.2004C9.20664 22.8004 8.40039 21.9941 8.40039 21.0004V17.4004C8.40039 16.6166 8.90289 15.9491 9.60039 15.7016V15.0004C9.60039 13.3429 10.9429 12.0004 12.6004 12.0004H18.6004C18.9304 12.0004 19.2004 11.7304 19.2004 11.4004V7.80039C19.2004 7.47039 18.9304 7.20039 18.6004 7.20039H18.0004C18.0004 8.52414 16.9241 9.60039 15.6004 9.60039H4.80039C3.47664 9.60039 2.40039 8.52414 2.40039 7.20039V4.80039Z" fill="#FFCFAD"/>
</svg>
