<svg width="24" height="24" viewBox="0 0 24 24" fill="none" xmlns="http://www.w3.org/2000/svg">
<path d="M7.99164 4.82961L7.60164 5.99961H4.80039C3.47664 5.99961 2.40039 7.07586 2.40039 8.39961V17.9996C2.40039 19.3234 3.47664 20.3996 4.80039 20.3996H19.2004C20.5241 20.3996 21.6004 19.3234 21.6004 17.9996V8.39961C21.6004 7.07586 20.5241 5.99961 19.2004 5.99961H16.3991L16.0091 4.82961C15.7654 4.09461 15.0791 3.59961 14.3029 3.59961H9.69789C8.92164 3.59961 8.23539 4.09461 7.99164 4.82961ZM12.0004 9.59961C13.9879 9.59961 15.6004 11.2121 15.6004 13.1996C15.6004 15.1871 13.9879 16.7996 12.0004 16.7996C10.0129 16.7996 8.40039 15.1871 8.40039 13.1996C8.40039 11.2121 10.0129 9.59961 12.0004 9.59961Z" fill="#FFCFAD"/>
</svg>
