<svg width="16" height="16" viewBox="0 0 16 16" fill="none" xmlns="http://www.w3.org/2000/svg">
<path d="M9.99967 15.1673H5.99967C2.37967 15.1673 0.833008 13.6207 0.833008 10.0007V6.00065C0.833008 2.38065 2.37967 0.833984 5.99967 0.833984H9.99967C13.6197 0.833984 15.1663 2.38065 15.1663 6.00065V10.0007C15.1663 13.6207 13.6197 15.1673 9.99967 15.1673ZM5.99967 1.83398C2.92634 1.83398 1.83301 2.92732 1.83301 6.00065V10.0007C1.83301 13.074 2.92634 14.1673 5.99967 14.1673H9.99967C13.073 14.1673 14.1663 13.074 14.1663 10.0007V6.00065C14.1663 2.92732 13.073 1.83398 9.99967 1.83398H5.99967Z" fill="#FE6A00"/>
<path d="M9.30039 15.1671C9.07372 15.1671 8.87369 15.0138 8.81369 14.7871L5.51372 1.45378C5.44706 1.18711 5.61372 0.913786 5.88038 0.847119C6.14705 0.780452 6.42036 0.940454 6.48703 1.21379L9.78704 14.5471C9.85371 14.8138 9.68705 15.0871 9.42038 15.1538C9.38038 15.1604 9.34039 15.1671 9.30039 15.1671Z" fill="#FE6A00"/>
<path d="M1.33323 10.4991C1.11323 10.4991 0.919921 10.3591 0.853254 10.1391C0.773254 9.87242 0.926553 9.59908 1.19322 9.51908L7.54657 7.66575C7.81324 7.58575 8.08657 7.73908 8.16657 8.00575C8.24657 8.27241 8.09323 8.54575 7.82656 8.62575L1.47325 10.4791C1.42658 10.4924 1.3799 10.4991 1.33323 10.4991Z" fill="#FE6A00"/>
</svg>
