<svg width="24" height="24" viewBox="0 0 24 24" fill="none" xmlns="http://www.w3.org/2000/svg">
<path d="M10.8004 3.59961C10.1366 3.59961 9.60039 4.13586 9.60039 4.79961H6.00039C5.33664 4.79961 4.80039 5.33586 4.80039 5.99961C4.80039 6.66336 5.33664 7.19961 6.00039 7.19961H9.60039V9.59961H8.89914C8.58039 9.59961 8.27664 9.72711 8.05164 9.95211L7.20039 10.7996H3.60039C2.93664 10.7996 2.40039 11.3359 2.40039 11.9996V14.3996C2.40039 15.0634 2.93664 15.5996 3.60039 15.5996H7.35414C8.11164 16.6871 9.37539 17.3996 10.8004 17.3996C12.2254 17.3996 13.4891 16.6871 14.2466 15.5996H15.6004C16.2641 15.5996 16.8004 16.1359 16.8004 16.7996C16.8004 17.4634 17.3366 17.9996 18.0004 17.9996H20.4004C21.0641 17.9996 21.6004 17.4634 21.6004 16.7996C21.6004 13.4846 18.9154 10.7996 15.6004 10.7996H14.4004L13.5529 9.95211C13.3279 9.72711 13.0241 9.59961 12.7054 9.59961H12.0041V7.19961H15.6041C16.2679 7.19961 16.8041 6.66336 16.8041 5.99961C16.8041 5.33586 16.2679 4.79961 15.6041 4.79961H12.0041C12.0041 4.13586 11.4679 3.59961 10.8041 3.59961H10.8004ZM18.7804 19.4771L18.0979 21.0671C18.0304 21.2209 17.9966 21.3896 17.9966 21.5584V21.6034C17.9966 22.2671 18.5329 22.8034 19.1966 22.8034C19.8604 22.8034 20.3966 22.2671 20.3966 21.6034V21.5584C20.3966 21.3896 20.3629 21.2246 20.2954 21.0671L19.6129 19.4771C19.5416 19.3084 19.3766 19.1996 19.1929 19.1996C19.0091 19.1996 18.8479 19.3084 18.7729 19.4771H18.7804Z" fill="#FFCFAD"/>
</svg>
