<svg width="24" height="24" viewBox="0 0 24 24" fill="none" xmlns="http://www.w3.org/2000/svg">
<path d="M21.5589 10.7386L20.1989 9.15859C19.9389 8.85859 19.7289 8.29859 19.7289 7.89859V6.19859C19.7289 5.13859 18.8589 4.26859 17.7989 4.26859H16.0989C15.7089 4.26859 15.1389 4.05859 14.8389 3.79859L13.2589 2.43859C12.5689 1.84859 11.4389 1.84859 10.7389 2.43859L9.16891 3.80859C8.86891 4.05859 8.29891 4.26859 7.90891 4.26859H6.17891C5.11891 4.26859 4.24891 5.13859 4.24891 6.19859V7.90859C4.24891 8.29859 4.03891 8.85859 3.78891 9.15859L2.43891 10.7486C1.85891 11.4386 1.85891 12.5586 2.43891 13.2486L3.78891 14.8386C4.03891 15.1386 4.24891 15.6986 4.24891 16.0886V17.7986C4.24891 18.8586 5.11891 19.7286 6.17891 19.7286H7.90891C8.29891 19.7286 8.86891 19.9386 9.16891 20.1986L10.7489 21.5586C11.4389 22.1486 12.5689 22.1486 13.2689 21.5586L14.8489 20.1986C15.1489 19.9386 15.7089 19.7286 16.1089 19.7286H17.8089C18.8689 19.7286 19.7389 18.8586 19.7389 17.7986V16.0986C19.7389 15.7086 19.9489 15.1386 20.2089 14.8386L21.5689 13.2586C22.1489 12.5686 22.1489 11.4286 21.5589 10.7386ZM16.6789 11.9986L15.5089 15.5586C15.3589 16.1486 14.7289 16.6286 14.0889 16.6286H12.2389C11.9189 16.6286 11.4689 16.5186 11.2689 16.3186L9.79891 15.1686C9.76891 15.8086 9.47891 16.0786 8.76891 16.0786H8.28891C7.54891 16.0786 7.24891 15.7886 7.24891 15.0886V10.3086C7.24891 9.60859 7.54891 9.31859 8.28891 9.31859H8.77891C9.51891 9.31859 9.81891 9.60859 9.81891 10.3086V10.6686L11.7589 7.78859C11.9589 7.47859 12.4689 7.25859 12.8989 7.42859C13.3689 7.58859 13.6689 8.10859 13.5689 8.56859L13.3289 10.1286C13.3089 10.2686 13.3389 10.3986 13.4289 10.4986C13.5089 10.5886 13.6289 10.6486 13.7589 10.6486H15.7089C16.0889 10.6486 16.4089 10.7986 16.5989 11.0686C16.7689 11.3286 16.7989 11.6586 16.6789 11.9986Z" fill="#DFDFE1"/>
</svg>
