<svg width="24" height="24" viewBox="0 0 24 24" fill="none" xmlns="http://www.w3.org/2000/svg">
<path d="M21.5589 10.7381L20.2089 9.15812C19.9589 8.85812 19.7489 8.29813 19.7489 7.89813V6.19812C19.7489 5.13812 18.8789 4.26812 17.8189 4.26812H16.1189C15.7189 4.26812 15.1489 4.05813 14.8489 3.80812L13.2689 2.45812C12.5789 1.86813 11.4489 1.86813 10.7589 2.45812L9.15891 3.80812C8.85891 4.05813 8.29891 4.26812 7.89891 4.26812H6.16891C5.10891 4.26812 4.23891 5.13812 4.23891 6.19812V7.89813C4.23891 8.28813 4.03891 8.84812 3.78891 9.14812L2.43891 10.7381C1.85891 11.4381 1.85891 12.5581 2.43891 13.2381L3.78891 14.8281C4.03891 15.1181 4.23891 15.6881 4.23891 16.0781V17.7881C4.23891 18.8481 5.10891 19.7181 6.16891 19.7181H7.90891C8.29891 19.7181 8.86891 19.9281 9.16891 20.1781L10.7489 21.5281C11.4389 22.1181 12.5689 22.1181 13.2589 21.5281L14.8389 20.1781C15.1389 19.9281 15.6989 19.7181 16.0989 19.7181H17.7989C18.8589 19.7181 19.7289 18.8481 19.7289 17.7881V16.0881C19.7289 15.6881 19.9389 15.1281 20.1889 14.8281L21.5389 13.2481C22.1489 12.5681 22.1489 11.4381 21.5589 10.7381ZM11.2489 8.12813C11.2489 7.71813 11.5889 7.37813 11.9989 7.37813C12.4089 7.37813 12.7489 7.71813 12.7489 8.12813V12.9581C12.7489 13.3681 12.4089 13.7081 11.9989 13.7081C11.5889 13.7081 11.2489 13.3681 11.2489 12.9581V8.12813ZM11.9989 16.8681C11.4489 16.8681 10.9989 16.4181 10.9989 15.8681C10.9989 15.3181 11.4389 14.8681 11.9989 14.8681C12.5489 14.8681 12.9989 15.3181 12.9989 15.8681C12.9989 16.4181 12.5589 16.8681 11.9989 16.8681Z" fill="#DFDFE1"/>
</svg>
