<svg width="14" height="14" viewBox="0 0 14 14" fill="none" xmlns="http://www.w3.org/2000/svg">
<path d="M12.291 3.05018C11.3518 2.95685 10.4126 2.88685 9.46763 2.83435V2.82852L9.3393 2.07018C9.2518 1.53352 9.12347 0.728516 7.75847 0.728516H6.23013C4.87097 0.728516 4.74263 1.49852 4.6493 2.06435L4.5268 2.81102C3.9843 2.84602 3.4418 2.88102 2.8993 2.93352L1.7093 3.05018C1.4643 3.07352 1.2893 3.28935 1.31263 3.52852C1.33597 3.76768 1.54597 3.94268 1.79097 3.91935L2.98097 3.80268C6.03763 3.49935 9.11763 3.61602 12.2093 3.92518C12.2268 3.92518 12.2385 3.92518 12.256 3.92518C12.4776 3.92518 12.6701 3.75602 12.6935 3.52852C12.711 3.28935 12.536 3.07352 12.291 3.05018Z" fill="#737381"/>
<path d="M11.2175 4.74898C11.0775 4.60315 10.885 4.52148 10.6867 4.52148H3.31335C3.11502 4.52148 2.91668 4.60315 2.78252 4.74898C2.64835 4.89482 2.57252 5.09315 2.58418 5.29732L2.94585 11.2823C3.01002 12.169 3.09168 13.2773 5.12752 13.2773H8.87252C10.9083 13.2773 10.99 12.1748 11.0542 11.2823L11.4158 5.30315C11.4275 5.09315 11.3517 4.89482 11.2175 4.74898ZM7.96835 10.3548H6.02585C5.78668 10.3548 5.58835 10.1565 5.58835 9.91732C5.58835 9.67815 5.78668 9.47982 6.02585 9.47982H7.96835C8.20752 9.47982 8.40585 9.67815 8.40585 9.91732C8.40585 10.1565 8.20752 10.3548 7.96835 10.3548ZM8.45835 8.02148H5.54168C5.30252 8.02148 5.10418 7.82315 5.10418 7.58398C5.10418 7.34482 5.30252 7.14648 5.54168 7.14648H8.45835C8.69752 7.14648 8.89585 7.34482 8.89585 7.58398C8.89585 7.82315 8.69752 8.02148 8.45835 8.02148Z" fill="#737381"/>
</svg>
