<svg width="24" height="24" viewBox="0 0 24 24" fill="none" xmlns="http://www.w3.org/2000/svg">
<path d="M11.9392 2.21178L9.52922 7.82178H7.11922C6.71922 7.82178 6.32922 7.85178 5.94922 7.93178L6.94922 5.53178L6.98922 5.44178L7.04922 5.28178C7.07922 5.21178 7.09922 5.15178 7.12922 5.10178C8.28922 2.41178 9.58922 1.57178 11.9392 2.21178Z" fill="#DFDFE1"/>
<path d="M18.7291 8.08953L18.7091 8.07953C18.1091 7.90953 17.4991 7.81953 16.8791 7.81953H10.6191L12.8691 2.58953L12.8991 2.51953C13.0391 2.56953 13.1891 2.63953 13.3391 2.68953L15.5491 3.61953C16.7791 4.12953 17.6391 4.65953 18.1691 5.29953C18.2591 5.41953 18.3391 5.52953 18.4191 5.65953C18.5091 5.79953 18.5791 5.93953 18.6191 6.08953C18.6591 6.17953 18.6891 6.25953 18.7091 6.34953C18.8591 6.85953 18.8691 7.43953 18.7291 8.08953Z" fill="#DFDFE1"/>
<path d="M18.2902 9.52031C17.8402 9.39031 17.3702 9.32031 16.8802 9.32031H7.12023C6.44023 9.32031 5.80023 9.45031 5.20023 9.71031C3.46023 10.4603 2.24023 12.1903 2.24023 14.2003V16.1503C2.24023 16.3903 2.26023 16.6203 2.29023 16.8603C2.51023 20.0403 4.21023 21.7403 7.39023 21.9503C7.62023 21.9803 7.85023 22.0003 8.10023 22.0003H15.9002C19.6002 22.0003 21.5502 20.2403 21.7402 16.7403C21.7502 16.5503 21.7602 16.3503 21.7602 16.1503V14.2003C21.7602 11.9903 20.2902 10.1303 18.2902 9.52031ZM14.5002 16.7503H9.50023C9.09023 16.7503 8.75023 16.4103 8.75023 16.0003C8.75023 15.5903 9.09023 15.2503 9.50023 15.2503H14.5002C14.9102 15.2503 15.2502 15.5903 15.2502 16.0003C15.2502 16.4103 14.9102 16.7503 14.5002 16.7503Z" fill="#DFDFE1"/>
</svg>
